{
    "asset" : {
        "generator" : "Khronos glTF Blender I/O v3.3.27",
        "version" : "2.0"
    },
    "scene" : 0,
    "scenes" : [
        {
            "name" : "Scene",
            "nodes" : [
                0,
                1,
                2,
                3,
                4,
                5,
                6,
                7
            ]
        }
    ],
    "nodes" : [
        {
            "mesh" : 0,
            "name" : "_post_lod0",
            "translation" : [
                -0.27681535482406616,
                0.9726569652557373,
                -0.29848694801330566
            ]
        },
        {
            "mesh" : 1,
            "name" : "ground"
        },
        {
            "mesh" : 2,
            "name" : "file_c4_corner4.005",
            "scale" : [
                0.3333333432674408,
                1,
                0.5
            ],
            "translation" : [
                1,
                0,
                0.5000026226043701
            ]
        },
        {
            "mesh" : 2,
            "name" : "file_c4_corner4.006",
            "rotation" : [
                0,
                0.707107663154602,
                0,
                0.7071058750152588
            ],
            "scale" : [
                0.3333333432674408,
                1,
                0.5
            ],
            "translation" : [
                1,
                0,
                -0.5
            ]
        },
        {
            "mesh" : 2,
            "name" : "file_c4_corner4.007",
            "rotation" : [
                0,
                -1,
                0,
                1.617281895960332e-06
            ],
            "scale" : [
                0.3333333432674408,
                1,
                0.5
            ],
            "translation" : [
                -1.000000238418579,
                0,
                -0.5000016689300537
            ]
        },
        {
            "mesh" : 2,
            "name" : "file_c4_corner4.008",
            "rotation" : [
                0,
                -0.7071054577827454,
                0,
                0.707108199596405
            ],
            "scale" : [
                0.3333333432674408,
                1,
                0.5
            ],
            "translation" : [
                -0.9999997615814209,
                0,
                0.5000009536743164
            ]
        },
        {
            "mesh" : 3,
            "name" : "file_c4_center3.011",
            "rotation" : [
                0,
                -0.7071038484573364,
                0,
                0.707109808921814
            ],
            "scale" : [
                0.3333333432674408,
                1,
                0.5
            ],
            "translation" : [
                0,
                0,
                0.5
            ]
        },
        {
            "mesh" : 3,
            "name" : "file_c4_center3.012",
            "rotation" : [
                0,
                0.7071102261543274,
                0,
                0.707103431224823
            ],
            "scale" : [
                0.3333333432674408,
                1,
                0.5
            ],
            "translation" : [
                0,
                0,
                -0.5
            ]
        }
    ],
    "materials" : [
        {
            "name" : "school",
            "pbrMetallicRoughness" : {
                "baseColorTexture" : {
                    "index" : 0
                }
            }
        },
        {
            "alphaMode" : "BLEND",
            "doubleSided" : true,
            "name" : "g_city_corner4",
            "pbrMetallicRoughness" : {
                "baseColorTexture" : {
                    "index" : 1
                }
            }
        },
        {
            "alphaMode" : "BLEND",
            "doubleSided" : true,
            "name" : "g_city_center3",
            "pbrMetallicRoughness" : {
                "baseColorTexture" : {
                    "index" : 2
                }
            }
        }
    ],
    "meshes" : [
        {
            "name" : "Mesh_0.030",
            "primitives" : [
                {
                    "attributes" : {
                        "POSITION" : 0,
                        "NORMAL" : 1,
                        "TANGENT" : 2,
                        "TEXCOORD_0" : 3
                    },
                    "indices" : 4,
                    "material" : 0
                }
            ]
        },
        {
            "name" : "Plane.002",
            "primitives" : [
                {
                    "attributes" : {
                        "POSITION" : 5,
                        "NORMAL" : 6,
                        "TANGENT" : 7,
                        "TEXCOORD_0" : 8
                    },
                    "indices" : 9
                }
            ]
        },
        {
            "name" : "data\\jakob\\decals\\city\\city_corner4.cfg.001",
            "primitives" : [
                {
                    "attributes" : {
                        "POSITION" : 10,
                        "NORMAL" : 11,
                        "TANGENT" : 12,
                        "TEXCOORD_0" : 13
                    },
                    "indices" : 14,
                    "material" : 1
                }
            ]
        },
        {
            "name" : "data\\jakob\\decals\\city\\city_center3.cfg.001",
            "primitives" : [
                {
                    "attributes" : {
                        "POSITION" : 15,
                        "NORMAL" : 16,
                        "TANGENT" : 17,
                        "TEXCOORD_0" : 18
                    },
                    "indices" : 14,
                    "material" : 2
                }
            ]
        }
    ],
    "textures" : [
        {
            "sampler" : 0,
            "source" : 0
        },
        {
            "sampler" : 0,
            "source" : 1
        },
        {
            "sampler" : 0,
            "source" : 2
        }
    ],
    "images" : [
        {
            "mimeType" : "image/png",
            "name" : "service_02_diff_0",
            "uri" : "service_02_diff_0.png"
        },
        {
            "mimeType" : "image/png",
            "name" : "city_corner4_diff",
            "uri" : "city_corner4_diff.png"
        },
        {
            "mimeType" : "image/png",
            "name" : "city_center3_diff",
            "uri" : "city_center3_diff.png"
        }
    ],
    "accessors" : [
        {
            "bufferView" : 0,
            "componentType" : 5126,
            "count" : 5991,
            "max" : [
                2.157069206237793,
                1.2285149097442627,
                1.2166696786880493
            ],
            "min" : [
                -1.5852664709091187,
                -1.7036139965057373,
                -0.5531256198883057
            ],
            "type" : "VEC3"
        },
        {
            "bufferView" : 1,
            "componentType" : 5126,
            "count" : 5991,
            "type" : "VEC3"
        },
        {
            "bufferView" : 2,
            "componentType" : 5126,
            "count" : 5991,
            "type" : "VEC4"
        },
        {
            "bufferView" : 3,
            "componentType" : 5126,
            "count" : 5991,
            "type" : "VEC2"
        },
        {
            "bufferView" : 4,
            "componentType" : 5123,
            "count" : 12501,
            "type" : "SCALAR"
        },
        {
            "bufferView" : 5,
            "componentType" : 5126,
            "count" : 4,
            "max" : [
                1.5,
                0,
                1
            ],
            "min" : [
                -1.5,
                0,
                -1
            ],
            "type" : "VEC3"
        },
        {
            "bufferView" : 6,
            "componentType" : 5126,
            "count" : 4,
            "type" : "VEC3"
        },
        {
            "bufferView" : 7,
            "componentType" : 5126,
            "count" : 4,
            "type" : "VEC4"
        },
        {
            "bufferView" : 8,
            "componentType" : 5126,
            "count" : 4,
            "type" : "VEC2"
        },
        {
            "bufferView" : 9,
            "componentType" : 5123,
            "count" : 6,
            "type" : "SCALAR"
        },
        {
            "bufferView" : 10,
            "componentType" : 5126,
            "count" : 4,
            "max" : [
                1.5,
                0,
                1
            ],
            "min" : [
                -1.5,
                0,
                -1
            ],
            "type" : "VEC3"
        },
        {
            "bufferView" : 11,
            "componentType" : 5126,
            "count" : 4,
            "type" : "VEC3"
        },
        {
            "bufferView" : 12,
            "componentType" : 5126,
            "count" : 4,
            "type" : "VEC4"
        },
        {
            "bufferView" : 13,
            "componentType" : 5126,
            "count" : 4,
            "type" : "VEC2"
        },
        {
            "bufferView" : 14,
            "componentType" : 5123,
            "count" : 6,
            "type" : "SCALAR"
        },
        {
            "bufferView" : 15,
            "componentType" : 5126,
            "count" : 4,
            "max" : [
                1.5,
                0,
                1
            ],
            "min" : [
                -1.5,
                0,
                -1
            ],
            "type" : "VEC3"
        },
        {
            "bufferView" : 16,
            "componentType" : 5126,
            "count" : 4,
            "type" : "VEC3"
        },
        {
            "bufferView" : 17,
            "componentType" : 5126,
            "count" : 4,
            "type" : "VEC4"
        },
        {
            "bufferView" : 18,
            "componentType" : 5126,
            "count" : 4,
            "type" : "VEC2"
        }
    ],
    "bufferViews" : [
        {
            "buffer" : 0,
            "byteLength" : 71892,
            "byteOffset" : 0,
            "target" : 34962
        },
        {
            "buffer" : 0,
            "byteLength" : 71892,
            "byteOffset" : 71892,
            "target" : 34962
        },
        {
            "buffer" : 0,
            "byteLength" : 95856,
            "byteOffset" : 143784,
            "target" : 34962
        },
        {
            "buffer" : 0,
            "byteLength" : 47928,
            "byteOffset" : 239640,
            "target" : 34962
        },
        {
            "buffer" : 0,
            "byteLength" : 25002,
            "byteOffset" : 287568,
            "target" : 34963
        },
        {
            "buffer" : 0,
            "byteLength" : 48,
            "byteOffset" : 312572,
            "target" : 34962
        },
        {
            "buffer" : 0,
            "byteLength" : 48,
            "byteOffset" : 312620,
            "target" : 34962
        },
        {
            "buffer" : 0,
            "byteLength" : 64,
            "byteOffset" : 312668,
            "target" : 34962
        },
        {
            "buffer" : 0,
            "byteLength" : 32,
            "byteOffset" : 312732,
            "target" : 34962
        },
        {
            "buffer" : 0,
            "byteLength" : 12,
            "byteOffset" : 312764,
            "target" : 34963
        },
        {
            "buffer" : 0,
            "byteLength" : 48,
            "byteOffset" : 312776,
            "target" : 34962
        },
        {
            "buffer" : 0,
            "byteLength" : 48,
            "byteOffset" : 312824,
            "target" : 34962
        },
        {
            "buffer" : 0,
            "byteLength" : 64,
            "byteOffset" : 312872,
            "target" : 34962
        },
        {
            "buffer" : 0,
            "byteLength" : 32,
            "byteOffset" : 312936,
            "target" : 34962
        },
        {
            "buffer" : 0,
            "byteLength" : 12,
            "byteOffset" : 312968,
            "target" : 34963
        },
        {
            "buffer" : 0,
            "byteLength" : 48,
            "byteOffset" : 312980,
            "target" : 34962
        },
        {
            "buffer" : 0,
            "byteLength" : 48,
            "byteOffset" : 313028,
            "target" : 34962
        },
        {
            "buffer" : 0,
            "byteLength" : 64,
            "byteOffset" : 313076,
            "target" : 34962
        },
        {
            "buffer" : 0,
            "byteLength" : 32,
            "byteOffset" : 313140,
            "target" : 34962
        }
    ],
    "samplers" : [
        {
            "magFilter" : 9729,
            "minFilter" : 9987
        }
    ],
    "buffers" : [
        {
            "byteLength" : 313172,
            "uri" : "post.bin"
        }
    ]
}
