{
    "asset" : {
        "generator" : "Khronos glTF Blender I/O v3.3.27",
        "version" : "2.0"
    },
    "scene" : 0,
    "scenes" : [
        {
            "name" : "Scene",
            "nodes" : [
                0,
                1,
                2,
                3,
                4,
                5,
                6,
                7
            ]
        }
    ],
    "nodes" : [
        {
            "mesh" : 0,
            "name" : "_1_lod0",
            "scale" : [
                1.1736512184143066,
                1.2245827913284302,
                1.1736512184143066
            ],
            "translation" : [
                0,
                0.07442497462034225,
                0
            ]
        },
        {
            "mesh" : 1,
            "name" : "_0_lod0",
            "scale" : [
                1.1736512184143066,
                1.2245827913284302,
                1.1736512184143066
            ],
            "translation" : [
                0,
                0.07442497462034225,
                0
            ]
        },
        {
            "mesh" : 2,
            "name" : "_1_lod1",
            "scale" : [
                1.1736512184143066,
                1.2245827913284302,
                1.1736512184143066
            ],
            "translation" : [
                0,
                0.07442497462034225,
                0
            ]
        },
        {
            "mesh" : 3,
            "name" : "_0_lod1",
            "scale" : [
                1.1736512184143066,
                1.2245827913284302,
                1.1736512184143066
            ],
            "translation" : [
                0,
                0.07442497462034225,
                0
            ]
        },
        {
            "mesh" : 4,
            "name" : "_1_lod2",
            "scale" : [
                1.1736512184143066,
                1.2245827913284302,
                1.1736512184143066
            ],
            "translation" : [
                0,
                0.07442497462034225,
                0
            ]
        },
        {
            "mesh" : 5,
            "name" : "_0_lod2",
            "scale" : [
                1.1736512184143066,
                1.2245827913284302,
                1.1736512184143066
            ],
            "translation" : [
                0,
                0.07442497462034225,
                0
            ]
        },
        {
            "mesh" : 6,
            "name" : "_1_lod3",
            "scale" : [
                1.1736512184143066,
                1.2245827913284302,
                1.1736512184143066
            ],
            "translation" : [
                0,
                0.07442497462034225,
                0
            ]
        },
        {
            "mesh" : 7,
            "name" : "_0_lod3",
            "scale" : [
                1.1736512184143066,
                1.2245827913284302,
                1.1736512184143066
            ],
            "translation" : [
                0,
                0.07442497462034225,
                0
            ]
        }
    ],
    "materials" : [
        {
            "alphaMode" : "BLEND",
            "name" : "mat_all_trees",
            "pbrMetallicRoughness" : {
                "baseColorTexture" : {
                    "index" : 0
                }
            }
        },
        {
            "alphaMode" : "BLEND",
            "name" : "mat_all_trees.004",
            "pbrMetallicRoughness" : {
                "baseColorTexture" : {
                    "index" : 1
                }
            }
        },
        {
            "alphaMode" : "BLEND",
            "name" : "mat_all_trees.005",
            "pbrMetallicRoughness" : {
                "baseColorTexture" : {
                    "index" : 2
                }
            }
        },
        {
            "alphaMode" : "BLEND",
            "name" : "mat_all_trees.006",
            "pbrMetallicRoughness" : {
                "baseColorTexture" : {
                    "index" : 3
                }
            }
        }
    ],
    "meshes" : [
        {
            "name" : "Mesh_0.012",
            "primitives" : [
                {
                    "attributes" : {
                        "POSITION" : 0,
                        "NORMAL" : 1,
                        "TANGENT" : 2,
                        "TEXCOORD_0" : 3
                    },
                    "indices" : 4,
                    "material" : 0
                }
            ]
        },
        {
            "name" : "Mesh_0.015",
            "primitives" : [
                {
                    "attributes" : {
                        "POSITION" : 5,
                        "NORMAL" : 6,
                        "TANGENT" : 7,
                        "TEXCOORD_0" : 8
                    },
                    "indices" : 9,
                    "material" : 0
                }
            ]
        },
        {
            "name" : "Mesh_0.001_LOD1.001",
            "primitives" : [
                {
                    "attributes" : {
                        "POSITION" : 10,
                        "NORMAL" : 11,
                        "TANGENT" : 12,
                        "TEXCOORD_0" : 13
                    },
                    "indices" : 14,
                    "material" : 1
                }
            ]
        },
        {
            "name" : "Mesh_0.006_LOD1.001",
            "primitives" : [
                {
                    "attributes" : {
                        "POSITION" : 15,
                        "NORMAL" : 16,
                        "TANGENT" : 17,
                        "TEXCOORD_0" : 18
                    },
                    "indices" : 19,
                    "material" : 1
                }
            ]
        },
        {
            "name" : "Mesh_0.001_LOD2.001",
            "primitives" : [
                {
                    "attributes" : {
                        "POSITION" : 20,
                        "NORMAL" : 21,
                        "TANGENT" : 22,
                        "TEXCOORD_0" : 23
                    },
                    "indices" : 24,
                    "material" : 2
                }
            ]
        },
        {
            "name" : "Mesh_0.006_LOD2.001",
            "primitives" : [
                {
                    "attributes" : {
                        "POSITION" : 25,
                        "NORMAL" : 26,
                        "TANGENT" : 27,
                        "TEXCOORD_0" : 28
                    },
                    "indices" : 29,
                    "material" : 2
                }
            ]
        },
        {
            "name" : "Mesh_0.001_LOD3.001",
            "primitives" : [
                {
                    "attributes" : {
                        "POSITION" : 30,
                        "NORMAL" : 31,
                        "TANGENT" : 32,
                        "TEXCOORD_0" : 33
                    },
                    "indices" : 34,
                    "material" : 3
                }
            ]
        },
        {
            "name" : "Mesh_0.006_LOD3.001",
            "primitives" : [
                {
                    "attributes" : {
                        "POSITION" : 35,
                        "NORMAL" : 36,
                        "TANGENT" : 37,
                        "TEXCOORD_0" : 38
                    },
                    "indices" : 39,
                    "material" : 3
                }
            ]
        }
    ],
    "textures" : [
        {
            "sampler" : 0,
            "source" : 0
        },
        {
            "sampler" : 0,
            "source" : 1
        },
        {
            "sampler" : 0,
            "source" : 1
        },
        {
            "sampler" : 0,
            "source" : 1
        }
    ],
    "images" : [
        {
            "mimeType" : "image/png",
            "name" : "all_trees_atlas_diff_0",
            "uri" : "all_trees_atlas_diff_0.png"
        },
        {
            "mimeType" : "image/png",
            "name" : "all_trees_atlas_diff_0",
            "uri" : "all_trees_atlas_diff_0-1.png"
        }
    ],
    "accessors" : [
        {
            "bufferView" : 0,
            "componentType" : 5126,
            "count" : 1357,
            "max" : [
                0.325625479221344,
                0.4726129174232483,
                0.27783116698265076
            ],
            "min" : [
                -0.3146088719367981,
                -0.08397729694843292,
                -0.27353599667549133
            ],
            "type" : "VEC3"
        },
        {
            "bufferView" : 1,
            "componentType" : 5126,
            "count" : 1357,
            "type" : "VEC3"
        },
        {
            "bufferView" : 2,
            "componentType" : 5126,
            "count" : 1357,
            "type" : "VEC4"
        },
        {
            "bufferView" : 3,
            "componentType" : 5126,
            "count" : 1357,
            "type" : "VEC2"
        },
        {
            "bufferView" : 4,
            "componentType" : 5123,
            "count" : 2691,
            "type" : "SCALAR"
        },
        {
            "bufferView" : 5,
            "componentType" : 5126,
            "count" : 1382,
            "max" : [
                0.39498814940452576,
                0.5039143562316895,
                0.3631875514984131
            ],
            "min" : [
                -0.2833104133605957,
                -0.08595214784145355,
                -0.3217735290527344
            ],
            "type" : "VEC3"
        },
        {
            "bufferView" : 6,
            "componentType" : 5126,
            "count" : 1382,
            "type" : "VEC3"
        },
        {
            "bufferView" : 7,
            "componentType" : 5126,
            "count" : 1382,
            "type" : "VEC4"
        },
        {
            "bufferView" : 8,
            "componentType" : 5126,
            "count" : 1382,
            "type" : "VEC2"
        },
        {
            "bufferView" : 9,
            "componentType" : 5123,
            "count" : 1668,
            "type" : "SCALAR"
        },
        {
            "bufferView" : 10,
            "componentType" : 5126,
            "count" : 1081,
            "max" : [
                0.325625479221344,
                0.4726129174232483,
                0.2805079221725464
            ],
            "min" : [
                -0.31698939204216003,
                -0.08408252894878387,
                -0.27353599667549133
            ],
            "type" : "VEC3"
        },
        {
            "bufferView" : 11,
            "componentType" : 5126,
            "count" : 1081,
            "type" : "VEC3"
        },
        {
            "bufferView" : 12,
            "componentType" : 5126,
            "count" : 1081,
            "type" : "VEC4"
        },
        {
            "bufferView" : 13,
            "componentType" : 5126,
            "count" : 1081,
            "type" : "VEC2"
        },
        {
            "bufferView" : 14,
            "componentType" : 5123,
            "count" : 1896,
            "type" : "SCALAR"
        },
        {
            "bufferView" : 15,
            "componentType" : 5126,
            "count" : 1330,
            "max" : [
                0.39498814940452576,
                0.5039143562316895,
                0.3631875514984131
            ],
            "min" : [
                -0.2833104133605957,
                -0.08595214784145355,
                -0.3217735290527344
            ],
            "type" : "VEC3"
        },
        {
            "bufferView" : 16,
            "componentType" : 5126,
            "count" : 1330,
            "type" : "VEC3"
        },
        {
            "bufferView" : 17,
            "componentType" : 5126,
            "count" : 1330,
            "type" : "VEC4"
        },
        {
            "bufferView" : 18,
            "componentType" : 5126,
            "count" : 1330,
            "type" : "VEC2"
        },
        {
            "bufferView" : 19,
            "componentType" : 5123,
            "count" : 1590,
            "type" : "SCALAR"
        },
        {
            "bufferView" : 20,
            "componentType" : 5126,
            "count" : 816,
            "max" : [
                0.325625479221344,
                0.47636017203330994,
                0.2804887592792511
            ],
            "min" : [
                -0.3168882131576538,
                -0.08426973223686218,
                -0.27353599667549133
            ],
            "type" : "VEC3"
        },
        {
            "bufferView" : 21,
            "componentType" : 5126,
            "count" : 816,
            "type" : "VEC3"
        },
        {
            "bufferView" : 22,
            "componentType" : 5126,
            "count" : 816,
            "type" : "VEC4"
        },
        {
            "bufferView" : 23,
            "componentType" : 5126,
            "count" : 816,
            "type" : "VEC2"
        },
        {
            "bufferView" : 24,
            "componentType" : 5123,
            "count" : 1242,
            "type" : "SCALAR"
        },
        {
            "bufferView" : 25,
            "componentType" : 5126,
            "count" : 1203,
            "max" : [
                0.39498814940452576,
                0.5039143562316895,
                0.3631875514984131
            ],
            "min" : [
                -0.2833104133605957,
                -0.08594084531068802,
                -0.3217388689517975
            ],
            "type" : "VEC3"
        },
        {
            "bufferView" : 26,
            "componentType" : 5126,
            "count" : 1203,
            "type" : "VEC3"
        },
        {
            "bufferView" : 27,
            "componentType" : 5126,
            "count" : 1203,
            "type" : "VEC4"
        },
        {
            "bufferView" : 28,
            "componentType" : 5126,
            "count" : 1203,
            "type" : "VEC2"
        },
        {
            "bufferView" : 29,
            "componentType" : 5123,
            "count" : 1371,
            "type" : "SCALAR"
        },
        {
            "bufferView" : 30,
            "componentType" : 5126,
            "count" : 618,
            "max" : [
                0.325625479221344,
                0.47688883543014526,
                0.28088119626045227
            ],
            "min" : [
                -0.3146088719367981,
                -0.08656809478998184,
                -0.27620887756347656
            ],
            "type" : "VEC3"
        },
        {
            "bufferView" : 31,
            "componentType" : 5126,
            "count" : 618,
            "type" : "VEC3"
        },
        {
            "bufferView" : 32,
            "componentType" : 5126,
            "count" : 618,
            "type" : "VEC4"
        },
        {
            "bufferView" : 33,
            "componentType" : 5126,
            "count" : 618,
            "type" : "VEC2"
        },
        {
            "bufferView" : 34,
            "componentType" : 5123,
            "count" : 855,
            "type" : "SCALAR"
        },
        {
            "bufferView" : 35,
            "componentType" : 5126,
            "count" : 810,
            "max" : [
                0.3942640721797943,
                0.5041185021400452,
                0.3654439449310303
            ],
            "min" : [
                -0.28679460287094116,
                -0.08594278246164322,
                -0.321734219789505
            ],
            "type" : "VEC3"
        },
        {
            "bufferView" : 36,
            "componentType" : 5126,
            "count" : 810,
            "type" : "VEC3"
        },
        {
            "bufferView" : 37,
            "componentType" : 5126,
            "count" : 810,
            "type" : "VEC4"
        },
        {
            "bufferView" : 38,
            "componentType" : 5126,
            "count" : 810,
            "type" : "VEC2"
        },
        {
            "bufferView" : 39,
            "componentType" : 5123,
            "count" : 888,
            "type" : "SCALAR"
        }
    ],
    "bufferViews" : [
        {
            "buffer" : 0,
            "byteLength" : 16284,
            "byteOffset" : 0,
            "target" : 34962
        },
        {
            "buffer" : 0,
            "byteLength" : 16284,
            "byteOffset" : 16284,
            "target" : 34962
        },
        {
            "buffer" : 0,
            "byteLength" : 21712,
            "byteOffset" : 32568,
            "target" : 34962
        },
        {
            "buffer" : 0,
            "byteLength" : 10856,
            "byteOffset" : 54280,
            "target" : 34962
        },
        {
            "buffer" : 0,
            "byteLength" : 5382,
            "byteOffset" : 65136,
            "target" : 34963
        },
        {
            "buffer" : 0,
            "byteLength" : 16584,
            "byteOffset" : 70520,
            "target" : 34962
        },
        {
            "buffer" : 0,
            "byteLength" : 16584,
            "byteOffset" : 87104,
            "target" : 34962
        },
        {
            "buffer" : 0,
            "byteLength" : 22112,
            "byteOffset" : 103688,
            "target" : 34962
        },
        {
            "buffer" : 0,
            "byteLength" : 11056,
            "byteOffset" : 125800,
            "target" : 34962
        },
        {
            "buffer" : 0,
            "byteLength" : 3336,
            "byteOffset" : 136856,
            "target" : 34963
        },
        {
            "buffer" : 0,
            "byteLength" : 12972,
            "byteOffset" : 140192,
            "target" : 34962
        },
        {
            "buffer" : 0,
            "byteLength" : 12972,
            "byteOffset" : 153164,
            "target" : 34962
        },
        {
            "buffer" : 0,
            "byteLength" : 17296,
            "byteOffset" : 166136,
            "target" : 34962
        },
        {
            "buffer" : 0,
            "byteLength" : 8648,
            "byteOffset" : 183432,
            "target" : 34962
        },
        {
            "buffer" : 0,
            "byteLength" : 3792,
            "byteOffset" : 192080,
            "target" : 34963
        },
        {
            "buffer" : 0,
            "byteLength" : 15960,
            "byteOffset" : 195872,
            "target" : 34962
        },
        {
            "buffer" : 0,
            "byteLength" : 15960,
            "byteOffset" : 211832,
            "target" : 34962
        },
        {
            "buffer" : 0,
            "byteLength" : 21280,
            "byteOffset" : 227792,
            "target" : 34962
        },
        {
            "buffer" : 0,
            "byteLength" : 10640,
            "byteOffset" : 249072,
            "target" : 34962
        },
        {
            "buffer" : 0,
            "byteLength" : 3180,
            "byteOffset" : 259712,
            "target" : 34963
        },
        {
            "buffer" : 0,
            "byteLength" : 9792,
            "byteOffset" : 262892,
            "target" : 34962
        },
        {
            "buffer" : 0,
            "byteLength" : 9792,
            "byteOffset" : 272684,
            "target" : 34962
        },
        {
            "buffer" : 0,
            "byteLength" : 13056,
            "byteOffset" : 282476,
            "target" : 34962
        },
        {
            "buffer" : 0,
            "byteLength" : 6528,
            "byteOffset" : 295532,
            "target" : 34962
        },
        {
            "buffer" : 0,
            "byteLength" : 2484,
            "byteOffset" : 302060,
            "target" : 34963
        },
        {
            "buffer" : 0,
            "byteLength" : 14436,
            "byteOffset" : 304544,
            "target" : 34962
        },
        {
            "buffer" : 0,
            "byteLength" : 14436,
            "byteOffset" : 318980,
            "target" : 34962
        },
        {
            "buffer" : 0,
            "byteLength" : 19248,
            "byteOffset" : 333416,
            "target" : 34962
        },
        {
            "buffer" : 0,
            "byteLength" : 9624,
            "byteOffset" : 352664,
            "target" : 34962
        },
        {
            "buffer" : 0,
            "byteLength" : 2742,
            "byteOffset" : 362288,
            "target" : 34963
        },
        {
            "buffer" : 0,
            "byteLength" : 7416,
            "byteOffset" : 365032,
            "target" : 34962
        },
        {
            "buffer" : 0,
            "byteLength" : 7416,
            "byteOffset" : 372448,
            "target" : 34962
        },
        {
            "buffer" : 0,
            "byteLength" : 9888,
            "byteOffset" : 379864,
            "target" : 34962
        },
        {
            "buffer" : 0,
            "byteLength" : 4944,
            "byteOffset" : 389752,
            "target" : 34962
        },
        {
            "buffer" : 0,
            "byteLength" : 1710,
            "byteOffset" : 394696,
            "target" : 34963
        },
        {
            "buffer" : 0,
            "byteLength" : 9720,
            "byteOffset" : 396408,
            "target" : 34962
        },
        {
            "buffer" : 0,
            "byteLength" : 9720,
            "byteOffset" : 406128,
            "target" : 34962
        },
        {
            "buffer" : 0,
            "byteLength" : 12960,
            "byteOffset" : 415848,
            "target" : 34962
        },
        {
            "buffer" : 0,
            "byteLength" : 6480,
            "byteOffset" : 428808,
            "target" : 34962
        },
        {
            "buffer" : 0,
            "byteLength" : 1776,
            "byteOffset" : 435288,
            "target" : 34963
        }
    ],
    "samplers" : [
        {
            "magFilter" : 9729,
            "minFilter" : 9987
        }
    ],
    "buffers" : [
        {
            "byteLength" : 437064,
            "uri" : "olive_tree.bin"
        }
    ]
}
