{
    "asset" : {
        "generator" : "Khronos glTF Blender I/O v3.3.27",
        "version" : "2.0"
    },
    "scene" : 0,
    "scenes" : [
        {
            "name" : "Scene",
            "nodes" : [
                0
            ]
        }
    ],
    "nodes" : [
        {
            "mesh" : 0,
            "name" : "_lod0",
            "rotation" : [
                0,
                0.02661227248609066,
                0,
                0.9996458292007446
            ],
            "translation" : [
                0.20558318495750427,
                0.6103136539459229,
                -0.23346759378910065
            ]
        }
    ],
    "materials" : [
        {
            "alphaCutoff" : 0.5,
            "alphaMode" : "MASK",
            "doubleSided" : true,
            "name" : "building",
            "pbrMetallicRoughness" : {}
        }
    ],
    "meshes" : [
        {
            "name" : "Mesh_0.009",
            "primitives" : [
                {
                    "attributes" : {
                        "POSITION" : 0,
                        "NORMAL" : 1,
                        "TANGENT" : 2,
                        "TEXCOORD_0" : 3
                    },
                    "indices" : 4,
                    "material" : 0
                }
            ]
        }
    ],
    "accessors" : [
        {
            "bufferView" : 0,
            "componentType" : 5126,
            "count" : 2535,
            "max" : [
                1.3984179496765137,
                1.4521863460540771,
                1.590976595878601
            ],
            "min" : [
                -1.9870375394821167,
                -0.6379302740097046,
                -1.0787168741226196
            ],
            "type" : "VEC3"
        },
        {
            "bufferView" : 1,
            "componentType" : 5126,
            "count" : 2535,
            "type" : "VEC3"
        },
        {
            "bufferView" : 2,
            "componentType" : 5126,
            "count" : 2535,
            "type" : "VEC4"
        },
        {
            "bufferView" : 3,
            "componentType" : 5126,
            "count" : 2535,
            "type" : "VEC2"
        },
        {
            "bufferView" : 4,
            "componentType" : 5123,
            "count" : 6282,
            "type" : "SCALAR"
        }
    ],
    "bufferViews" : [
        {
            "buffer" : 0,
            "byteLength" : 30420,
            "byteOffset" : 0,
            "target" : 34962
        },
        {
            "buffer" : 0,
            "byteLength" : 30420,
            "byteOffset" : 30420,
            "target" : 34962
        },
        {
            "buffer" : 0,
            "byteLength" : 40560,
            "byteOffset" : 60840,
            "target" : 34962
        },
        {
            "buffer" : 0,
            "byteLength" : 20280,
            "byteOffset" : 101400,
            "target" : 34962
        },
        {
            "buffer" : 0,
            "byteLength" : 12564,
            "byteOffset" : 121680,
            "target" : 34963
        }
    ],
    "buffers" : [
        {
            "byteLength" : 134244,
            "uri" : "kitchen.bin"
        }
    ]
}
