{
    "asset" : {
        "generator" : "Khronos glTF Blender I/O v1.6.16",
        "version" : "2.0"
    },
    "scene" : 0,
    "scenes" : [
        {
            "name" : "Scene",
            "nodes" : [
                0,
                1,
                2,
                3,
                4,
                5,
                6,
                7,
                8,
                9
            ]
        }
    ],
    "nodes" : [
        {
            "mesh" : 0,
            "name" : "prop_timber",
            "rotation" : [
                0,
                -0.7521048784255981,
                0,
                0.6590434312820435
            ],
            "translation" : [
                -0.9673824310302734,
                0,
                0.665409505367279
            ]
        },
        {
            "mesh" : 1,
            "name" : "prop_boxes_1",
            "rotation" : [
                0,
                -0.022575318813323975,
                0,
                0.9997451901435852
            ],
            "translation" : [
                1.6564149856567383,
                0.03500213846564293,
                0.9455358386039734
            ]
        },
        {
            "mesh" : 2,
            "name" : "prop_na_boxes_1",
            "rotation" : [
                0,
                0.7563773393630981,
                0,
                -0.6541355848312378
            ],
            "translation" : [
                -0.41411450505256653,
                0.06762942671775818,
                -1.3592814207077026
            ]
        },
        {
            "mesh" : 3,
            "name" : "prop_na_boxes_2",
            "translation" : [
                1.2608883380889893,
                0.06359124183654785,
                0.8184065818786621
            ]
        },
        {
            "mesh" : 4,
            "name" : "prop_na_boxes_3",
            "rotation" : [
                0,
                -0.5276558995246887,
                0,
                0.8494583368301392
            ],
            "translation" : [
                1.373835563659668,
                0.0655011236667633,
                -0.3165203928947449
            ]
        },
        {
            "mesh" : 5,
            "name" : "prop_box_iron_0",
            "rotation" : [
                0,
                -0.08066417276859283,
                0,
                0.9967413544654846
            ],
            "translation" : [
                -0.7630394101142883,
                0.06682177633047104,
                -0.13624784350395203
            ]
        },
        {
            "mesh" : 6,
            "name" : "prop_box_iron_1",
            "rotation" : [
                0,
                -0.08066417276859283,
                0,
                0.9967413544654846
            ],
            "translation" : [
                -0.5911812782287598,
                0.06682177633047104,
                -0.0839405506849289
            ]
        },
        {
            "mesh" : 7,
            "name" : "prop_box_iron_2",
            "rotation" : [
                0,
                -0.08066417276859283,
                0,
                0.9967413544654846
            ],
            "translation" : [
                -0.6858252286911011,
                0.06682177633047104,
                -1.4655908346176147
            ]
        },
        {
            "mesh" : 8,
            "name" : "prop_box_iron_3",
            "rotation" : [
                0,
                -0.08066417276859283,
                0,
                0.9967413544654846
            ],
            "translation" : [
                -0.844947338104248,
                0.06682177633047104,
                -1.4888962507247925
            ]
        },
        {
            "mesh" : 9,
            "name" : "prop_box_iron_4",
            "rotation" : [
                0,
                0.6423020958900452,
                0,
                0.7664515972137451
            ],
            "translation" : [
                -0.7434515953063965,
                0.06682177633047104,
                -1.2518224716186523
            ]
        }
    ],
    "materials" : [
        {
            "name" : "Material_0.005",
            "pbrMetallicRoughness" : {}
        },
        {
            "name" : "Material_0.002",
            "pbrMetallicRoughness" : {}
        },
        {
            "name" : "Material_0.003",
            "pbrMetallicRoughness" : {}
        }
    ],
    "meshes" : [
        {
            "name" : "data\\graphics\\props\\storage\\wood_plank_02.prp",
            "primitives" : [
                {
                    "attributes" : {
                        "POSITION" : 0,
                        "NORMAL" : 1,
                        "TANGENT" : 2,
                        "TEXCOORD_0" : 3
                    },
                    "indices" : 4,
                    "material" : 0
                }
            ]
        },
        {
            "name" : "data\\graphics\\props\\storage\\wooden_box_pile_small_03.prp.001",
            "primitives" : [
                {
                    "attributes" : {
                        "POSITION" : 5,
                        "NORMAL" : 6,
                        "TANGENT" : 7,
                        "TEXCOORD_0" : 8
                    },
                    "indices" : 9
                }
            ]
        },
        {
            "name" : "data\\graphics\\props\\storage\\wooden_box_pile_small_04.prp",
            "primitives" : [
                {
                    "attributes" : {
                        "POSITION" : 10,
                        "NORMAL" : 11,
                        "TANGENT" : 12,
                        "TEXCOORD_0" : 13
                    },
                    "indices" : 14
                }
            ]
        },
        {
            "name" : "data\\graphics\\props\\storage\\wooden_box_pile_small_03.prp",
            "primitives" : [
                {
                    "attributes" : {
                        "POSITION" : 15,
                        "NORMAL" : 16,
                        "TANGENT" : 17,
                        "TEXCOORD_0" : 18
                    },
                    "indices" : 9
                }
            ]
        },
        {
            "name" : "data\\graphics\\props\\storage\\wooden_box_pile_small_01.prp",
            "primitives" : [
                {
                    "attributes" : {
                        "POSITION" : 19,
                        "NORMAL" : 20,
                        "TANGENT" : 21,
                        "TEXCOORD_0" : 22
                    },
                    "indices" : 23
                }
            ]
        },
        {
            "name" : "data\\graphics\\props\\storage\\wooden_box_iron_bar_01.prp",
            "primitives" : [
                {
                    "attributes" : {
                        "POSITION" : 24,
                        "NORMAL" : 25,
                        "TANGENT" : 26,
                        "TEXCOORD_0" : 27
                    },
                    "indices" : 28,
                    "material" : 1
                }
            ]
        },
        {
            "name" : "data\\graphics\\props\\storage\\wooden_box_iron_bar_02.prp",
            "primitives" : [
                {
                    "attributes" : {
                        "POSITION" : 29,
                        "NORMAL" : 30,
                        "TANGENT" : 31,
                        "TEXCOORD_0" : 32
                    },
                    "indices" : 33,
                    "material" : 2
                }
            ]
        },
        {
            "name" : "data\\graphics\\props\\storage\\wooden_box_iron_bar_02.prp.001",
            "primitives" : [
                {
                    "attributes" : {
                        "POSITION" : 34,
                        "NORMAL" : 35,
                        "TANGENT" : 36,
                        "TEXCOORD_0" : 37
                    },
                    "indices" : 33,
                    "material" : 2
                }
            ]
        },
        {
            "name" : "data\\graphics\\props\\storage\\wooden_box_iron_bar_01.prp.002",
            "primitives" : [
                {
                    "attributes" : {
                        "POSITION" : 38,
                        "NORMAL" : 39,
                        "TANGENT" : 40,
                        "TEXCOORD_0" : 41
                    },
                    "indices" : 28,
                    "material" : 1
                }
            ]
        },
        {
            "name" : "data\\graphics\\props\\storage\\wooden_box_iron_bar_01.prp.001",
            "primitives" : [
                {
                    "attributes" : {
                        "POSITION" : 42,
                        "NORMAL" : 43,
                        "TANGENT" : 44,
                        "TEXCOORD_0" : 45
                    },
                    "indices" : 28,
                    "material" : 1
                }
            ]
        }
    ],
    "accessors" : [
        {
            "bufferView" : 0,
            "componentType" : 5126,
            "count" : 260,
            "max" : [
                0.65771484375,
                0.479248046875,
                0.2427978515625
            ],
            "min" : [
                -0.6591796875,
                -0.0016527175903320312,
                -0.2423095703125
            ],
            "type" : "VEC3"
        },
        {
            "bufferView" : 1,
            "componentType" : 5126,
            "count" : 260,
            "type" : "VEC3"
        },
        {
            "bufferView" : 2,
            "componentType" : 5126,
            "count" : 260,
            "type" : "VEC4"
        },
        {
            "bufferView" : 3,
            "componentType" : 5126,
            "count" : 260,
            "type" : "VEC2"
        },
        {
            "bufferView" : 4,
            "componentType" : 5123,
            "count" : 390,
            "type" : "SCALAR"
        },
        {
            "bufferView" : 5,
            "componentType" : 5126,
            "count" : 240,
            "max" : [
                0.181640625,
                0.2132568359375,
                0.2227783203125
            ],
            "min" : [
                -0.157470703125,
                -0.003147125244140625,
                -0.227783203125
            ],
            "type" : "VEC3"
        },
        {
            "bufferView" : 6,
            "componentType" : 5126,
            "count" : 240,
            "type" : "VEC3"
        },
        {
            "bufferView" : 7,
            "componentType" : 5126,
            "count" : 240,
            "type" : "VEC4"
        },
        {
            "bufferView" : 8,
            "componentType" : 5126,
            "count" : 240,
            "type" : "VEC2"
        },
        {
            "bufferView" : 9,
            "componentType" : 5123,
            "count" : 360,
            "type" : "SCALAR"
        },
        {
            "bufferView" : 10,
            "componentType" : 5126,
            "count" : 180,
            "max" : [
                0.287353515625,
                0.4306640625,
                0.14208984375
            ],
            "min" : [
                -0.1495361328125,
                -0.0047607421875,
                -0.106689453125
            ],
            "type" : "VEC3"
        },
        {
            "bufferView" : 11,
            "componentType" : 5126,
            "count" : 180,
            "type" : "VEC3"
        },
        {
            "bufferView" : 12,
            "componentType" : 5126,
            "count" : 180,
            "type" : "VEC4"
        },
        {
            "bufferView" : 13,
            "componentType" : 5126,
            "count" : 180,
            "type" : "VEC2"
        },
        {
            "bufferView" : 14,
            "componentType" : 5123,
            "count" : 270,
            "type" : "SCALAR"
        },
        {
            "bufferView" : 15,
            "componentType" : 5126,
            "count" : 240,
            "max" : [
                0.181640625,
                0.2132568359375,
                0.2227783203125
            ],
            "min" : [
                -0.157470703125,
                -0.003147125244140625,
                -0.227783203125
            ],
            "type" : "VEC3"
        },
        {
            "bufferView" : 16,
            "componentType" : 5126,
            "count" : 240,
            "type" : "VEC3"
        },
        {
            "bufferView" : 17,
            "componentType" : 5126,
            "count" : 240,
            "type" : "VEC4"
        },
        {
            "bufferView" : 18,
            "componentType" : 5126,
            "count" : 240,
            "type" : "VEC2"
        },
        {
            "bufferView" : 19,
            "componentType" : 5126,
            "count" : 100,
            "max" : [
                0.1697998046875,
                0.28125,
                0.1436767578125
            ],
            "min" : [
                -0.1971435546875,
                -0.0004839897155761719,
                -0.2122802734375
            ],
            "type" : "VEC3"
        },
        {
            "bufferView" : 20,
            "componentType" : 5126,
            "count" : 100,
            "type" : "VEC3"
        },
        {
            "bufferView" : 21,
            "componentType" : 5126,
            "count" : 100,
            "type" : "VEC4"
        },
        {
            "bufferView" : 22,
            "componentType" : 5126,
            "count" : 100,
            "type" : "VEC2"
        },
        {
            "bufferView" : 23,
            "componentType" : 5123,
            "count" : 150,
            "type" : "SCALAR"
        },
        {
            "bufferView" : 24,
            "componentType" : 5126,
            "count" : 252,
            "max" : [
                0.06085205078125,
                0.1053466796875,
                0.11541748046875
            ],
            "min" : [
                -0.06085205078125,
                -0.0004839897155761719,
                -0.11541748046875
            ],
            "type" : "VEC3"
        },
        {
            "bufferView" : 25,
            "componentType" : 5126,
            "count" : 252,
            "type" : "VEC3"
        },
        {
            "bufferView" : 26,
            "componentType" : 5126,
            "count" : 252,
            "type" : "VEC4"
        },
        {
            "bufferView" : 27,
            "componentType" : 5126,
            "count" : 252,
            "type" : "VEC2"
        },
        {
            "bufferView" : 28,
            "componentType" : 5123,
            "count" : 462,
            "type" : "SCALAR"
        },
        {
            "bufferView" : 29,
            "componentType" : 5126,
            "count" : 104,
            "max" : [
                0.06085205078125,
                0.107177734375,
                0.11541748046875
            ],
            "min" : [
                -0.06085205078125,
                0.0018301010131835938,
                -0.11541748046875
            ],
            "type" : "VEC3"
        },
        {
            "bufferView" : 30,
            "componentType" : 5126,
            "count" : 104,
            "type" : "VEC3"
        },
        {
            "bufferView" : 31,
            "componentType" : 5126,
            "count" : 104,
            "type" : "VEC4"
        },
        {
            "bufferView" : 32,
            "componentType" : 5126,
            "count" : 104,
            "type" : "VEC2"
        },
        {
            "bufferView" : 33,
            "componentType" : 5123,
            "count" : 168,
            "type" : "SCALAR"
        },
        {
            "bufferView" : 34,
            "componentType" : 5126,
            "count" : 104,
            "max" : [
                0.06085205078125,
                0.107177734375,
                0.11541748046875
            ],
            "min" : [
                -0.06085205078125,
                0.0018301010131835938,
                -0.11541748046875
            ],
            "type" : "VEC3"
        },
        {
            "bufferView" : 35,
            "componentType" : 5126,
            "count" : 104,
            "type" : "VEC3"
        },
        {
            "bufferView" : 36,
            "componentType" : 5126,
            "count" : 104,
            "type" : "VEC4"
        },
        {
            "bufferView" : 37,
            "componentType" : 5126,
            "count" : 104,
            "type" : "VEC2"
        },
        {
            "bufferView" : 38,
            "componentType" : 5126,
            "count" : 252,
            "max" : [
                0.06085205078125,
                0.1053466796875,
                0.11541748046875
            ],
            "min" : [
                -0.06085205078125,
                -0.0004839897155761719,
                -0.11541748046875
            ],
            "type" : "VEC3"
        },
        {
            "bufferView" : 39,
            "componentType" : 5126,
            "count" : 252,
            "type" : "VEC3"
        },
        {
            "bufferView" : 40,
            "componentType" : 5126,
            "count" : 252,
            "type" : "VEC4"
        },
        {
            "bufferView" : 41,
            "componentType" : 5126,
            "count" : 252,
            "type" : "VEC2"
        },
        {
            "bufferView" : 42,
            "componentType" : 5126,
            "count" : 252,
            "max" : [
                0.06085205078125,
                0.1053466796875,
                0.11541748046875
            ],
            "min" : [
                -0.06085205078125,
                -0.0004839897155761719,
                -0.11541748046875
            ],
            "type" : "VEC3"
        },
        {
            "bufferView" : 43,
            "componentType" : 5126,
            "count" : 252,
            "type" : "VEC3"
        },
        {
            "bufferView" : 44,
            "componentType" : 5126,
            "count" : 252,
            "type" : "VEC4"
        },
        {
            "bufferView" : 45,
            "componentType" : 5126,
            "count" : 252,
            "type" : "VEC2"
        }
    ],
    "bufferViews" : [
        {
            "buffer" : 0,
            "byteLength" : 3120,
            "byteOffset" : 0
        },
        {
            "buffer" : 0,
            "byteLength" : 3120,
            "byteOffset" : 3120
        },
        {
            "buffer" : 0,
            "byteLength" : 4160,
            "byteOffset" : 6240
        },
        {
            "buffer" : 0,
            "byteLength" : 2080,
            "byteOffset" : 10400
        },
        {
            "buffer" : 0,
            "byteLength" : 780,
            "byteOffset" : 12480
        },
        {
            "buffer" : 0,
            "byteLength" : 2880,
            "byteOffset" : 13260
        },
        {
            "buffer" : 0,
            "byteLength" : 2880,
            "byteOffset" : 16140
        },
        {
            "buffer" : 0,
            "byteLength" : 3840,
            "byteOffset" : 19020
        },
        {
            "buffer" : 0,
            "byteLength" : 1920,
            "byteOffset" : 22860
        },
        {
            "buffer" : 0,
            "byteLength" : 720,
            "byteOffset" : 24780
        },
        {
            "buffer" : 0,
            "byteLength" : 2160,
            "byteOffset" : 25500
        },
        {
            "buffer" : 0,
            "byteLength" : 2160,
            "byteOffset" : 27660
        },
        {
            "buffer" : 0,
            "byteLength" : 2880,
            "byteOffset" : 29820
        },
        {
            "buffer" : 0,
            "byteLength" : 1440,
            "byteOffset" : 32700
        },
        {
            "buffer" : 0,
            "byteLength" : 540,
            "byteOffset" : 34140
        },
        {
            "buffer" : 0,
            "byteLength" : 2880,
            "byteOffset" : 34680
        },
        {
            "buffer" : 0,
            "byteLength" : 2880,
            "byteOffset" : 37560
        },
        {
            "buffer" : 0,
            "byteLength" : 3840,
            "byteOffset" : 40440
        },
        {
            "buffer" : 0,
            "byteLength" : 1920,
            "byteOffset" : 44280
        },
        {
            "buffer" : 0,
            "byteLength" : 1200,
            "byteOffset" : 46200
        },
        {
            "buffer" : 0,
            "byteLength" : 1200,
            "byteOffset" : 47400
        },
        {
            "buffer" : 0,
            "byteLength" : 1600,
            "byteOffset" : 48600
        },
        {
            "buffer" : 0,
            "byteLength" : 800,
            "byteOffset" : 50200
        },
        {
            "buffer" : 0,
            "byteLength" : 300,
            "byteOffset" : 51000
        },
        {
            "buffer" : 0,
            "byteLength" : 3024,
            "byteOffset" : 51300
        },
        {
            "buffer" : 0,
            "byteLength" : 3024,
            "byteOffset" : 54324
        },
        {
            "buffer" : 0,
            "byteLength" : 4032,
            "byteOffset" : 57348
        },
        {
            "buffer" : 0,
            "byteLength" : 2016,
            "byteOffset" : 61380
        },
        {
            "buffer" : 0,
            "byteLength" : 924,
            "byteOffset" : 63396
        },
        {
            "buffer" : 0,
            "byteLength" : 1248,
            "byteOffset" : 64320
        },
        {
            "buffer" : 0,
            "byteLength" : 1248,
            "byteOffset" : 65568
        },
        {
            "buffer" : 0,
            "byteLength" : 1664,
            "byteOffset" : 66816
        },
        {
            "buffer" : 0,
            "byteLength" : 832,
            "byteOffset" : 68480
        },
        {
            "buffer" : 0,
            "byteLength" : 336,
            "byteOffset" : 69312
        },
        {
            "buffer" : 0,
            "byteLength" : 1248,
            "byteOffset" : 69648
        },
        {
            "buffer" : 0,
            "byteLength" : 1248,
            "byteOffset" : 70896
        },
        {
            "buffer" : 0,
            "byteLength" : 1664,
            "byteOffset" : 72144
        },
        {
            "buffer" : 0,
            "byteLength" : 832,
            "byteOffset" : 73808
        },
        {
            "buffer" : 0,
            "byteLength" : 3024,
            "byteOffset" : 74640
        },
        {
            "buffer" : 0,
            "byteLength" : 3024,
            "byteOffset" : 77664
        },
        {
            "buffer" : 0,
            "byteLength" : 4032,
            "byteOffset" : 80688
        },
        {
            "buffer" : 0,
            "byteLength" : 2016,
            "byteOffset" : 84720
        },
        {
            "buffer" : 0,
            "byteLength" : 3024,
            "byteOffset" : 86736
        },
        {
            "buffer" : 0,
            "byteLength" : 3024,
            "byteOffset" : 89760
        },
        {
            "buffer" : 0,
            "byteLength" : 4032,
            "byteOffset" : 92784
        },
        {
            "buffer" : 0,
            "byteLength" : 2016,
            "byteOffset" : 96816
        }
    ],
    "buffers" : [
        {
            "byteLength" : 98832,
            "uri" : "worker_multifactory_tools.bin"
        }
    ]
}
