{
    "asset" : {
        "generator" : "Khronos glTF Blender I/O v1.6.16",
        "version" : "2.0"
    },
    "scene" : 0,
    "scenes" : [
        {
            "name" : "Scene",
            "nodes" : [
                0
            ]
        }
    ],
    "nodes" : [
        {
            "mesh" : 0,
            "name" : "_lod0",
            "rotation" : [
                0,
                1,
                0,
                -4.371138828673793e-08
            ],
            "scale" : [
                0.9210348129272461,
                0.8967611789703369,
                0.9210348129272461
            ],
            "translation" : [
                -1.221333622932434,
                0.07221335172653198,
                0.20138700306415558
            ]
        }
    ],
    "materials" : [
        {
            "name" : "mat_toroko",
            "pbrMetallicRoughness" : {
                "baseColorTexture" : {
                    "index" : 0
                }
            }
        },
        {
            "name" : "mat_mall",
            "pbrMetallicRoughness" : {
                "baseColorTexture" : {
                    "index" : 1
                }
            }
        }
    ],
    "meshes" : [
        {
            "name" : "Mesh_0.142",
            "primitives" : [
                {
                    "attributes" : {
                        "POSITION" : 0,
                        "NORMAL" : 1,
                        "TEXCOORD_0" : 2
                    },
                    "indices" : 3,
                    "material" : 0
                },
                {
                    "attributes" : {
                        "POSITION" : 4,
                        "NORMAL" : 5,
                        "TEXCOORD_0" : 6
                    },
                    "indices" : 7,
                    "material" : 1
                }
            ]
        }
    ],
    "textures" : [
        {
            "sampler" : 0,
            "source" : 0
        },
        {
            "sampler" : 0,
            "source" : 1
        }
    ],
    "images" : [
        {
            "mimeType" : "image/png",
            "name" : "residence_torokoiro_diff",
            "uri" : "residence_torokoiro_diff.png"
        },
        {
            "mimeType" : "image/png",
            "name" : "mall_diff_02_0",
            "uri" : "mall_diff_02_0.png"
        }
    ],
    "accessors" : [
        {
            "bufferView" : 0,
            "componentType" : 5126,
            "count" : 4099,
            "max" : [
                0.29824626445770264,
                2.3158645629882812,
                1.848907470703125
            ],
            "min" : [
                -2.4080324172973633,
                -0.6907764673233032,
                -0.8597210049629211
            ],
            "type" : "VEC3"
        },
        {
            "bufferView" : 1,
            "componentType" : 5126,
            "count" : 4099,
            "type" : "VEC3"
        },
        {
            "bufferView" : 2,
            "componentType" : 5126,
            "count" : 4099,
            "type" : "VEC2"
        },
        {
            "bufferView" : 3,
            "componentType" : 5123,
            "count" : 6522,
            "type" : "SCALAR"
        },
        {
            "bufferView" : 4,
            "componentType" : 5126,
            "count" : 404,
            "max" : [
                -0.017142415046691895,
                1.610576868057251,
                1.4935874938964844
            ],
            "min" : [
                -2.3513314723968506,
                0.5339484810829163,
                -0.8009756207466125
            ],
            "type" : "VEC3"
        },
        {
            "bufferView" : 5,
            "componentType" : 5126,
            "count" : 404,
            "type" : "VEC3"
        },
        {
            "bufferView" : 6,
            "componentType" : 5126,
            "count" : 404,
            "type" : "VEC2"
        },
        {
            "bufferView" : 7,
            "componentType" : 5123,
            "count" : 690,
            "type" : "SCALAR"
        }
    ],
    "bufferViews" : [
        {
            "buffer" : 0,
            "byteLength" : 49188,
            "byteOffset" : 0
        },
        {
            "buffer" : 0,
            "byteLength" : 49188,
            "byteOffset" : 49188
        },
        {
            "buffer" : 0,
            "byteLength" : 32792,
            "byteOffset" : 98376
        },
        {
            "buffer" : 0,
            "byteLength" : 13044,
            "byteOffset" : 131168
        },
        {
            "buffer" : 0,
            "byteLength" : 4848,
            "byteOffset" : 144212
        },
        {
            "buffer" : 0,
            "byteLength" : 4848,
            "byteOffset" : 149060
        },
        {
            "buffer" : 0,
            "byteLength" : 3232,
            "byteOffset" : 153908
        },
        {
            "buffer" : 0,
            "byteLength" : 1380,
            "byteOffset" : 157140
        }
    ],
    "samplers" : [
        {
            "magFilter" : 9729,
            "minFilter" : 9987
        }
    ],
    "buffers" : [
        {
            "byteLength" : 158520,
            "uri" : "tier2_city_corner2.bin"
        }
    ]
}
