{
    "asset" : {
        "generator" : "Khronos glTF Blender I/O v1.6.16",
        "version" : "2.0"
    },
    "scene" : 0,
    "scenes" : [
        {
            "name" : "Scene",
            "nodes" : [
                0
            ]
        }
    ],
    "nodes" : [
        {
            "mesh" : 0,
            "name" : "ground-wall.001",
            "scale" : [
                0.9210348129272461,
                0.8967611789703369,
                0.9210348129272461
            ],
            "translation" : [
                0.9010829925537109,
                0.07221335172653198,
                -0.7652959823608398
            ]
        }
    ],
    "materials" : [
        {
            "name" : "mat_toroko",
            "pbrMetallicRoughness" : {
                "baseColorTexture" : {
                    "index" : 0
                }
            }
        }
    ],
    "meshes" : [
        {
            "name" : "Mesh_0.256",
            "primitives" : [
                {
                    "attributes" : {
                        "POSITION" : 0,
                        "NORMAL" : 1,
                        "TEXCOORD_0" : 2
                    },
                    "indices" : 3,
                    "material" : 0
                }
            ]
        }
    ],
    "textures" : [
        {
            "sampler" : 0,
            "source" : 0
        }
    ],
    "images" : [
        {
            "mimeType" : "image/png",
            "name" : "residence_torokoiro_diff",
            "uri" : "residence_torokoiro_diff.png"
        }
    ],
    "accessors" : [
        {
            "bufferView" : 0,
            "componentType" : 5126,
            "count" : 5206,
            "max" : [
                0.2579362392425537,
                2.232849359512329,
                2.0600485801696777
            ],
            "min" : [
                -2.621211528778076,
                -0.6907764673233032,
                -0.8127023577690125
            ],
            "type" : "VEC3"
        },
        {
            "bufferView" : 1,
            "componentType" : 5126,
            "count" : 5206,
            "type" : "VEC3"
        },
        {
            "bufferView" : 2,
            "componentType" : 5126,
            "count" : 5206,
            "type" : "VEC2"
        },
        {
            "bufferView" : 3,
            "componentType" : 5123,
            "count" : 8352,
            "type" : "SCALAR"
        }
    ],
    "bufferViews" : [
        {
            "buffer" : 0,
            "byteLength" : 62472,
            "byteOffset" : 0
        },
        {
            "buffer" : 0,
            "byteLength" : 62472,
            "byteOffset" : 62472
        },
        {
            "buffer" : 0,
            "byteLength" : 41648,
            "byteOffset" : 124944
        },
        {
            "buffer" : 0,
            "byteLength" : 16704,
            "byteOffset" : 166592
        }
    ],
    "samplers" : [
        {
            "magFilter" : 9729,
            "minFilter" : 9987
        }
    ],
    "buffers" : [
        {
            "byteLength" : 183296,
            "uri" : "tier2_city_corner.bin"
        }
    ]
}
