{
    "asset" : {
        "generator" : "Khronos glTF Blender I/O v1.6.16",
        "version" : "2.0"
    },
    "scene" : 0,
    "scenes" : [
        {
            "name" : "Scene",
            "nodes" : [
                0
            ]
        }
    ],
    "nodes" : [
        {
            "mesh" : 0,
            "name" : "Mesh_0.039"
        }
    ],
    "materials" : [
        {
            "name" : "Material_0.001",
            "pbrMetallicRoughness" : {
                "baseColorTexture" : {
                    "index" : 0
                }
            }
        }
    ],
    "meshes" : [
        {
            "name" : "Mesh_0.039",
            "primitives" : [
                {
                    "attributes" : {
                        "POSITION" : 0,
                        "NORMAL" : 1,
                        "TANGENT" : 2,
                        "TEXCOORD_0" : 3
                    },
                    "indices" : 4,
                    "material" : 0
                }
            ]
        }
    ],
    "textures" : [
        {
            "sampler" : 0,
            "source" : 0
        }
    ],
    "images" : [
        {
            "mimeType" : "image/png",
            "name" : "residence_tier04_04_diff_0",
            "uri" : "residence_tier04_04_diff_0.png"
        }
    ],
    "accessors" : [
        {
            "bufferView" : 0,
            "componentType" : 5126,
            "count" : 9581,
            "max" : [
                1.158203125,
                2.5950560569763184,
                1.6240234375
            ],
            "min" : [
                -1.158203125,
                -0.314453125,
                -1.6123046875
            ],
            "type" : "VEC3"
        },
        {
            "bufferView" : 1,
            "componentType" : 5126,
            "count" : 9581,
            "type" : "VEC3"
        },
        {
            "bufferView" : 2,
            "componentType" : 5126,
            "count" : 9581,
            "type" : "VEC4"
        },
        {
            "bufferView" : 3,
            "componentType" : 5126,
            "count" : 9581,
            "type" : "VEC2"
        },
        {
            "bufferView" : 4,
            "componentType" : 5123,
            "count" : 16884,
            "type" : "SCALAR"
        }
    ],
    "bufferViews" : [
        {
            "buffer" : 0,
            "byteLength" : 114972,
            "byteOffset" : 0
        },
        {
            "buffer" : 0,
            "byteLength" : 114972,
            "byteOffset" : 114972
        },
        {
            "buffer" : 0,
            "byteLength" : 153296,
            "byteOffset" : 229944
        },
        {
            "buffer" : 0,
            "byteLength" : 76648,
            "byteOffset" : 383240
        },
        {
            "buffer" : 0,
            "byteLength" : 33768,
            "byteOffset" : 459888
        }
    ],
    "samplers" : [
        {
            "magFilter" : 9729,
            "minFilter" : 9987
        }
    ],
    "buffers" : [
        {
            "byteLength" : 493656,
            "uri" : "tier2_city2.bin"
        }
    ]
}
