{
    "asset" : {
        "generator" : "Khronos glTF Blender I/O v1.6.16",
        "version" : "2.0"
    },
    "scene" : 0,
    "scenes" : [
        {
            "name" : "Scene",
            "nodes" : [
                0
            ]
        }
    ],
    "nodes" : [
        {
            "mesh" : 0,
            "name" : "_gas_lod0",
            "translation" : [
                0.5159859657287598,
                0,
                0.26526910066604614
            ]
        }
    ],
    "materials" : [
        {
            "name" : "mat_main",
            "pbrMetallicRoughness" : {
                "baseColorTexture" : {
                    "index" : 0
                }
            }
        },
        {
            "name" : "mat_tank",
            "pbrMetallicRoughness" : {
                "baseColorTexture" : {
                    "index" : 1
                }
            }
        }
    ],
    "meshes" : [
        {
            "name" : "mesh_lod0.002",
            "primitives" : [
                {
                    "attributes" : {
                        "POSITION" : 0,
                        "NORMAL" : 1,
                        "TANGENT" : 2,
                        "TEXCOORD_0" : 3,
                        "COLOR_0" : 4
                    },
                    "indices" : 5,
                    "material" : 0
                },
                {
                    "attributes" : {
                        "POSITION" : 6,
                        "NORMAL" : 7,
                        "TANGENT" : 8,
                        "TEXCOORD_0" : 9,
                        "COLOR_0" : 10
                    },
                    "indices" : 11,
                    "material" : 1
                }
            ]
        }
    ],
    "textures" : [
        {
            "sampler" : 0,
            "source" : 0
        },
        {
            "sampler" : 0,
            "source" : 1
        }
    ],
    "images" : [
        {
            "mimeType" : "image/png",
            "name" : "electricity_01_diff_0",
            "uri" : "electricity_01_diff_0.png"
        },
        {
            "mimeType" : "image/png",
            "name" : "gas_tank_diff_0",
            "uri" : "gas_tank_diff_0.png"
        }
    ],
    "accessors" : [
        {
            "bufferView" : 0,
            "componentType" : 5126,
            "count" : 1332,
            "max" : [
                1.098423957824707,
                1.6328125,
                1.6706641912460327
            ],
            "min" : [
                -0.9785265922546387,
                -1.216796875,
                -2.119140625
            ],
            "type" : "VEC3"
        },
        {
            "bufferView" : 1,
            "componentType" : 5126,
            "count" : 1332,
            "type" : "VEC3"
        },
        {
            "bufferView" : 2,
            "componentType" : 5126,
            "count" : 1332,
            "type" : "VEC4"
        },
        {
            "bufferView" : 3,
            "componentType" : 5126,
            "count" : 1332,
            "type" : "VEC2"
        },
        {
            "bufferView" : 4,
            "componentType" : 5123,
            "count" : 1332,
            "normalized" : true,
            "type" : "VEC4"
        },
        {
            "bufferView" : 5,
            "componentType" : 5123,
            "count" : 3330,
            "type" : "SCALAR"
        },
        {
            "bufferView" : 6,
            "componentType" : 5126,
            "count" : 1694,
            "max" : [
                -0.10566270351409912,
                1.03515625,
                1.563760757446289
            ],
            "min" : [
                -0.9755951166152954,
                -0.55810546875,
                0.6940460801124573
            ],
            "type" : "VEC3"
        },
        {
            "bufferView" : 7,
            "componentType" : 5126,
            "count" : 1694,
            "type" : "VEC3"
        },
        {
            "bufferView" : 8,
            "componentType" : 5126,
            "count" : 1694,
            "type" : "VEC4"
        },
        {
            "bufferView" : 9,
            "componentType" : 5126,
            "count" : 1694,
            "type" : "VEC2"
        },
        {
            "bufferView" : 10,
            "componentType" : 5123,
            "count" : 1694,
            "normalized" : true,
            "type" : "VEC4"
        },
        {
            "bufferView" : 11,
            "componentType" : 5123,
            "count" : 4365,
            "type" : "SCALAR"
        }
    ],
    "bufferViews" : [
        {
            "buffer" : 0,
            "byteLength" : 15984,
            "byteOffset" : 0
        },
        {
            "buffer" : 0,
            "byteLength" : 15984,
            "byteOffset" : 15984
        },
        {
            "buffer" : 0,
            "byteLength" : 21312,
            "byteOffset" : 31968
        },
        {
            "buffer" : 0,
            "byteLength" : 10656,
            "byteOffset" : 53280
        },
        {
            "buffer" : 0,
            "byteLength" : 10656,
            "byteOffset" : 63936
        },
        {
            "buffer" : 0,
            "byteLength" : 6660,
            "byteOffset" : 74592
        },
        {
            "buffer" : 0,
            "byteLength" : 20328,
            "byteOffset" : 81252
        },
        {
            "buffer" : 0,
            "byteLength" : 20328,
            "byteOffset" : 101580
        },
        {
            "buffer" : 0,
            "byteLength" : 27104,
            "byteOffset" : 121908
        },
        {
            "buffer" : 0,
            "byteLength" : 13552,
            "byteOffset" : 149012
        },
        {
            "buffer" : 0,
            "byteLength" : 13552,
            "byteOffset" : 162564
        },
        {
            "buffer" : 0,
            "byteLength" : 8730,
            "byteOffset" : 176116
        }
    ],
    "samplers" : [
        {
            "magFilter" : 9729,
            "minFilter" : 9987
        }
    ],
    "buffers" : [
        {
            "byteLength" : 184848,
            "uri" : "plant_gas.bin"
        }
    ]
}
