{
    "asset" : {
        "generator" : "Khronos glTF Blender I/O v1.6.16",
        "version" : "2.0"
    },
    "scene" : 0,
    "scenes" : [
        {
            "name" : "Scene",
            "nodes" : [
                0,
                1,
                2,
                3,
                4,
                5,
                6,
                7,
                8,
                9,
                10,
                11,
                12,
                13,
                14,
                15,
                16,
                17,
                18,
                19,
                20,
                21,
                22,
                23,
                24,
                25,
                26,
                27,
                28,
                29,
                30
            ]
        }
    ],
    "nodes" : [
        {
            "mesh" : 0,
            "name" : "ground"
        },
        {
            "mesh" : 1,
            "name" : "single_plant",
            "rotation" : [
                0,
                0.6501558423042297,
                0,
                0.759800910949707
            ],
            "scale" : [
                0.699999988079071,
                0.5,
                0.699999988079071
            ],
            "translation" : [
                -0.4090057611465454,
                0.1651027798652649,
                0.4035990834236145
            ]
        },
        {
            "mesh" : 1,
            "name" : "single_plant.001",
            "rotation" : [
                0,
                -0.8465448021888733,
                0,
                0.5323175191879272
            ],
            "scale" : [
                0.699999988079071,
                0.5,
                0.699999988079071
            ],
            "translation" : [
                -0.2071366161108017,
                0.1651027798652649,
                0.43644779920578003
            ]
        },
        {
            "mesh" : 1,
            "name" : "single_plant.002",
            "rotation" : [
                0,
                -0.8421193957328796,
                0,
                0.539291262626648
            ],
            "scale" : [
                0.699999988079071,
                0.5,
                0.699999988079071
            ],
            "translation" : [
                -0.028299512341618538,
                0.1651027798652649,
                0.4182039797306061
            ]
        },
        {
            "mesh" : 1,
            "name" : "single_plant.003",
            "rotation" : [
                0,
                0.7594555020332336,
                0,
                0.6505591869354248
            ],
            "scale" : [
                0.699999988079071,
                0.5,
                0.699999988079071
            ],
            "translation" : [
                0.1790565550327301,
                0.1651027798652649,
                0.4364386796951294
            ]
        },
        {
            "mesh" : 1,
            "name" : "single_plant.004",
            "rotation" : [
                0,
                0.5806759595870972,
                0,
                0.8141347765922546
            ],
            "scale" : [
                0.699999988079071,
                0.5,
                0.699999988079071
            ],
            "translation" : [
                0.4351695775985718,
                0.1651027798652649,
                0.25962209701538086
            ]
        },
        {
            "mesh" : 1,
            "name" : "single_plant.005",
            "rotation" : [
                0,
                -0.7906067967414856,
                0,
                0.6123243570327759
            ],
            "scale" : [
                0.699999988079071,
                0.5,
                0.699999988079071
            ],
            "translation" : [
                -0.4197218120098114,
                0.1651027798652649,
                0.2335355579853058
            ]
        },
        {
            "mesh" : 1,
            "name" : "single_plant.006",
            "rotation" : [
                0,
                -0.7417713403701782,
                0,
                0.6706528663635254
            ],
            "scale" : [
                0.699999988079071,
                0.5,
                0.699999988079071
            ],
            "translation" : [
                -0.2139451503753662,
                0.1651027798652649,
                0.25313133001327515
            ]
        },
        {
            "mesh" : 1,
            "name" : "single_plant.007",
            "rotation" : [
                0,
                -0.9926074743270874,
                0,
                0.12136881053447723
            ],
            "scale" : [
                0.699999988079071,
                0.5,
                0.699999988079071
            ],
            "translation" : [
                -0.028432846069335938,
                0.1651027798652649,
                0.25313133001327515
            ]
        },
        {
            "mesh" : 1,
            "name" : "single_plant.008",
            "rotation" : [
                0,
                -0.6587384343147278,
                0,
                0.7523720264434814
            ],
            "scale" : [
                0.699999988079071,
                0.5,
                0.699999988079071
            ],
            "translation" : [
                0.26620805263519287,
                0.1651027798652649,
                0.1939300298690796
            ]
        },
        {
            "mesh" : 1,
            "name" : "single_plant.009",
            "scale" : [
                0.699999988079071,
                0.5,
                0.699999988079071
            ],
            "translation" : [
                0.12563352286815643,
                0.1651027798652649,
                0.26605337858200073
            ]
        },
        {
            "mesh" : 1,
            "name" : "single_plant.010",
            "rotation" : [
                0,
                0.9372105002403259,
                0,
                0.34876424074172974
            ],
            "scale" : [
                0.699999988079071,
                0.5,
                0.699999988079071
            ],
            "translation" : [
                0.3817519545555115,
                0.1651027798652649,
                0.4008495807647705
            ]
        },
        {
            "mesh" : 1,
            "name" : "single_plant.011",
            "rotation" : [
                0,
                0.5330225229263306,
                0,
                0.8461010456085205
            ],
            "scale" : [
                0.699999988079071,
                0.5,
                0.699999988079071
            ],
            "translation" : [
                0.04583057761192322,
                0.1651027798652649,
                0.11289013922214508
            ]
        },
        {
            "mesh" : 1,
            "name" : "single_plant.012",
            "rotation" : [
                0,
                0.7893600463867188,
                0,
                0.6139304637908936
            ],
            "scale" : [
                0.699999988079071,
                0.5,
                0.699999988079071
            ],
            "translation" : [
                -0.1430610567331314,
                0.1651027798652649,
                0.096242755651474
            ]
        },
        {
            "mesh" : 1,
            "name" : "single_plant.013",
            "rotation" : [
                0,
                0.6650004386901855,
                0,
                0.7468429803848267
            ],
            "scale" : [
                0.699999988079071,
                0.5,
                0.699999988079071
            ],
            "translation" : [
                -0.33126339316368103,
                0.1589653044939041,
                0.10050483047962189
            ]
        },
        {
            "mesh" : 1,
            "name" : "single_plant.014",
            "rotation" : [
                0,
                0.7742769718170166,
                0,
                0.6328468918800354
            ],
            "scale" : [
                0.699999988079071,
                0.5,
                0.699999988079071
            ],
            "translation" : [
                -0.41961669921875,
                0.1589653044939041,
                -0.06658843904733658
            ]
        },
        {
            "mesh" : 1,
            "name" : "single_plant.015",
            "rotation" : [
                0,
                -0.7663408517837524,
                0,
                0.6424342393875122
            ],
            "scale" : [
                0.699999988079071,
                0.5,
                0.699999988079071
            ],
            "translation" : [
                -0.16992217302322388,
                0.1589653044939041,
                -0.0861828476190567
            ]
        },
        {
            "mesh" : 1,
            "name" : "single_plant.016",
            "rotation" : [
                0,
                0.6318745613098145,
                0,
                0.7750707268714905
            ],
            "scale" : [
                0.699999988079071,
                0.5,
                0.699999988079071
            ],
            "translation" : [
                0.016918934881687164,
                0.1589653044939041,
                -0.06658843904733658
            ]
        },
        {
            "mesh" : 1,
            "name" : "single_plant.017",
            "rotation" : [
                0,
                0.2674467861652374,
                0,
                0.96357262134552
            ],
            "scale" : [
                0.699999988079071,
                0.5,
                0.699999988079071
            ],
            "translation" : [
                0.23155955970287323,
                0.1589653044939041,
                -0.15842877328395844
            ]
        },
        {
            "mesh" : 1,
            "name" : "single_plant.018",
            "rotation" : [
                0,
                -0.9425524473190308,
                0,
                0.3340581953525543
            ],
            "scale" : [
                0.699999988079071,
                0.5,
                0.699999988079071
            ],
            "translation" : [
                0.23155955970287323,
                0.1589653044939041,
                0.009312009438872337
            ]
        },
        {
            "mesh" : 1,
            "name" : "single_plant.019",
            "rotation" : [
                0,
                -0.6619720458984375,
                0,
                0.7495285272598267
            ],
            "scale" : [
                0.699999988079071,
                0.5,
                0.699999988079071
            ],
            "translation" : [
                0.41793569922447205,
                0.1589653044939041,
                0.0416376069188118
            ]
        },
        {
            "mesh" : 1,
            "name" : "single_plant.020",
            "rotation" : [
                0,
                0.7373058199882507,
                0,
                0.6755591630935669
            ],
            "scale" : [
                0.699999988079071,
                0.5,
                0.699999988079071
            ],
            "translation" : [
                0.4234243631362915,
                0.1589653044939041,
                -0.1607206016778946
            ]
        },
        {
            "mesh" : 1,
            "name" : "single_plant.021",
            "rotation" : [
                0,
                0.9901288747787476,
                0,
                0.14016050100326538
            ],
            "scale" : [
                0.699999988079071,
                0.5,
                0.699999988079071
            ],
            "translation" : [
                0.09769845008850098,
                0.1589653044939041,
                -0.25867557525634766
            ]
        },
        {
            "mesh" : 1,
            "name" : "single_plant.022",
            "rotation" : [
                0,
                0.9999374747276306,
                0,
                0.011184297502040863
            ],
            "scale" : [
                0.699999988079071,
                0.5,
                0.699999988079071
            ],
            "translation" : [
                -0.08963847160339355,
                0.1589653044939041,
                -0.25326836109161377
            ]
        },
        {
            "mesh" : 1,
            "name" : "single_plant.023",
            "rotation" : [
                0,
                0.9984523057937622,
                0,
                0.055614836513996124
            ],
            "scale" : [
                0.699999988079071,
                0.5,
                0.699999988079071
            ],
            "translation" : [
                0.1999528706073761,
                0.1589653044939041,
                -0.43054693937301636
            ]
        },
        {
            "mesh" : 1,
            "name" : "single_plant.024",
            "rotation" : [
                0,
                0.4099251627922058,
                0,
                0.9121191501617432
            ],
            "scale" : [
                0.699999988079071,
                0.5,
                0.699999988079071
            ],
            "translation" : [
                -0.03292360156774521,
                0.1589653044939041,
                -0.4076220393180847
            ]
        },
        {
            "mesh" : 1,
            "name" : "single_plant.025",
            "rotation" : [
                0,
                0.6735959053039551,
                0,
                0.7390998601913452
            ],
            "scale" : [
                0.699999988079071,
                0.5,
                0.699999988079071
            ],
            "translation" : [
                -0.1997247189283371,
                0.1589653044939041,
                -0.45545655488967896
            ]
        },
        {
            "mesh" : 1,
            "name" : "single_plant.026",
            "rotation" : [
                0,
                0.9052802324295044,
                0,
                0.42481496930122375
            ],
            "scale" : [
                0.699999988079071,
                0.5,
                0.699999988079071
            ],
            "translation" : [
                -0.39246633648872375,
                0.1589653044939041,
                -0.4331745207309723
            ]
        },
        {
            "mesh" : 1,
            "name" : "single_plant.027",
            "rotation" : [
                0,
                -0.9477468132972717,
                0,
                0.3190235495567322
            ],
            "scale" : [
                0.699999988079071,
                0.5,
                0.699999988079071
            ],
            "translation" : [
                -0.3192366361618042,
                0.1589653044939041,
                -0.2101174294948578
            ]
        },
        {
            "mesh" : 1,
            "name" : "single_plant.028",
            "scale" : [
                0.699999988079071,
                0.5,
                0.699999988079071
            ],
            "translation" : [
                0.3829320967197418,
                0.1589653044939041,
                -0.3809691071510315
            ]
        },
        {
            "mesh" : 2,
            "name" : "_lod0",
            "rotation" : [
                0,
                0.6501558423042297,
                0,
                0.759800910949707
            ],
            "scale" : [
                0.699999988079071,
                0.5,
                0.699999988079071
            ],
            "translation" : [
                -0.4090057611465454,
                0.1651027798652649,
                0.4035990834236145
            ]
        }
    ],
    "materials" : [
        {
            "alphaMode" : "BLEND",
            "name" : "mat_hemp_new",
            "pbrMetallicRoughness" : {
                "baseColorTexture" : {
                    "index" : 0
                },
                "roughnessFactor" : 0.9800000190734863
            }
        }
    ],
    "meshes" : [
        {
            "name" : "Plane",
            "primitives" : [
                {
                    "attributes" : {
                        "POSITION" : 0,
                        "NORMAL" : 1,
                        "TANGENT" : 2,
                        "TEXCOORD_0" : 3
                    },
                    "indices" : 4
                }
            ]
        },
        {
            "name" : "Mesh_0.014",
            "primitives" : [
                {
                    "attributes" : {
                        "POSITION" : 5,
                        "NORMAL" : 6,
                        "TANGENT" : 7,
                        "TEXCOORD_0" : 8
                    },
                    "indices" : 9,
                    "material" : 0
                }
            ]
        },
        {
            "name" : "Mesh_0.023",
            "primitives" : [
                {
                    "attributes" : {
                        "POSITION" : 10,
                        "NORMAL" : 11,
                        "TANGENT" : 12,
                        "TEXCOORD_0" : 13
                    },
                    "indices" : 14,
                    "material" : 0
                }
            ]
        }
    ],
    "textures" : [
        {
            "sampler" : 0,
            "source" : 0
        }
    ],
    "images" : [
        {
            "mimeType" : "image/png",
            "name" : "hemp_field_diff",
            "uri" : "hemp_field_diff.png"
        }
    ],
    "accessors" : [
        {
            "bufferView" : 0,
            "componentType" : 5126,
            "count" : 4,
            "max" : [
                0.5,
                0,
                0.5
            ],
            "min" : [
                -0.5,
                0,
                -0.5
            ],
            "type" : "VEC3"
        },
        {
            "bufferView" : 1,
            "componentType" : 5126,
            "count" : 4,
            "type" : "VEC3"
        },
        {
            "bufferView" : 2,
            "componentType" : 5126,
            "count" : 4,
            "type" : "VEC4"
        },
        {
            "bufferView" : 3,
            "componentType" : 5126,
            "count" : 4,
            "type" : "VEC2"
        },
        {
            "bufferView" : 4,
            "componentType" : 5123,
            "count" : 6,
            "type" : "SCALAR"
        },
        {
            "bufferView" : 5,
            "componentType" : 5126,
            "count" : 36,
            "max" : [
                0.18774667382240295,
                0.47779756784439087,
                0.14882487058639526
            ],
            "min" : [
                -0.1487336903810501,
                -0.3553064465522766,
                -0.16638916730880737
            ],
            "type" : "VEC3"
        },
        {
            "bufferView" : 6,
            "componentType" : 5126,
            "count" : 36,
            "type" : "VEC3"
        },
        {
            "bufferView" : 7,
            "componentType" : 5126,
            "count" : 36,
            "type" : "VEC4"
        },
        {
            "bufferView" : 8,
            "componentType" : 5126,
            "count" : 36,
            "type" : "VEC2"
        },
        {
            "bufferView" : 9,
            "componentType" : 5123,
            "count" : 36,
            "type" : "SCALAR"
        },
        {
            "bufferView" : 10,
            "componentType" : 5126,
            "count" : 1044,
            "max" : [
                1.4655548334121704,
                0.47779756784439087,
                1.3197059631347656
            ],
            "min" : [
                -0.19620689749717712,
                -0.36758139729499817,
                -0.33592674136161804
            ],
            "type" : "VEC3"
        },
        {
            "bufferView" : 11,
            "componentType" : 5126,
            "count" : 1044,
            "type" : "VEC3"
        },
        {
            "bufferView" : 12,
            "componentType" : 5126,
            "count" : 1044,
            "type" : "VEC4"
        },
        {
            "bufferView" : 13,
            "componentType" : 5126,
            "count" : 1044,
            "type" : "VEC2"
        },
        {
            "bufferView" : 14,
            "componentType" : 5123,
            "count" : 1044,
            "type" : "SCALAR"
        }
    ],
    "bufferViews" : [
        {
            "buffer" : 0,
            "byteLength" : 48,
            "byteOffset" : 0
        },
        {
            "buffer" : 0,
            "byteLength" : 48,
            "byteOffset" : 48
        },
        {
            "buffer" : 0,
            "byteLength" : 64,
            "byteOffset" : 96
        },
        {
            "buffer" : 0,
            "byteLength" : 32,
            "byteOffset" : 160
        },
        {
            "buffer" : 0,
            "byteLength" : 12,
            "byteOffset" : 192
        },
        {
            "buffer" : 0,
            "byteLength" : 432,
            "byteOffset" : 204
        },
        {
            "buffer" : 0,
            "byteLength" : 432,
            "byteOffset" : 636
        },
        {
            "buffer" : 0,
            "byteLength" : 576,
            "byteOffset" : 1068
        },
        {
            "buffer" : 0,
            "byteLength" : 288,
            "byteOffset" : 1644
        },
        {
            "buffer" : 0,
            "byteLength" : 72,
            "byteOffset" : 1932
        },
        {
            "buffer" : 0,
            "byteLength" : 12528,
            "byteOffset" : 2004
        },
        {
            "buffer" : 0,
            "byteLength" : 12528,
            "byteOffset" : 14532
        },
        {
            "buffer" : 0,
            "byteLength" : 16704,
            "byteOffset" : 27060
        },
        {
            "buffer" : 0,
            "byteLength" : 8352,
            "byteOffset" : 43764
        },
        {
            "buffer" : 0,
            "byteLength" : 2088,
            "byteOffset" : 52116
        }
    ],
    "samplers" : [
        {
            "magFilter" : 9729,
            "minFilter" : 9987
        }
    ],
    "buffers" : [
        {
            "byteLength" : 54204,
            "uri" : "hemp_field_0.bin"
        }
    ]
}
