{
    "asset" : {
        "generator" : "Khronos glTF Blender I/O v3.3.27",
        "version" : "2.0"
    },
    "scene" : 0,
    "scenes" : [
        {
            "name" : "Scene",
            "nodes" : [
                0,
                1,
                2,
                3
            ]
        }
    ],
    "nodes" : [
        {
            "mesh" : 0,
            "name" : "_1_lod0",
            "rotation" : [
                0,
                0.650155782699585,
                0,
                0.759800910949707
            ],
            "scale" : [
                0.699999988079071,
                0.5,
                0.699999988079071
            ],
            "translation" : [
                -0.4090057611465454,
                0.1651027798652649,
                0.4035990834236145
            ]
        },
        {
            "mesh" : 1,
            "name" : "_3_lod0",
            "rotation" : [
                0,
                0.650155782699585,
                0,
                0.759800910949707
            ],
            "scale" : [
                0.699999988079071,
                0.5,
                0.699999988079071
            ],
            "translation" : [
                -0.4090057611465454,
                0.1651027798652649,
                0.4035990834236145
            ]
        },
        {
            "mesh" : 2,
            "name" : "_4_lod0",
            "rotation" : [
                0,
                0.650155782699585,
                0,
                0.759800910949707
            ],
            "scale" : [
                0.699999988079071,
                0.5,
                0.699999988079071
            ],
            "translation" : [
                -0.4090057611465454,
                0.1651027798652649,
                0.4035990834236145
            ]
        },
        {
            "mesh" : 3,
            "name" : "_2_lod0",
            "rotation" : [
                0,
                0.650155782699585,
                0,
                0.759800910949707
            ],
            "scale" : [
                0.699999988079071,
                0.5,
                0.699999988079071
            ],
            "translation" : [
                -0.4090057611465454,
                0.1651027798652649,
                0.4035990834236145
            ]
        }
    ],
    "materials" : [
        {
            "alphaMode" : "BLEND",
            "name" : "mat_hemp_new.002",
            "pbrMetallicRoughness" : {
                "baseColorTexture" : {
                    "index" : 0
                },
                "roughnessFactor" : 0.9800000190734863
            }
        }
    ],
    "meshes" : [
        {
            "name" : "Mesh_0.007",
            "primitives" : [
                {
                    "attributes" : {
                        "POSITION" : 0,
                        "NORMAL" : 1,
                        "TANGENT" : 2,
                        "TEXCOORD_0" : 3
                    },
                    "indices" : 4,
                    "material" : 0
                }
            ]
        },
        {
            "name" : "Mesh_0.009",
            "primitives" : [
                {
                    "attributes" : {
                        "POSITION" : 5,
                        "NORMAL" : 6,
                        "TANGENT" : 7,
                        "TEXCOORD_0" : 8
                    },
                    "indices" : 9,
                    "material" : 0
                }
            ]
        },
        {
            "name" : "Mesh_0.010",
            "primitives" : [
                {
                    "attributes" : {
                        "POSITION" : 10,
                        "NORMAL" : 11,
                        "TANGENT" : 12,
                        "TEXCOORD_0" : 13
                    },
                    "indices" : 14,
                    "material" : 0
                }
            ]
        },
        {
            "name" : "Mesh_0.011",
            "primitives" : [
                {
                    "attributes" : {
                        "POSITION" : 15,
                        "NORMAL" : 16,
                        "TANGENT" : 17,
                        "TEXCOORD_0" : 18
                    },
                    "indices" : 19,
                    "material" : 0
                }
            ]
        }
    ],
    "textures" : [
        {
            "sampler" : 0,
            "source" : 0
        }
    ],
    "images" : [
        {
            "mimeType" : "image/png",
            "name" : "hemp_field_diff",
            "uri" : "hemp_field_diff.png"
        }
    ],
    "accessors" : [
        {
            "bufferView" : 0,
            "componentType" : 5126,
            "count" : 327,
            "max" : [
                1.4424811601638794,
                0.47779756784439087,
                1.3197059631347656
            ],
            "min" : [
                0.10232731699943542,
                -0.36758139729499817,
                -0.3030381500720978
            ],
            "type" : "VEC3"
        },
        {
            "bufferView" : 1,
            "componentType" : 5126,
            "count" : 327,
            "type" : "VEC3"
        },
        {
            "bufferView" : 2,
            "componentType" : 5126,
            "count" : 327,
            "type" : "VEC4"
        },
        {
            "bufferView" : 3,
            "componentType" : 5126,
            "count" : 327,
            "type" : "VEC2"
        },
        {
            "bufferView" : 4,
            "componentType" : 5123,
            "count" : 327,
            "type" : "SCALAR"
        },
        {
            "bufferView" : 5,
            "componentType" : 5126,
            "count" : 213,
            "max" : [
                1.4134581089019775,
                0.47779756784439087,
                1.3102591037750244
            ],
            "min" : [
                -0.0353795662522316,
                -0.36758139729499817,
                -0.14729733765125275
            ],
            "type" : "VEC3"
        },
        {
            "bufferView" : 6,
            "componentType" : 5126,
            "count" : 213,
            "type" : "VEC3"
        },
        {
            "bufferView" : 7,
            "componentType" : 5126,
            "count" : 213,
            "type" : "VEC4"
        },
        {
            "bufferView" : 8,
            "componentType" : 5126,
            "count" : 213,
            "type" : "VEC2"
        },
        {
            "bufferView" : 9,
            "componentType" : 5123,
            "count" : 213,
            "type" : "SCALAR"
        },
        {
            "bufferView" : 10,
            "componentType" : 5126,
            "count" : 216,
            "max" : [
                1.4655548334121704,
                0.47779756784439087,
                1.0669687986373901
            ],
            "min" : [
                -0.1756885051727295,
                -0.36758139729499817,
                -0.36210936307907104
            ],
            "type" : "VEC3"
        },
        {
            "bufferView" : 11,
            "componentType" : 5126,
            "count" : 216,
            "type" : "VEC3"
        },
        {
            "bufferView" : 12,
            "componentType" : 5126,
            "count" : 216,
            "type" : "VEC4"
        },
        {
            "bufferView" : 13,
            "componentType" : 5126,
            "count" : 216,
            "type" : "VEC2"
        },
        {
            "bufferView" : 14,
            "componentType" : 5123,
            "count" : 216,
            "type" : "SCALAR"
        },
        {
            "bufferView" : 15,
            "componentType" : 5126,
            "count" : 288,
            "max" : [
                1.4428906440734863,
                0.47779756784439087,
                1.2471526861190796
            ],
            "min" : [
                -0.14873363077640533,
                -0.36758139729499817,
                -0.1855657994747162
            ],
            "type" : "VEC3"
        },
        {
            "bufferView" : 16,
            "componentType" : 5126,
            "count" : 288,
            "type" : "VEC3"
        },
        {
            "bufferView" : 17,
            "componentType" : 5126,
            "count" : 288,
            "type" : "VEC4"
        },
        {
            "bufferView" : 18,
            "componentType" : 5126,
            "count" : 288,
            "type" : "VEC2"
        },
        {
            "bufferView" : 19,
            "componentType" : 5123,
            "count" : 288,
            "type" : "SCALAR"
        }
    ],
    "bufferViews" : [
        {
            "buffer" : 0,
            "byteLength" : 3924,
            "byteOffset" : 0,
            "target" : 34962
        },
        {
            "buffer" : 0,
            "byteLength" : 3924,
            "byteOffset" : 3924,
            "target" : 34962
        },
        {
            "buffer" : 0,
            "byteLength" : 5232,
            "byteOffset" : 7848,
            "target" : 34962
        },
        {
            "buffer" : 0,
            "byteLength" : 2616,
            "byteOffset" : 13080,
            "target" : 34962
        },
        {
            "buffer" : 0,
            "byteLength" : 654,
            "byteOffset" : 15696,
            "target" : 34963
        },
        {
            "buffer" : 0,
            "byteLength" : 2556,
            "byteOffset" : 16352,
            "target" : 34962
        },
        {
            "buffer" : 0,
            "byteLength" : 2556,
            "byteOffset" : 18908,
            "target" : 34962
        },
        {
            "buffer" : 0,
            "byteLength" : 3408,
            "byteOffset" : 21464,
            "target" : 34962
        },
        {
            "buffer" : 0,
            "byteLength" : 1704,
            "byteOffset" : 24872,
            "target" : 34962
        },
        {
            "buffer" : 0,
            "byteLength" : 426,
            "byteOffset" : 26576,
            "target" : 34963
        },
        {
            "buffer" : 0,
            "byteLength" : 2592,
            "byteOffset" : 27004,
            "target" : 34962
        },
        {
            "buffer" : 0,
            "byteLength" : 2592,
            "byteOffset" : 29596,
            "target" : 34962
        },
        {
            "buffer" : 0,
            "byteLength" : 3456,
            "byteOffset" : 32188,
            "target" : 34962
        },
        {
            "buffer" : 0,
            "byteLength" : 1728,
            "byteOffset" : 35644,
            "target" : 34962
        },
        {
            "buffer" : 0,
            "byteLength" : 432,
            "byteOffset" : 37372,
            "target" : 34963
        },
        {
            "buffer" : 0,
            "byteLength" : 3456,
            "byteOffset" : 37804,
            "target" : 34962
        },
        {
            "buffer" : 0,
            "byteLength" : 3456,
            "byteOffset" : 41260,
            "target" : 34962
        },
        {
            "buffer" : 0,
            "byteLength" : 4608,
            "byteOffset" : 44716,
            "target" : 34962
        },
        {
            "buffer" : 0,
            "byteLength" : 2304,
            "byteOffset" : 49324,
            "target" : 34962
        },
        {
            "buffer" : 0,
            "byteLength" : 576,
            "byteOffset" : 51628,
            "target" : 34963
        }
    ],
    "samplers" : [
        {
            "magFilter" : 9729,
            "minFilter" : 9987
        }
    ],
    "buffers" : [
        {
            "byteLength" : 52204,
            "uri" : "hemp_field.bin"
        }
    ]
}
