{
    "asset" : {
        "generator" : "Khronos glTF Blender I/O v1.6.16",
        "version" : "2.0"
    },
    "scene" : 0,
    "scenes" : [
        {
            "name" : "Scene",
            "nodes" : [
                0,
                1,
                2,
                3,
                4,
                5,
                6,
                7,
                8,
                9,
                10,
                11
            ]
        }
    ],
    "nodes" : [
        {
            "mesh" : 0,
            "name" : "ground"
        },
        {
            "mesh" : 1,
            "name" : "2_lod0",
            "rotation" : [
                0,
                0.7071068286895752,
                0,
                0.7071068286895752
            ],
            "scale" : [
                0.8999999761581421,
                0.8999999761581421,
                0.8999999761581421
            ]
        },
        {
            "mesh" : 2,
            "name" : "UnevenBlocker"
        },
        {
            "mesh" : 3,
            "name" : "FeedbackBlocker"
        },
        {
            "mesh" : 4,
            "name" : "FeedbackBlocker.001",
            "translation" : [
                -2.5,
                0,
                0
            ]
        },
        {
            "mesh" : 5,
            "name" : "hitbox"
        },
        {
            "name" : "particle_smoke1",
            "scale" : [
                0.699999988079071,
                0.699999988079071,
                0.699999988079071
            ],
            "translation" : [
                -0.0006548762321472168,
                3.4479122161865234,
                -0.5722892880439758
            ]
        },
        {
            "name" : "particle_smoke2",
            "scale" : [
                0.699999988079071,
                0.699999988079071,
                0.699999988079071
            ],
            "translation" : [
                -0.0006548762321472168,
                3.4479122161865234,
                0.5757049918174744
            ]
        },
        {
            "name" : "file_lamp_1",
            "translation" : [
                -1.429503083229065,
                0,
                0.5720281600952148
            ]
        },
        {
            "mesh" : 6,
            "name" : "prop_lamp_1",
            "translation" : [
                -1.4285975694656372,
                0,
                0.5738420486450195
            ]
        },
        {
            "name" : "file_lamp_2",
            "translation" : [
                1.4258195161819458,
                0,
                -0.5753641128540039
            ]
        },
        {
            "mesh" : 7,
            "name" : "prop_lamp_2",
            "translation" : [
                1.4267250299453735,
                0,
                -0.5735502243041992
            ]
        }
    ],
    "materials" : [
        {
            "doubleSided" : true,
            "name" : "mat_ground2",
            "pbrMetallicRoughness" : {
                "baseColorTexture" : {
                    "index" : 0
                }
            }
        },
        {
            "name" : "Material_0",
            "pbrMetallicRoughness" : {
                "baseColorTexture" : {
                    "index" : 1
                }
            }
        },
        {
            "alphaMode" : "BLEND",
            "name" : "Material_1",
            "pbrMetallicRoughness" : {
                "baseColorTexture" : {
                    "index" : 2
                }
            }
        }
    ],
    "meshes" : [
        {
            "name" : "Plane",
            "primitives" : [
                {
                    "attributes" : {
                        "POSITION" : 0,
                        "NORMAL" : 1,
                        "TANGENT" : 2,
                        "TEXCOORD_0" : 3
                    },
                    "indices" : 4,
                    "material" : 0
                }
            ]
        },
        {
            "name" : "Mesh_0.017",
            "primitives" : [
                {
                    "attributes" : {
                        "POSITION" : 5,
                        "NORMAL" : 6,
                        "TANGENT" : 7,
                        "TEXCOORD_0" : 8
                    },
                    "indices" : 9,
                    "material" : 1
                },
                {
                    "attributes" : {
                        "POSITION" : 10,
                        "NORMAL" : 11,
                        "TANGENT" : 12,
                        "TEXCOORD_0" : 13
                    },
                    "indices" : 14,
                    "material" : 2
                }
            ]
        },
        {
            "name" : "Plane.001",
            "primitives" : [
                {
                    "attributes" : {
                        "POSITION" : 15,
                        "NORMAL" : 16,
                        "TANGENT" : 17,
                        "TEXCOORD_0" : 18
                    },
                    "indices" : 4
                }
            ]
        },
        {
            "name" : "Plane.002",
            "primitives" : [
                {
                    "attributes" : {
                        "POSITION" : 19,
                        "NORMAL" : 20,
                        "TANGENT" : 21,
                        "TEXCOORD_0" : 22
                    },
                    "indices" : 4
                }
            ]
        },
        {
            "name" : "Plane.003",
            "primitives" : [
                {
                    "attributes" : {
                        "POSITION" : 23,
                        "NORMAL" : 24,
                        "TANGENT" : 25,
                        "TEXCOORD_0" : 26
                    },
                    "indices" : 4
                }
            ]
        },
        {
            "name" : "Cube.002",
            "primitives" : [
                {
                    "attributes" : {
                        "POSITION" : 27,
                        "NORMAL" : 28,
                        "TANGENT" : 29,
                        "TEXCOORD_0" : 30
                    },
                    "indices" : 31
                }
            ]
        },
        {
            "name" : "data\\graphics\\props\\lamps\\lightpost_01.prp",
            "primitives" : [
                {
                    "attributes" : {
                        "POSITION" : 32,
                        "NORMAL" : 33,
                        "TANGENT" : 34,
                        "TEXCOORD_0" : 35
                    },
                    "indices" : 36
                }
            ]
        },
        {
            "name" : "data\\graphics\\props\\lamps\\lightpost_01.prp.001",
            "primitives" : [
                {
                    "attributes" : {
                        "POSITION" : 37,
                        "NORMAL" : 38,
                        "TANGENT" : 39,
                        "TEXCOORD_0" : 40
                    },
                    "indices" : 36
                }
            ]
        }
    ],
    "textures" : [
        {
            "sampler" : 0,
            "source" : 0
        },
        {
            "sampler" : 0,
            "source" : 1
        },
        {
            "sampler" : 0,
            "source" : 2
        }
    ],
    "images" : [
        {
            "mimeType" : "image/png",
            "name" : "residence_tier05_01_ground_diff_0",
            "uri" : "residence_tier05_01_ground_diff_0.png"
        },
        {
            "mimeType" : "image/png",
            "name" : "mall_diff_04_0",
            "uri" : "mall_diff_04_0.png"
        },
        {
            "mimeType" : "image/png",
            "name" : "mall_diff_0",
            "uri" : "mall_diff_0.png"
        }
    ],
    "accessors" : [
        {
            "bufferView" : 0,
            "componentType" : 5126,
            "count" : 4,
            "max" : [
                1.5,
                0,
                1.5
            ],
            "min" : [
                -1.5,
                0,
                -1.5
            ],
            "type" : "VEC3"
        },
        {
            "bufferView" : 1,
            "componentType" : 5126,
            "count" : 4,
            "type" : "VEC3"
        },
        {
            "bufferView" : 2,
            "componentType" : 5126,
            "count" : 4,
            "type" : "VEC4"
        },
        {
            "bufferView" : 3,
            "componentType" : 5126,
            "count" : 4,
            "type" : "VEC2"
        },
        {
            "bufferView" : 4,
            "componentType" : 5123,
            "count" : 6,
            "type" : "SCALAR"
        },
        {
            "bufferView" : 5,
            "componentType" : 5126,
            "count" : 6484,
            "max" : [
                1.9445339441299438,
                3.853367328643799,
                1.438853144645691
            ],
            "min" : [
                -1.9445340633392334,
                -1.058593511581421,
                -1.438853144645691
            ],
            "type" : "VEC3"
        },
        {
            "bufferView" : 6,
            "componentType" : 5126,
            "count" : 6484,
            "type" : "VEC3"
        },
        {
            "bufferView" : 7,
            "componentType" : 5126,
            "count" : 6484,
            "type" : "VEC4"
        },
        {
            "bufferView" : 8,
            "componentType" : 5126,
            "count" : 6484,
            "type" : "VEC2"
        },
        {
            "bufferView" : 9,
            "componentType" : 5123,
            "count" : 10764,
            "type" : "SCALAR"
        },
        {
            "bufferView" : 10,
            "componentType" : 5126,
            "count" : 88,
            "max" : [
                1.9152576923370361,
                0.8388674855232239,
                1.212290644645691
            ],
            "min" : [
                -1.9152578115463257,
                0.1605224460363388,
                -1.2122907638549805
            ],
            "type" : "VEC3"
        },
        {
            "bufferView" : 11,
            "componentType" : 5126,
            "count" : 88,
            "type" : "VEC3"
        },
        {
            "bufferView" : 12,
            "componentType" : 5126,
            "count" : 88,
            "type" : "VEC4"
        },
        {
            "bufferView" : 13,
            "componentType" : 5126,
            "count" : 88,
            "type" : "VEC2"
        },
        {
            "bufferView" : 14,
            "componentType" : 5123,
            "count" : 132,
            "type" : "SCALAR"
        },
        {
            "bufferView" : 15,
            "componentType" : 5126,
            "count" : 4,
            "max" : [
                0.8118220567703247,
                0,
                1.1695274114608765
            ],
            "min" : [
                -0.802486002445221,
                0,
                -1.2973271608352661
            ],
            "type" : "VEC3"
        },
        {
            "bufferView" : 16,
            "componentType" : 5126,
            "count" : 4,
            "type" : "VEC3"
        },
        {
            "bufferView" : 17,
            "componentType" : 5126,
            "count" : 4,
            "type" : "VEC4"
        },
        {
            "bufferView" : 18,
            "componentType" : 5126,
            "count" : 4,
            "type" : "VEC2"
        },
        {
            "bufferView" : 19,
            "componentType" : 5126,
            "count" : 4,
            "max" : [
                1.5,
                0,
                1.5
            ],
            "min" : [
                1,
                0,
                -1.5
            ],
            "type" : "VEC3"
        },
        {
            "bufferView" : 20,
            "componentType" : 5126,
            "count" : 4,
            "type" : "VEC3"
        },
        {
            "bufferView" : 21,
            "componentType" : 5126,
            "count" : 4,
            "type" : "VEC4"
        },
        {
            "bufferView" : 22,
            "componentType" : 5126,
            "count" : 4,
            "type" : "VEC2"
        },
        {
            "bufferView" : 23,
            "componentType" : 5126,
            "count" : 4,
            "max" : [
                1.5,
                0,
                1.5
            ],
            "min" : [
                1,
                0,
                -1.5
            ],
            "type" : "VEC3"
        },
        {
            "bufferView" : 24,
            "componentType" : 5126,
            "count" : 4,
            "type" : "VEC3"
        },
        {
            "bufferView" : 25,
            "componentType" : 5126,
            "count" : 4,
            "type" : "VEC4"
        },
        {
            "bufferView" : 26,
            "componentType" : 5126,
            "count" : 4,
            "type" : "VEC2"
        },
        {
            "bufferView" : 27,
            "componentType" : 5126,
            "count" : 24,
            "max" : [
                0.8735013008117676,
                3.0451643466949463,
                1.4920923709869385
            ],
            "min" : [
                -0.8761800527572632,
                -0.06041175127029419,
                -1.4961363077163696
            ],
            "type" : "VEC3"
        },
        {
            "bufferView" : 28,
            "componentType" : 5126,
            "count" : 24,
            "type" : "VEC3"
        },
        {
            "bufferView" : 29,
            "componentType" : 5126,
            "count" : 24,
            "type" : "VEC4"
        },
        {
            "bufferView" : 30,
            "componentType" : 5126,
            "count" : 24,
            "type" : "VEC2"
        },
        {
            "bufferView" : 31,
            "componentType" : 5123,
            "count" : 36,
            "type" : "SCALAR"
        },
        {
            "bufferView" : 32,
            "componentType" : 5126,
            "count" : 136,
            "max" : [
                0.07452392578125,
                0.5478515625,
                0.033905029296875
            ],
            "min" : [
                -0.07452392578125,
                0,
                -0.033905029296875
            ],
            "type" : "VEC3"
        },
        {
            "bufferView" : 33,
            "componentType" : 5126,
            "count" : 136,
            "type" : "VEC3"
        },
        {
            "bufferView" : 34,
            "componentType" : 5126,
            "count" : 136,
            "type" : "VEC4"
        },
        {
            "bufferView" : 35,
            "componentType" : 5126,
            "count" : 136,
            "type" : "VEC2"
        },
        {
            "bufferView" : 36,
            "componentType" : 5123,
            "count" : 246,
            "type" : "SCALAR"
        },
        {
            "bufferView" : 37,
            "componentType" : 5126,
            "count" : 136,
            "max" : [
                0.07452392578125,
                0.5478515625,
                0.033905029296875
            ],
            "min" : [
                -0.07452392578125,
                0,
                -0.033905029296875
            ],
            "type" : "VEC3"
        },
        {
            "bufferView" : 38,
            "componentType" : 5126,
            "count" : 136,
            "type" : "VEC3"
        },
        {
            "bufferView" : 39,
            "componentType" : 5126,
            "count" : 136,
            "type" : "VEC4"
        },
        {
            "bufferView" : 40,
            "componentType" : 5126,
            "count" : 136,
            "type" : "VEC2"
        }
    ],
    "bufferViews" : [
        {
            "buffer" : 0,
            "byteLength" : 48,
            "byteOffset" : 0
        },
        {
            "buffer" : 0,
            "byteLength" : 48,
            "byteOffset" : 48
        },
        {
            "buffer" : 0,
            "byteLength" : 64,
            "byteOffset" : 96
        },
        {
            "buffer" : 0,
            "byteLength" : 32,
            "byteOffset" : 160
        },
        {
            "buffer" : 0,
            "byteLength" : 12,
            "byteOffset" : 192
        },
        {
            "buffer" : 0,
            "byteLength" : 77808,
            "byteOffset" : 204
        },
        {
            "buffer" : 0,
            "byteLength" : 77808,
            "byteOffset" : 78012
        },
        {
            "buffer" : 0,
            "byteLength" : 103744,
            "byteOffset" : 155820
        },
        {
            "buffer" : 0,
            "byteLength" : 51872,
            "byteOffset" : 259564
        },
        {
            "buffer" : 0,
            "byteLength" : 21528,
            "byteOffset" : 311436
        },
        {
            "buffer" : 0,
            "byteLength" : 1056,
            "byteOffset" : 332964
        },
        {
            "buffer" : 0,
            "byteLength" : 1056,
            "byteOffset" : 334020
        },
        {
            "buffer" : 0,
            "byteLength" : 1408,
            "byteOffset" : 335076
        },
        {
            "buffer" : 0,
            "byteLength" : 704,
            "byteOffset" : 336484
        },
        {
            "buffer" : 0,
            "byteLength" : 264,
            "byteOffset" : 337188
        },
        {
            "buffer" : 0,
            "byteLength" : 48,
            "byteOffset" : 337452
        },
        {
            "buffer" : 0,
            "byteLength" : 48,
            "byteOffset" : 337500
        },
        {
            "buffer" : 0,
            "byteLength" : 64,
            "byteOffset" : 337548
        },
        {
            "buffer" : 0,
            "byteLength" : 32,
            "byteOffset" : 337612
        },
        {
            "buffer" : 0,
            "byteLength" : 48,
            "byteOffset" : 337644
        },
        {
            "buffer" : 0,
            "byteLength" : 48,
            "byteOffset" : 337692
        },
        {
            "buffer" : 0,
            "byteLength" : 64,
            "byteOffset" : 337740
        },
        {
            "buffer" : 0,
            "byteLength" : 32,
            "byteOffset" : 337804
        },
        {
            "buffer" : 0,
            "byteLength" : 48,
            "byteOffset" : 337836
        },
        {
            "buffer" : 0,
            "byteLength" : 48,
            "byteOffset" : 337884
        },
        {
            "buffer" : 0,
            "byteLength" : 64,
            "byteOffset" : 337932
        },
        {
            "buffer" : 0,
            "byteLength" : 32,
            "byteOffset" : 337996
        },
        {
            "buffer" : 0,
            "byteLength" : 288,
            "byteOffset" : 338028
        },
        {
            "buffer" : 0,
            "byteLength" : 288,
            "byteOffset" : 338316
        },
        {
            "buffer" : 0,
            "byteLength" : 384,
            "byteOffset" : 338604
        },
        {
            "buffer" : 0,
            "byteLength" : 192,
            "byteOffset" : 338988
        },
        {
            "buffer" : 0,
            "byteLength" : 72,
            "byteOffset" : 339180
        },
        {
            "buffer" : 0,
            "byteLength" : 1632,
            "byteOffset" : 339252
        },
        {
            "buffer" : 0,
            "byteLength" : 1632,
            "byteOffset" : 340884
        },
        {
            "buffer" : 0,
            "byteLength" : 2176,
            "byteOffset" : 342516
        },
        {
            "buffer" : 0,
            "byteLength" : 1088,
            "byteOffset" : 344692
        },
        {
            "buffer" : 0,
            "byteLength" : 492,
            "byteOffset" : 345780
        },
        {
            "buffer" : 0,
            "byteLength" : 1632,
            "byteOffset" : 346272
        },
        {
            "buffer" : 0,
            "byteLength" : 1632,
            "byteOffset" : 347904
        },
        {
            "buffer" : 0,
            "byteLength" : 2176,
            "byteOffset" : 349536
        },
        {
            "buffer" : 0,
            "byteLength" : 1088,
            "byteOffset" : 351712
        }
    ],
    "samplers" : [
        {
            "magFilter" : 9729,
            "minFilter" : 9987
        }
    ],
    "buffers" : [
        {
            "byteLength" : 352800,
            "uri" : "mini_mall2.bin"
        }
    ]
}
