{
    "asset" : {
        "generator" : "Khronos glTF Blender I/O v1.6.16",
        "version" : "2.0"
    },
    "scene" : 0,
    "scenes" : [
        {
            "name" : "Scene",
            "nodes" : [
                0,
                1
            ]
        }
    ],
    "nodes" : [
        {
            "mesh" : 0,
            "name" : "_lod0",
            "scale" : [
                1.375575304031372,
                1.3549258708953857,
                1
            ],
            "translation" : [
                0.022793740034103394,
                0,
                0.7248460054397583
            ]
        },
        {
            "mesh" : 1,
            "name" : "ground"
        }
    ],
    "materials" : [
        {
            "name" : "Material_0.001",
            "pbrMetallicRoughness" : {
                "baseColorTexture" : {
                    "index" : 0
                }
            }
        }
    ],
    "meshes" : [
        {
            "name" : "Mesh_0.001",
            "primitives" : [
                {
                    "attributes" : {
                        "POSITION" : 0,
                        "NORMAL" : 1,
                        "TANGENT" : 2,
                        "TEXCOORD_0" : 3
                    },
                    "indices" : 4,
                    "material" : 0
                }
            ]
        },
        {
            "name" : "Plane",
            "primitives" : [
                {
                    "attributes" : {
                        "POSITION" : 5,
                        "NORMAL" : 6,
                        "TANGENT" : 7,
                        "TEXCOORD_0" : 8
                    },
                    "indices" : 9
                }
            ]
        }
    ],
    "textures" : [
        {
            "sampler" : 0,
            "source" : 0
        }
    ],
    "images" : [
        {
            "mimeType" : "image/png",
            "name" : "residence_tier02_02_diff_0",
            "uri" : "residence_tier02_02_diff_0.png"
        }
    ],
    "accessors" : [
        {
            "bufferView" : 0,
            "componentType" : 5126,
            "count" : 7744,
            "max" : [
                0.61572265625,
                1.6029099225997925,
                0.77783203125
            ],
            "min" : [
                -0.623046875,
                -0.00711822509765625,
                -2.3176889419555664
            ],
            "type" : "VEC3"
        },
        {
            "bufferView" : 1,
            "componentType" : 5126,
            "count" : 7744,
            "type" : "VEC3"
        },
        {
            "bufferView" : 2,
            "componentType" : 5126,
            "count" : 7744,
            "type" : "VEC4"
        },
        {
            "bufferView" : 3,
            "componentType" : 5126,
            "count" : 7744,
            "type" : "VEC2"
        },
        {
            "bufferView" : 4,
            "componentType" : 5123,
            "count" : 11946,
            "type" : "SCALAR"
        },
        {
            "bufferView" : 5,
            "componentType" : 5126,
            "count" : 4,
            "max" : [
                1.5,
                0,
                1.5
            ],
            "min" : [
                -1.5,
                0,
                -1.5
            ],
            "type" : "VEC3"
        },
        {
            "bufferView" : 6,
            "componentType" : 5126,
            "count" : 4,
            "type" : "VEC3"
        },
        {
            "bufferView" : 7,
            "componentType" : 5126,
            "count" : 4,
            "type" : "VEC4"
        },
        {
            "bufferView" : 8,
            "componentType" : 5126,
            "count" : 4,
            "type" : "VEC2"
        },
        {
            "bufferView" : 9,
            "componentType" : 5123,
            "count" : 6,
            "type" : "SCALAR"
        }
    ],
    "bufferViews" : [
        {
            "buffer" : 0,
            "byteLength" : 92928,
            "byteOffset" : 0
        },
        {
            "buffer" : 0,
            "byteLength" : 92928,
            "byteOffset" : 92928
        },
        {
            "buffer" : 0,
            "byteLength" : 123904,
            "byteOffset" : 185856
        },
        {
            "buffer" : 0,
            "byteLength" : 61952,
            "byteOffset" : 309760
        },
        {
            "buffer" : 0,
            "byteLength" : 23892,
            "byteOffset" : 371712
        },
        {
            "buffer" : 0,
            "byteLength" : 48,
            "byteOffset" : 395604
        },
        {
            "buffer" : 0,
            "byteLength" : 48,
            "byteOffset" : 395652
        },
        {
            "buffer" : 0,
            "byteLength" : 64,
            "byteOffset" : 395700
        },
        {
            "buffer" : 0,
            "byteLength" : 32,
            "byteOffset" : 395764
        },
        {
            "buffer" : 0,
            "byteLength" : 12,
            "byteOffset" : 395796
        }
    ],
    "samplers" : [
        {
            "magFilter" : 9729,
            "minFilter" : 9987
        }
    ],
    "buffers" : [
        {
            "byteLength" : 395808,
            "uri" : "worker_scraper_1.bin"
        }
    ]
}
