{
    "asset" : {
        "generator" : "Khronos glTF Blender I/O v3.3.27",
        "version" : "2.0"
    },
    "scene" : 0,
    "scenes" : [
        {
            "name" : "Scene",
            "nodes" : [
                0,
                1,
                2,
                3,
                4
            ]
        }
    ],
    "nodes" : [
        {
            "mesh" : 0,
            "name" : "_diag_lod0",
            "rotation" : [
                0,
                0.3826834559440613,
                0,
                0.9238795638084412
            ],
            "translation" : [
                -0.2710050344467163,
                0,
                -0.27610886096954346
            ]
        },
        {
            "mesh" : 1,
            "name" : "_diag_lod1",
            "rotation" : [
                0,
                0.3826834559440613,
                0,
                0.9238795638084412
            ],
            "translation" : [
                -0.2710050344467163,
                0,
                -0.27610886096954346
            ]
        },
        {
            "mesh" : 2,
            "name" : "_diag_lod2",
            "rotation" : [
                0,
                0.3826834559440613,
                0,
                0.9238795638084412
            ],
            "translation" : [
                -0.2710050344467163,
                0,
                -0.27610886096954346
            ]
        },
        {
            "mesh" : 3,
            "name" : "_diag_lod3",
            "rotation" : [
                0,
                0.3826834559440613,
                0,
                0.9238795638084412
            ],
            "translation" : [
                -0.2710050344467163,
                0,
                -0.27610886096954346
            ]
        },
        {
            "mesh" : 4,
            "name" : "_corner_lod0",
            "rotation" : [
                0,
                0.5000001788139343,
                0,
                0.8660253286361694
            ],
            "translation" : [
                -0.19216206669807434,
                0,
                -0.19207964837551117
            ]
        }
    ],
    "materials" : [
        {
            "name" : "wall",
            "pbrMetallicRoughness" : {
                "baseColorTexture" : {
                    "index" : 0
                }
            }
        }
    ],
    "meshes" : [
        {
            "name" : "Mesh_0.004",
            "primitives" : [
                {
                    "attributes" : {
                        "POSITION" : 0,
                        "NORMAL" : 1,
                        "TANGENT" : 2,
                        "TEXCOORD_0" : 3
                    },
                    "indices" : 4,
                    "material" : 0
                }
            ]
        },
        {
            "name" : "Mesh_0.005",
            "primitives" : [
                {
                    "attributes" : {
                        "POSITION" : 5,
                        "NORMAL" : 6,
                        "TANGENT" : 7,
                        "TEXCOORD_0" : 8
                    },
                    "indices" : 9,
                    "material" : 0
                }
            ]
        },
        {
            "name" : "Mesh_0.006",
            "primitives" : [
                {
                    "attributes" : {
                        "POSITION" : 10,
                        "NORMAL" : 11,
                        "TANGENT" : 12,
                        "TEXCOORD_0" : 13
                    },
                    "indices" : 14,
                    "material" : 0
                }
            ]
        },
        {
            "name" : "Mesh_0.007",
            "primitives" : [
                {
                    "attributes" : {
                        "POSITION" : 15,
                        "NORMAL" : 16,
                        "TANGENT" : 17,
                        "TEXCOORD_0" : 18
                    },
                    "indices" : 19,
                    "material" : 0
                }
            ]
        },
        {
            "name" : "Mesh_0.033",
            "primitives" : [
                {
                    "attributes" : {
                        "POSITION" : 20,
                        "NORMAL" : 21,
                        "TANGENT" : 22,
                        "TEXCOORD_0" : 23
                    },
                    "indices" : 24,
                    "material" : 0
                }
            ]
        }
    ],
    "textures" : [
        {
            "sampler" : 0,
            "source" : 0
        }
    ],
    "images" : [
        {
            "mimeType" : "image/png",
            "name" : "industrial_props_system_atlas_01_diff_0",
            "uri" : "industrial_props_system_atlas_01_diff_0.png"
        }
    ],
    "accessors" : [
        {
            "bufferView" : 0,
            "componentType" : 5126,
            "count" : 644,
            "max" : [
                0.5,
                0.97802734375,
                0.1424560546875
            ],
            "min" : [
                -0.5,
                -0.00044918060302734375,
                -0.1424560546875
            ],
            "type" : "VEC3"
        },
        {
            "bufferView" : 1,
            "componentType" : 5126,
            "count" : 644,
            "type" : "VEC3"
        },
        {
            "bufferView" : 2,
            "componentType" : 5126,
            "count" : 644,
            "type" : "VEC4"
        },
        {
            "bufferView" : 3,
            "componentType" : 5126,
            "count" : 644,
            "type" : "VEC2"
        },
        {
            "bufferView" : 4,
            "componentType" : 5123,
            "count" : 1044,
            "type" : "SCALAR"
        },
        {
            "bufferView" : 5,
            "componentType" : 5126,
            "count" : 500,
            "max" : [
                0.5,
                0.97802734375,
                0.1424560546875
            ],
            "min" : [
                -0.5,
                -0.00044918060302734375,
                -0.1424560546875
            ],
            "type" : "VEC3"
        },
        {
            "bufferView" : 6,
            "componentType" : 5126,
            "count" : 500,
            "type" : "VEC3"
        },
        {
            "bufferView" : 7,
            "componentType" : 5126,
            "count" : 500,
            "type" : "VEC4"
        },
        {
            "bufferView" : 8,
            "componentType" : 5126,
            "count" : 500,
            "type" : "VEC2"
        },
        {
            "bufferView" : 9,
            "componentType" : 5123,
            "count" : 804,
            "type" : "SCALAR"
        },
        {
            "bufferView" : 10,
            "componentType" : 5126,
            "count" : 344,
            "max" : [
                0.5,
                0.97802734375,
                0.1424560546875
            ],
            "min" : [
                -0.5,
                -0.00044918060302734375,
                -0.1424560546875
            ],
            "type" : "VEC3"
        },
        {
            "bufferView" : 11,
            "componentType" : 5126,
            "count" : 344,
            "type" : "VEC3"
        },
        {
            "bufferView" : 12,
            "componentType" : 5126,
            "count" : 344,
            "type" : "VEC4"
        },
        {
            "bufferView" : 13,
            "componentType" : 5126,
            "count" : 344,
            "type" : "VEC2"
        },
        {
            "bufferView" : 14,
            "componentType" : 5123,
            "count" : 552,
            "type" : "SCALAR"
        },
        {
            "bufferView" : 15,
            "componentType" : 5126,
            "count" : 192,
            "max" : [
                0.5,
                0.97802734375,
                0.1314697265625
            ],
            "min" : [
                -0.5,
                -0.0004687309265136719,
                -0.1314697265625
            ],
            "type" : "VEC3"
        },
        {
            "bufferView" : 16,
            "componentType" : 5126,
            "count" : 192,
            "type" : "VEC3"
        },
        {
            "bufferView" : 17,
            "componentType" : 5126,
            "count" : 192,
            "type" : "VEC4"
        },
        {
            "bufferView" : 18,
            "componentType" : 5126,
            "count" : 192,
            "type" : "VEC2"
        },
        {
            "bufferView" : 19,
            "componentType" : 5123,
            "count" : 288,
            "type" : "SCALAR"
        },
        {
            "bufferView" : 20,
            "componentType" : 5126,
            "count" : 1564,
            "max" : [
                0.417235404253006,
                0.97802734375,
                0.1424560546875
            ],
            "min" : [
                -0.41560640931129456,
                -0.00044918060302734375,
                -0.24059271812438965
            ],
            "type" : "VEC3"
        },
        {
            "bufferView" : 21,
            "componentType" : 5126,
            "count" : 1564,
            "type" : "VEC3"
        },
        {
            "bufferView" : 22,
            "componentType" : 5126,
            "count" : 1564,
            "type" : "VEC4"
        },
        {
            "bufferView" : 23,
            "componentType" : 5126,
            "count" : 1564,
            "type" : "VEC2"
        },
        {
            "bufferView" : 24,
            "componentType" : 5123,
            "count" : 1872,
            "type" : "SCALAR"
        }
    ],
    "bufferViews" : [
        {
            "buffer" : 0,
            "byteLength" : 7728,
            "byteOffset" : 0,
            "target" : 34962
        },
        {
            "buffer" : 0,
            "byteLength" : 7728,
            "byteOffset" : 7728,
            "target" : 34962
        },
        {
            "buffer" : 0,
            "byteLength" : 10304,
            "byteOffset" : 15456,
            "target" : 34962
        },
        {
            "buffer" : 0,
            "byteLength" : 5152,
            "byteOffset" : 25760,
            "target" : 34962
        },
        {
            "buffer" : 0,
            "byteLength" : 2088,
            "byteOffset" : 30912,
            "target" : 34963
        },
        {
            "buffer" : 0,
            "byteLength" : 6000,
            "byteOffset" : 33000,
            "target" : 34962
        },
        {
            "buffer" : 0,
            "byteLength" : 6000,
            "byteOffset" : 39000,
            "target" : 34962
        },
        {
            "buffer" : 0,
            "byteLength" : 8000,
            "byteOffset" : 45000,
            "target" : 34962
        },
        {
            "buffer" : 0,
            "byteLength" : 4000,
            "byteOffset" : 53000,
            "target" : 34962
        },
        {
            "buffer" : 0,
            "byteLength" : 1608,
            "byteOffset" : 57000,
            "target" : 34963
        },
        {
            "buffer" : 0,
            "byteLength" : 4128,
            "byteOffset" : 58608,
            "target" : 34962
        },
        {
            "buffer" : 0,
            "byteLength" : 4128,
            "byteOffset" : 62736,
            "target" : 34962
        },
        {
            "buffer" : 0,
            "byteLength" : 5504,
            "byteOffset" : 66864,
            "target" : 34962
        },
        {
            "buffer" : 0,
            "byteLength" : 2752,
            "byteOffset" : 72368,
            "target" : 34962
        },
        {
            "buffer" : 0,
            "byteLength" : 1104,
            "byteOffset" : 75120,
            "target" : 34963
        },
        {
            "buffer" : 0,
            "byteLength" : 2304,
            "byteOffset" : 76224,
            "target" : 34962
        },
        {
            "buffer" : 0,
            "byteLength" : 2304,
            "byteOffset" : 78528,
            "target" : 34962
        },
        {
            "buffer" : 0,
            "byteLength" : 3072,
            "byteOffset" : 80832,
            "target" : 34962
        },
        {
            "buffer" : 0,
            "byteLength" : 1536,
            "byteOffset" : 83904,
            "target" : 34962
        },
        {
            "buffer" : 0,
            "byteLength" : 576,
            "byteOffset" : 85440,
            "target" : 34963
        },
        {
            "buffer" : 0,
            "byteLength" : 18768,
            "byteOffset" : 86016,
            "target" : 34962
        },
        {
            "buffer" : 0,
            "byteLength" : 18768,
            "byteOffset" : 104784,
            "target" : 34962
        },
        {
            "buffer" : 0,
            "byteLength" : 25024,
            "byteOffset" : 123552,
            "target" : 34962
        },
        {
            "buffer" : 0,
            "byteLength" : 12512,
            "byteOffset" : 148576,
            "target" : 34962
        },
        {
            "buffer" : 0,
            "byteLength" : 3744,
            "byteOffset" : 161088,
            "target" : 34963
        }
    ],
    "samplers" : [
        {
            "magFilter" : 9729,
            "minFilter" : 9987
        }
    ],
    "buffers" : [
        {
            "byteLength" : 164832,
            "uri" : "wall.bin"
        }
    ]
}
