{
    "asset" : {
        "generator" : "Khronos glTF Blender I/O v1.6.16",
        "version" : "2.0"
    },
    "scene" : 0,
    "scenes" : [
        {
            "name" : "Scene",
            "nodes" : [
                0,
                1
            ]
        }
    ],
    "nodes" : [
        {
            "mesh" : 0,
            "name" : "_1_lod0"
        },
        {
            "mesh" : 1,
            "name" : "_0_lod0"
        }
    ],
    "materials" : [
        {
            "alphaMode" : "BLEND",
            "name" : "mat_all_trees",
            "pbrMetallicRoughness" : {
                "baseColorTexture" : {
                    "index" : 0
                }
            }
        }
    ],
    "meshes" : [
        {
            "name" : "Mesh_0.012",
            "primitives" : [
                {
                    "attributes" : {
                        "POSITION" : 0,
                        "NORMAL" : 1,
                        "TANGENT" : 2,
                        "TEXCOORD_0" : 3
                    },
                    "indices" : 4,
                    "material" : 0
                }
            ]
        },
        {
            "name" : "Mesh_0.015",
            "primitives" : [
                {
                    "attributes" : {
                        "POSITION" : 5,
                        "NORMAL" : 6,
                        "TANGENT" : 7,
                        "TEXCOORD_0" : 8
                    },
                    "indices" : 9,
                    "material" : 0
                }
            ]
        }
    ],
    "textures" : [
        {
            "sampler" : 0,
            "source" : 0
        }
    ],
    "images" : [
        {
            "mimeType" : "image/png",
            "name" : "all_trees_atlas_diff_0",
            "uri" : "all_trees_atlas_diff_0.png"
        }
    ],
    "accessors" : [
        {
            "bufferView" : 0,
            "componentType" : 5126,
            "count" : 1357,
            "max" : [
                0.325625479221344,
                0.4726129174232483,
                0.27783116698265076
            ],
            "min" : [
                -0.3146088719367981,
                -0.0006781220436096191,
                -0.27353599667549133
            ],
            "type" : "VEC3"
        },
        {
            "bufferView" : 1,
            "componentType" : 5126,
            "count" : 1357,
            "type" : "VEC3"
        },
        {
            "bufferView" : 2,
            "componentType" : 5126,
            "count" : 1357,
            "type" : "VEC4"
        },
        {
            "bufferView" : 3,
            "componentType" : 5126,
            "count" : 1357,
            "type" : "VEC2"
        },
        {
            "bufferView" : 4,
            "componentType" : 5123,
            "count" : 2691,
            "type" : "SCALAR"
        },
        {
            "bufferView" : 5,
            "componentType" : 5126,
            "count" : 1382,
            "max" : [
                0.39498814940452576,
                0.5039143562316895,
                0.3631875514984131
            ],
            "min" : [
                -0.2833104133605957,
                -0.002652972936630249,
                -0.3217735290527344
            ],
            "type" : "VEC3"
        },
        {
            "bufferView" : 6,
            "componentType" : 5126,
            "count" : 1382,
            "type" : "VEC3"
        },
        {
            "bufferView" : 7,
            "componentType" : 5126,
            "count" : 1382,
            "type" : "VEC4"
        },
        {
            "bufferView" : 8,
            "componentType" : 5126,
            "count" : 1382,
            "type" : "VEC2"
        },
        {
            "bufferView" : 9,
            "componentType" : 5123,
            "count" : 1668,
            "type" : "SCALAR"
        }
    ],
    "bufferViews" : [
        {
            "buffer" : 0,
            "byteLength" : 16284,
            "byteOffset" : 0
        },
        {
            "buffer" : 0,
            "byteLength" : 16284,
            "byteOffset" : 16284
        },
        {
            "buffer" : 0,
            "byteLength" : 21712,
            "byteOffset" : 32568
        },
        {
            "buffer" : 0,
            "byteLength" : 10856,
            "byteOffset" : 54280
        },
        {
            "buffer" : 0,
            "byteLength" : 5382,
            "byteOffset" : 65136
        },
        {
            "buffer" : 0,
            "byteLength" : 16584,
            "byteOffset" : 70520
        },
        {
            "buffer" : 0,
            "byteLength" : 16584,
            "byteOffset" : 87104
        },
        {
            "buffer" : 0,
            "byteLength" : 22112,
            "byteOffset" : 103688
        },
        {
            "buffer" : 0,
            "byteLength" : 11056,
            "byteOffset" : 125800
        },
        {
            "buffer" : 0,
            "byteLength" : 3336,
            "byteOffset" : 136856
        }
    ],
    "samplers" : [
        {
            "magFilter" : 9729,
            "minFilter" : 9987
        }
    ],
    "buffers" : [
        {
            "byteLength" : 140192,
            "uri" : "olive_tree.bin"
        }
    ]
}
