{
    "asset" : {
        "generator" : "Khronos glTF Blender I/O v3.3.27",
        "version" : "2.0"
    },
    "scene" : 0,
    "scenes" : [
        {
            "name" : "Scene",
            "nodes" : [
                0,
                1,
                2,
                3,
                4,
                5,
                6,
                7,
                8,
                9,
                10,
                11,
                12
            ]
        }
    ],
    "nodes" : [
        {
            "mesh" : 0,
            "name" : "file_c4_center3.001",
            "rotation" : [
                0,
                3.2107141123560723e-06,
                0,
                1
            ],
            "scale" : [
                0.3333333432674408,
                1,
                0.5
            ],
            "translation" : [
                1,
                0,
                -1
            ]
        },
        {
            "mesh" : 0,
            "name" : "file_c4_center3.003",
            "rotation" : [
                0,
                3.2107141123560723e-06,
                0,
                1
            ],
            "scale" : [
                0.3333333432674408,
                1,
                0.5
            ],
            "translation" : [
                1,
                0,
                1
            ]
        },
        {
            "mesh" : 1,
            "name" : "file_c4_corner4.001",
            "scale" : [
                0.3333333432674408,
                1,
                0.5
            ],
            "translation" : [
                1,
                0,
                2.00000262260437
            ]
        },
        {
            "mesh" : 1,
            "name" : "file_c4_corner4.002",
            "rotation" : [
                0,
                0.707107663154602,
                0,
                0.7071058750152588
            ],
            "scale" : [
                0.3333333432674408,
                1,
                0.5
            ],
            "translation" : [
                1,
                0,
                -2
            ]
        },
        {
            "mesh" : 2,
            "name" : "file_c4_endl.003",
            "rotation" : [
                0,
                3.5365553685551276e-06,
                0,
                1
            ],
            "scale" : [
                0.3333333432674408,
                1,
                0.5
            ],
            "translation" : [
                1,
                0,
                0
            ]
        },
        {
            "mesh" : 0,
            "name" : "file_c4_center3.002",
            "rotation" : [
                0,
                -1,
                0,
                3.850471784971887e-06
            ],
            "scale" : [
                0.3333333432674408,
                1,
                0.5
            ],
            "translation" : [
                -0.9999998807907104,
                0,
                1.0000009536743164
            ]
        },
        {
            "mesh" : 0,
            "name" : "file_c4_center3.004",
            "rotation" : [
                0,
                -1,
                0,
                3.850471784971887e-06
            ],
            "scale" : [
                0.3333333432674408,
                1,
                0.5
            ],
            "translation" : [
                -1.0000001192092896,
                0,
                -0.9999990463256836
            ]
        },
        {
            "mesh" : 1,
            "name" : "file_c4_corner4.003",
            "rotation" : [
                0,
                -1,
                0,
                1.617281895960332e-06
            ],
            "scale" : [
                0.3333333432674408,
                1,
                0.5
            ],
            "translation" : [
                -1.000000238418579,
                0,
                -2.0000016689300537
            ]
        },
        {
            "mesh" : 1,
            "name" : "file_c4_corner4.004",
            "rotation" : [
                0,
                -0.7071054577827454,
                0,
                0.707108199596405
            ],
            "scale" : [
                0.3333333432674408,
                1,
                0.5
            ],
            "translation" : [
                -0.9999997615814209,
                0,
                2.0000009536743164
            ]
        },
        {
            "mesh" : 3,
            "name" : "file_c4_endr.001",
            "rotation" : [
                0,
                -0.7071045637130737,
                0,
                0.7071090936660767
            ],
            "scale" : [
                0.3333333432674408,
                1,
                0.5
            ],
            "translation" : [
                -1,
                0,
                0
            ]
        },
        {
            "mesh" : 0,
            "name" : "file_c4_center3.005",
            "rotation" : [
                0,
                -0.7071038484573364,
                0,
                0.707109808921814
            ],
            "scale" : [
                0.3333333432674408,
                1,
                0.5
            ],
            "translation" : [
                0,
                0,
                2
            ]
        },
        {
            "mesh" : 0,
            "name" : "file_c4_center3.006",
            "rotation" : [
                0,
                0.7071102261543274,
                0,
                0.707103431224823
            ],
            "scale" : [
                0.3333333432674408,
                1,
                0.5
            ],
            "translation" : [
                0,
                0,
                -2
            ]
        },
        {
            "mesh" : 4,
            "name" : "_library_lod0",
            "translation" : [
                -0.28154048323631287,
                0.9327384233474731,
                -0.6988627314567566
            ]
        }
    ],
    "materials" : [
        {
            "alphaMode" : "BLEND",
            "doubleSided" : true,
            "name" : "g_city_center3",
            "pbrMetallicRoughness" : {
                "baseColorTexture" : {
                    "index" : 0
                }
            }
        },
        {
            "alphaMode" : "BLEND",
            "doubleSided" : true,
            "name" : "g_city_corner4",
            "pbrMetallicRoughness" : {
                "baseColorTexture" : {
                    "index" : 1
                }
            }
        },
        {
            "alphaMode" : "BLEND",
            "doubleSided" : true,
            "name" : "g_city_endl",
            "pbrMetallicRoughness" : {
                "baseColorTexture" : {
                    "index" : 2
                }
            }
        },
        {
            "alphaMode" : "BLEND",
            "doubleSided" : true,
            "name" : "g_city_endr",
            "pbrMetallicRoughness" : {
                "baseColorTexture" : {
                    "index" : 3
                }
            }
        },
        {
            "name" : "school",
            "pbrMetallicRoughness" : {
                "baseColorTexture" : {
                    "index" : 4
                }
            }
        }
    ],
    "meshes" : [
        {
            "name" : "data\\jakob\\decals\\city\\city_center3.cfg.002",
            "primitives" : [
                {
                    "attributes" : {
                        "POSITION" : 0,
                        "NORMAL" : 1,
                        "TANGENT" : 2,
                        "TEXCOORD_0" : 3
                    },
                    "indices" : 4,
                    "material" : 0
                }
            ]
        },
        {
            "name" : "data\\jakob\\decals\\city\\city_corner4.cfg.003",
            "primitives" : [
                {
                    "attributes" : {
                        "POSITION" : 5,
                        "NORMAL" : 6,
                        "TANGENT" : 7,
                        "TEXCOORD_0" : 8
                    },
                    "indices" : 4,
                    "material" : 1
                }
            ]
        },
        {
            "name" : "data\\jakob\\decals\\city\\city_endl.cfg.003",
            "primitives" : [
                {
                    "attributes" : {
                        "POSITION" : 9,
                        "NORMAL" : 10,
                        "TANGENT" : 11,
                        "TEXCOORD_0" : 12
                    },
                    "indices" : 4,
                    "material" : 2
                }
            ]
        },
        {
            "name" : "data\\jakob\\decals\\city\\city_endr.cfg.002",
            "primitives" : [
                {
                    "attributes" : {
                        "POSITION" : 13,
                        "NORMAL" : 14,
                        "TANGENT" : 15,
                        "TEXCOORD_0" : 16
                    },
                    "indices" : 4,
                    "material" : 3
                }
            ]
        },
        {
            "name" : "Mesh_0.042",
            "primitives" : [
                {
                    "attributes" : {
                        "POSITION" : 17,
                        "NORMAL" : 18,
                        "TANGENT" : 19,
                        "TEXCOORD_0" : 20
                    },
                    "indices" : 21,
                    "material" : 4
                }
            ]
        }
    ],
    "textures" : [
        {
            "sampler" : 0,
            "source" : 0
        },
        {
            "sampler" : 0,
            "source" : 1
        },
        {
            "sampler" : 0,
            "source" : 2
        },
        {
            "sampler" : 0,
            "source" : 3
        },
        {
            "sampler" : 0,
            "source" : 4
        }
    ],
    "images" : [
        {
            "mimeType" : "image/png",
            "name" : "city_center3_diff",
            "uri" : "city_center3_diff.png"
        },
        {
            "mimeType" : "image/png",
            "name" : "city_corner4_diff",
            "uri" : "city_corner4_diff.png"
        },
        {
            "mimeType" : "image/png",
            "name" : "city_endl_diff",
            "uri" : "city_endl_diff.png"
        },
        {
            "mimeType" : "image/png",
            "name" : "city_endr_diff",
            "uri" : "city_endr_diff.png"
        },
        {
            "mimeType" : "image/png",
            "name" : "service_02_diff_0",
            "uri" : "service_02_diff_0.png"
        }
    ],
    "accessors" : [
        {
            "bufferView" : 0,
            "componentType" : 5126,
            "count" : 4,
            "max" : [
                1.5,
                0,
                1
            ],
            "min" : [
                -1.5,
                0,
                -1
            ],
            "type" : "VEC3"
        },
        {
            "bufferView" : 1,
            "componentType" : 5126,
            "count" : 4,
            "type" : "VEC3"
        },
        {
            "bufferView" : 2,
            "componentType" : 5126,
            "count" : 4,
            "type" : "VEC4"
        },
        {
            "bufferView" : 3,
            "componentType" : 5126,
            "count" : 4,
            "type" : "VEC2"
        },
        {
            "bufferView" : 4,
            "componentType" : 5123,
            "count" : 6,
            "type" : "SCALAR"
        },
        {
            "bufferView" : 5,
            "componentType" : 5126,
            "count" : 4,
            "max" : [
                1.5,
                0,
                1
            ],
            "min" : [
                -1.5,
                0,
                -1
            ],
            "type" : "VEC3"
        },
        {
            "bufferView" : 6,
            "componentType" : 5126,
            "count" : 4,
            "type" : "VEC3"
        },
        {
            "bufferView" : 7,
            "componentType" : 5126,
            "count" : 4,
            "type" : "VEC4"
        },
        {
            "bufferView" : 8,
            "componentType" : 5126,
            "count" : 4,
            "type" : "VEC2"
        },
        {
            "bufferView" : 9,
            "componentType" : 5126,
            "count" : 4,
            "max" : [
                1.5,
                0,
                1
            ],
            "min" : [
                -1.5,
                0,
                -1
            ],
            "type" : "VEC3"
        },
        {
            "bufferView" : 10,
            "componentType" : 5126,
            "count" : 4,
            "type" : "VEC3"
        },
        {
            "bufferView" : 11,
            "componentType" : 5126,
            "count" : 4,
            "type" : "VEC4"
        },
        {
            "bufferView" : 12,
            "componentType" : 5126,
            "count" : 4,
            "type" : "VEC2"
        },
        {
            "bufferView" : 13,
            "componentType" : 5126,
            "count" : 4,
            "max" : [
                1.5,
                0,
                1
            ],
            "min" : [
                -1.5,
                0,
                -1
            ],
            "type" : "VEC3"
        },
        {
            "bufferView" : 14,
            "componentType" : 5126,
            "count" : 4,
            "type" : "VEC3"
        },
        {
            "bufferView" : 15,
            "componentType" : 5126,
            "count" : 4,
            "type" : "VEC4"
        },
        {
            "bufferView" : 16,
            "componentType" : 5126,
            "count" : 4,
            "type" : "VEC2"
        },
        {
            "bufferView" : 17,
            "componentType" : 5126,
            "count" : 17814,
            "max" : [
                2.157069206237793,
                1.6349568367004395,
                3.2287423610687256
            ],
            "min" : [
                -1.5852664709091187,
                -1.7036139965057373,
                -1.8357367515563965
            ],
            "type" : "VEC3"
        },
        {
            "bufferView" : 18,
            "componentType" : 5126,
            "count" : 17814,
            "type" : "VEC3"
        },
        {
            "bufferView" : 19,
            "componentType" : 5126,
            "count" : 17814,
            "type" : "VEC4"
        },
        {
            "bufferView" : 20,
            "componentType" : 5126,
            "count" : 17814,
            "type" : "VEC2"
        },
        {
            "bufferView" : 21,
            "componentType" : 5123,
            "count" : 35613,
            "type" : "SCALAR"
        }
    ],
    "bufferViews" : [
        {
            "buffer" : 0,
            "byteLength" : 48,
            "byteOffset" : 0,
            "target" : 34962
        },
        {
            "buffer" : 0,
            "byteLength" : 48,
            "byteOffset" : 48,
            "target" : 34962
        },
        {
            "buffer" : 0,
            "byteLength" : 64,
            "byteOffset" : 96,
            "target" : 34962
        },
        {
            "buffer" : 0,
            "byteLength" : 32,
            "byteOffset" : 160,
            "target" : 34962
        },
        {
            "buffer" : 0,
            "byteLength" : 12,
            "byteOffset" : 192,
            "target" : 34963
        },
        {
            "buffer" : 0,
            "byteLength" : 48,
            "byteOffset" : 204,
            "target" : 34962
        },
        {
            "buffer" : 0,
            "byteLength" : 48,
            "byteOffset" : 252,
            "target" : 34962
        },
        {
            "buffer" : 0,
            "byteLength" : 64,
            "byteOffset" : 300,
            "target" : 34962
        },
        {
            "buffer" : 0,
            "byteLength" : 32,
            "byteOffset" : 364,
            "target" : 34962
        },
        {
            "buffer" : 0,
            "byteLength" : 48,
            "byteOffset" : 396,
            "target" : 34962
        },
        {
            "buffer" : 0,
            "byteLength" : 48,
            "byteOffset" : 444,
            "target" : 34962
        },
        {
            "buffer" : 0,
            "byteLength" : 64,
            "byteOffset" : 492,
            "target" : 34962
        },
        {
            "buffer" : 0,
            "byteLength" : 32,
            "byteOffset" : 556,
            "target" : 34962
        },
        {
            "buffer" : 0,
            "byteLength" : 48,
            "byteOffset" : 588,
            "target" : 34962
        },
        {
            "buffer" : 0,
            "byteLength" : 48,
            "byteOffset" : 636,
            "target" : 34962
        },
        {
            "buffer" : 0,
            "byteLength" : 64,
            "byteOffset" : 684,
            "target" : 34962
        },
        {
            "buffer" : 0,
            "byteLength" : 32,
            "byteOffset" : 748,
            "target" : 34962
        },
        {
            "buffer" : 0,
            "byteLength" : 213768,
            "byteOffset" : 780,
            "target" : 34962
        },
        {
            "buffer" : 0,
            "byteLength" : 213768,
            "byteOffset" : 214548,
            "target" : 34962
        },
        {
            "buffer" : 0,
            "byteLength" : 285024,
            "byteOffset" : 428316,
            "target" : 34962
        },
        {
            "buffer" : 0,
            "byteLength" : 142512,
            "byteOffset" : 713340,
            "target" : 34962
        },
        {
            "buffer" : 0,
            "byteLength" : 71226,
            "byteOffset" : 855852,
            "target" : 34963
        }
    ],
    "samplers" : [
        {
            "magFilter" : 9729,
            "minFilter" : 9987
        }
    ],
    "buffers" : [
        {
            "byteLength" : 927080,
            "uri" : "library.bin"
        }
    ]
}
