{
	"asset":{
		"generator":"Khronos glTF Blender I/O v4.2.57",
		"version":"2.0"
	},
	"scene":0,
	"scenes":[
		{
			"name":"Scene",
			"nodes":[
				0,
				1,
				2,
				3
			]
		}
	],
	"nodes":[
		{
			"mesh":0,
			"name":"_lod0",
			"translation":[
				0,
				-0.0312899611890316,
				0
			]
		},
		{
			"mesh":1,
			"name":"_lod1",
			"translation":[
				0,
				-0.0312899611890316,
				0
			]
		},
		{
			"mesh":2,
			"name":"_lod2",
			"translation":[
				0,
				-0.0312899611890316,
				0
			]
		},
		{
			"mesh":3,
			"name":"_lod3",
			"translation":[
				0,
				-0.0312899611890316,
				0
			]
		}
	],
	"materials":[
		{
			"name":"Material_0.001"
		},
		{
			"name":"Material_0.002"
		},
		{
			"name":"Material_0.003"
		},
		{
			"name":"Material_0.004"
		}
	],
	"meshes":[
		{
			"name":"Mesh_0.001",
			"primitives":[
				{
					"attributes":{
						"POSITION":0,
						"NORMAL":1,
						"TEXCOORD_0":2,
						"TANGENT":3
					},
					"indices":4,
					"material":0
				}
			]
		},
		{
			"name":"Mesh_0.002",
			"primitives":[
				{
					"attributes":{
						"POSITION":5,
						"NORMAL":6,
						"TEXCOORD_0":7,
						"TANGENT":8
					},
					"indices":9,
					"material":1
				}
			]
		},
		{
			"name":"Mesh_0.003",
			"primitives":[
				{
					"attributes":{
						"POSITION":10,
						"NORMAL":11,
						"TEXCOORD_0":12,
						"TANGENT":13
					},
					"indices":14,
					"material":2
				}
			]
		},
		{
			"name":"Mesh_0.004",
			"primitives":[
				{
					"attributes":{
						"POSITION":15,
						"NORMAL":16,
						"TEXCOORD_0":17,
						"TANGENT":18
					},
					"indices":19,
					"material":3
				}
			]
		}
	],
	"accessors":[
		{
			"bufferView":0,
			"componentType":5126,
			"count":152,
			"max":[
				0.07098388671875,
				0.3427734375,
				0.0897216796875
			],
			"min":[
				-0.054290771484375,
				0.030914306640625,
				-0.08642578125
			],
			"type":"VEC3"
		},
		{
			"bufferView":1,
			"componentType":5126,
			"count":152,
			"type":"VEC3"
		},
		{
			"bufferView":2,
			"componentType":5126,
			"count":152,
			"type":"VEC2"
		},
		{
			"bufferView":3,
			"componentType":5126,
			"count":152,
			"type":"VEC4"
		},
		{
			"bufferView":4,
			"componentType":5123,
			"count":318,
			"type":"SCALAR"
		},
		{
			"bufferView":5,
			"componentType":5126,
			"count":70,
			"max":[
				0.07098388671875,
				0.3427734375,
				0.0897216796875
			],
			"min":[
				-0.054290771484375,
				0.030914306640625,
				-0.08642578125
			],
			"type":"VEC3"
		},
		{
			"bufferView":6,
			"componentType":5126,
			"count":70,
			"type":"VEC3"
		},
		{
			"bufferView":7,
			"componentType":5126,
			"count":70,
			"type":"VEC2"
		},
		{
			"bufferView":8,
			"componentType":5126,
			"count":70,
			"type":"VEC4"
		},
		{
			"bufferView":9,
			"componentType":5123,
			"count":132,
			"type":"SCALAR"
		},
		{
			"bufferView":10,
			"componentType":5126,
			"count":28,
			"max":[
				0.07098388671875,
				0.3427734375,
				0.0897216796875
			],
			"min":[
				-0.054290771484375,
				0.12359619140625,
				-0.08636474609375
			],
			"type":"VEC3"
		},
		{
			"bufferView":11,
			"componentType":5126,
			"count":28,
			"type":"VEC3"
		},
		{
			"bufferView":12,
			"componentType":5126,
			"count":28,
			"type":"VEC2"
		},
		{
			"bufferView":13,
			"componentType":5126,
			"count":28,
			"type":"VEC4"
		},
		{
			"bufferView":14,
			"componentType":5123,
			"count":60,
			"type":"SCALAR"
		},
		{
			"bufferView":15,
			"componentType":5126,
			"count":16,
			"max":[
				0.07098388671875,
				0.34326171875,
				0.0897216796875
			],
			"min":[
				-0.054290771484375,
				0.12359619140625,
				-0.08636474609375
			],
			"type":"VEC3"
		},
		{
			"bufferView":16,
			"componentType":5126,
			"count":16,
			"type":"VEC3"
		},
		{
			"bufferView":17,
			"componentType":5126,
			"count":16,
			"type":"VEC2"
		},
		{
			"bufferView":18,
			"componentType":5126,
			"count":16,
			"type":"VEC4"
		},
		{
			"bufferView":19,
			"componentType":5123,
			"count":24,
			"type":"SCALAR"
		}
	],
	"bufferViews":[
		{
			"buffer":0,
			"byteLength":1824,
			"byteOffset":0,
			"target":34962
		},
		{
			"buffer":0,
			"byteLength":1824,
			"byteOffset":1824,
			"target":34962
		},
		{
			"buffer":0,
			"byteLength":1216,
			"byteOffset":3648,
			"target":34962
		},
		{
			"buffer":0,
			"byteLength":2432,
			"byteOffset":4864,
			"target":34962
		},
		{
			"buffer":0,
			"byteLength":636,
			"byteOffset":7296,
			"target":34963
		},
		{
			"buffer":0,
			"byteLength":840,
			"byteOffset":7932,
			"target":34962
		},
		{
			"buffer":0,
			"byteLength":840,
			"byteOffset":8772,
			"target":34962
		},
		{
			"buffer":0,
			"byteLength":560,
			"byteOffset":9612,
			"target":34962
		},
		{
			"buffer":0,
			"byteLength":1120,
			"byteOffset":10172,
			"target":34962
		},
		{
			"buffer":0,
			"byteLength":264,
			"byteOffset":11292,
			"target":34963
		},
		{
			"buffer":0,
			"byteLength":336,
			"byteOffset":11556,
			"target":34962
		},
		{
			"buffer":0,
			"byteLength":336,
			"byteOffset":11892,
			"target":34962
		},
		{
			"buffer":0,
			"byteLength":224,
			"byteOffset":12228,
			"target":34962
		},
		{
			"buffer":0,
			"byteLength":448,
			"byteOffset":12452,
			"target":34962
		},
		{
			"buffer":0,
			"byteLength":120,
			"byteOffset":12900,
			"target":34963
		},
		{
			"buffer":0,
			"byteLength":192,
			"byteOffset":13020,
			"target":34962
		},
		{
			"buffer":0,
			"byteLength":192,
			"byteOffset":13212,
			"target":34962
		},
		{
			"buffer":0,
			"byteLength":128,
			"byteOffset":13404,
			"target":34962
		},
		{
			"buffer":0,
			"byteLength":256,
			"byteOffset":13532,
			"target":34962
		},
		{
			"buffer":0,
			"byteLength":48,
			"byteOffset":13788,
			"target":34963
		}
	],
	"buffers":[
		{
			"byteLength":13836,
			"uri":"mailbox.bin"
		}
	]
}
