{
    "asset" : {
        "generator" : "Khronos glTF Blender I/O v3.3.27",
        "version" : "2.0"
    },
    "scene" : 0,
    "scenes" : [
        {
            "name" : "Scene",
            "nodes" : [
                0,
                1,
                2,
                3,
                4,
                5,
                6,
                7,
                8,
                9,
                10,
                11,
                12,
                13,
                14,
                15
            ]
        }
    ],
    "nodes" : [
        {
            "mesh" : 0,
            "name" : "file_b2_ground1",
            "rotation" : [
                0,
                -1,
                0,
                1.6292068494294654e-07
            ],
            "scale" : [
                0.550000011920929,
                1,
                0.550000011920929
            ],
            "translation" : [
                1.5,
                0,
                1.4999998807907104
            ]
        },
        {
            "mesh" : 1,
            "name" : "file_b2_ground1.001",
            "rotation" : [
                0,
                -1,
                0,
                1.6292068494294654e-07
            ],
            "scale" : [
                0.550000011920929,
                1,
                0.550000011920929
            ],
            "translation" : [
                -1.5,
                0,
                0.5000001192092896
            ]
        },
        {
            "mesh" : 1,
            "name" : "file_b2_ground1.002",
            "rotation" : [
                0,
                -1,
                0,
                1.6292068494294654e-07
            ],
            "scale" : [
                0.550000011920929,
                1,
                0.550000011920929
            ],
            "translation" : [
                -1.5,
                0,
                -0.5
            ]
        },
        {
            "mesh" : 1,
            "name" : "file_b2_ground1.003",
            "scale" : [
                0.550000011920929,
                1,
                0.550000011920929
            ],
            "translation" : [
                -0.5,
                0,
                -0.5
            ]
        },
        {
            "mesh" : 1,
            "name" : "file_b2_ground1.004",
            "rotation" : [
                0,
                -0.7071065902709961,
                0,
                0.7071069478988647
            ],
            "scale" : [
                0.550000011920929,
                1,
                0.550000011920929
            ],
            "translation" : [
                -0.5,
                0,
                1.5
            ]
        },
        {
            "mesh" : 1,
            "name" : "file_b2_ground1.005",
            "scale" : [
                0.550000011920929,
                1,
                0.550000011920929
            ],
            "translation" : [
                0.5,
                0,
                0.5
            ]
        },
        {
            "mesh" : 1,
            "name" : "file_b2_ground1.006",
            "rotation" : [
                0,
                0.7071070671081543,
                0,
                0.7071064710617065
            ],
            "scale" : [
                0.550000011920929,
                1,
                0.550000011920929
            ],
            "translation" : [
                0.5,
                0,
                -1.5
            ]
        },
        {
            "mesh" : 1,
            "name" : "file_b2_ground1.028",
            "rotation" : [
                0,
                0.7071070671081543,
                0,
                0.7071064710617065
            ],
            "scale" : [
                0.550000011920929,
                1,
                0.550000011920929
            ],
            "translation" : [
                -0.5,
                0,
                0.5
            ]
        },
        {
            "mesh" : 2,
            "name" : "file_b2_ground2.001",
            "rotation" : [
                0,
                -1,
                0,
                1.6292068494294654e-07
            ],
            "scale" : [
                0.550000011920929,
                1,
                0.550000011920929
            ],
            "translation" : [
                1.5,
                0,
                0.5
            ]
        },
        {
            "mesh" : 3,
            "name" : "file_b2_ground3.001",
            "rotation" : [
                0,
                -1,
                0,
                1.1924880638503055e-08
            ],
            "scale" : [
                0.550000011920929,
                1,
                0.550000011920929
            ],
            "translation" : [
                -1.5,
                0,
                -1.5
            ]
        },
        {
            "mesh" : 3,
            "name" : "file_b2_ground3.002",
            "rotation" : [
                0,
                -0.7071068286895752,
                0,
                0.7071068286895752
            ],
            "scale" : [
                0.550000011920929,
                1,
                0.550000011920929
            ],
            "translation" : [
                -1.5,
                0,
                1.5
            ]
        },
        {
            "mesh" : 3,
            "name" : "file_b2_ground3.004",
            "scale" : [
                0.550000011920929,
                1,
                0.550000011920929
            ],
            "translation" : [
                1.5,
                0,
                -0.5
            ]
        },
        {
            "mesh" : 3,
            "name" : "file_b2_ground3.005",
            "rotation" : [
                0,
                0.70710688829422,
                0,
                0.7071066498756409
            ],
            "scale" : [
                0.550000011920929,
                1,
                0.550000011920929
            ],
            "translation" : [
                1.5,
                0,
                -1.5
            ]
        },
        {
            "mesh" : 3,
            "name" : "file_b2_ground3.006",
            "scale" : [
                0.550000011920929,
                1,
                0.550000011920929
            ],
            "translation" : [
                0.5,
                0,
                1.5
            ]
        },
        {
            "mesh" : 1,
            "name" : "file_b2_ground1.015",
            "rotation" : [
                0,
                0.7071070671081543,
                0,
                0.7071064710617065
            ],
            "scale" : [
                0.550000011920929,
                1,
                0.550000011920929
            ],
            "translation" : [
                -0.42509526014328003,
                0,
                -1.5
            ]
        },
        {
            "mesh" : 1,
            "name" : "file_b2_ground1.016",
            "rotation" : [
                0,
                -1,
                0,
                4.887620548288396e-07
            ],
            "scale" : [
                0.550000011920929,
                1,
                0.550000011920929
            ],
            "translation" : [
                0.5,
                0,
                -0.5
            ]
        }
    ],
    "materials" : [
        {
            "alphaMode" : "BLEND",
            "doubleSided" : true,
            "name" : "ground_plain",
            "pbrMetallicRoughness" : {
                "baseColorTexture" : {
                    "index" : 0
                }
            }
        },
        {
            "alphaMode" : "BLEND",
            "doubleSided" : true,
            "name" : "ground_mid",
            "pbrMetallicRoughness" : {
                "baseColorTexture" : {
                    "index" : 1
                }
            }
        },
        {
            "alphaMode" : "BLEND",
            "doubleSided" : true,
            "name" : "ground_manhole",
            "pbrMetallicRoughness" : {
                "baseColorTexture" : {
                    "index" : 2
                }
            }
        },
        {
            "alphaMode" : "BLEND",
            "doubleSided" : true,
            "name" : "ground_corner",
            "pbrMetallicRoughness" : {
                "baseColorTexture" : {
                    "index" : 3
                }
            }
        }
    ],
    "meshes" : [
        {
            "name" : "data\\jakob\\decals\\concrete1_1x1.cfg.002",
            "primitives" : [
                {
                    "attributes" : {
                        "POSITION" : 0,
                        "NORMAL" : 1,
                        "TANGENT" : 2,
                        "TEXCOORD_0" : 3
                    },
                    "indices" : 4,
                    "material" : 0
                }
            ]
        },
        {
            "name" : "data\\jakob\\decals\\concrete_stone_mid_1x1.cfg.008",
            "primitives" : [
                {
                    "attributes" : {
                        "POSITION" : 5,
                        "NORMAL" : 6,
                        "TANGENT" : 7,
                        "TEXCOORD_0" : 8
                    },
                    "indices" : 4,
                    "material" : 1
                }
            ]
        },
        {
            "name" : "data\\jakob\\decals\\concrete2_1x1.cfg.002",
            "primitives" : [
                {
                    "attributes" : {
                        "POSITION" : 9,
                        "NORMAL" : 10,
                        "TANGENT" : 11,
                        "TEXCOORD_0" : 12
                    },
                    "indices" : 4,
                    "material" : 2
                }
            ]
        },
        {
            "name" : "data\\jakob\\decals\\concrete_stone_corner_1x1.cfg.002",
            "primitives" : [
                {
                    "attributes" : {
                        "POSITION" : 13,
                        "NORMAL" : 14,
                        "TANGENT" : 15,
                        "TEXCOORD_0" : 16
                    },
                    "indices" : 4,
                    "material" : 3
                }
            ]
        }
    ],
    "textures" : [
        {
            "sampler" : 0,
            "source" : 0
        },
        {
            "sampler" : 0,
            "source" : 1
        },
        {
            "sampler" : 0,
            "source" : 2
        },
        {
            "sampler" : 0,
            "source" : 3
        }
    ],
    "images" : [
        {
            "mimeType" : "image/png",
            "name" : "industrial_props_system_1x1_ground_01_diff_0",
            "uri" : "industrial_props_system_1x1_ground_01_diff_0.png"
        },
        {
            "mimeType" : "image/png",
            "name" : "concrete_stone_mid_diff_0",
            "uri" : "concrete_stone_mid_diff_0.png"
        },
        {
            "mimeType" : "image/png",
            "name" : "industrial_props_system_1x1_ground_03_diff_0",
            "uri" : "industrial_props_system_1x1_ground_03_diff_0.png"
        },
        {
            "mimeType" : "image/png",
            "name" : "concrete_stone_corner_diff_0",
            "uri" : "concrete_stone_corner_diff_0.png"
        }
    ],
    "accessors" : [
        {
            "bufferView" : 0,
            "componentType" : 5126,
            "count" : 4,
            "max" : [
                1,
                0,
                1
            ],
            "min" : [
                -1,
                0,
                -1
            ],
            "type" : "VEC3"
        },
        {
            "bufferView" : 1,
            "componentType" : 5126,
            "count" : 4,
            "type" : "VEC3"
        },
        {
            "bufferView" : 2,
            "componentType" : 5126,
            "count" : 4,
            "type" : "VEC4"
        },
        {
            "bufferView" : 3,
            "componentType" : 5126,
            "count" : 4,
            "type" : "VEC2"
        },
        {
            "bufferView" : 4,
            "componentType" : 5123,
            "count" : 6,
            "type" : "SCALAR"
        },
        {
            "bufferView" : 5,
            "componentType" : 5126,
            "count" : 4,
            "max" : [
                1,
                0,
                1
            ],
            "min" : [
                -1,
                0,
                -1
            ],
            "type" : "VEC3"
        },
        {
            "bufferView" : 6,
            "componentType" : 5126,
            "count" : 4,
            "type" : "VEC3"
        },
        {
            "bufferView" : 7,
            "componentType" : 5126,
            "count" : 4,
            "type" : "VEC4"
        },
        {
            "bufferView" : 8,
            "componentType" : 5126,
            "count" : 4,
            "type" : "VEC2"
        },
        {
            "bufferView" : 9,
            "componentType" : 5126,
            "count" : 4,
            "max" : [
                1,
                0,
                1
            ],
            "min" : [
                -1,
                0,
                -1
            ],
            "type" : "VEC3"
        },
        {
            "bufferView" : 10,
            "componentType" : 5126,
            "count" : 4,
            "type" : "VEC3"
        },
        {
            "bufferView" : 11,
            "componentType" : 5126,
            "count" : 4,
            "type" : "VEC4"
        },
        {
            "bufferView" : 12,
            "componentType" : 5126,
            "count" : 4,
            "type" : "VEC2"
        },
        {
            "bufferView" : 13,
            "componentType" : 5126,
            "count" : 4,
            "max" : [
                1,
                0,
                1
            ],
            "min" : [
                -1,
                0,
                -1
            ],
            "type" : "VEC3"
        },
        {
            "bufferView" : 14,
            "componentType" : 5126,
            "count" : 4,
            "type" : "VEC3"
        },
        {
            "bufferView" : 15,
            "componentType" : 5126,
            "count" : 4,
            "type" : "VEC4"
        },
        {
            "bufferView" : 16,
            "componentType" : 5126,
            "count" : 4,
            "type" : "VEC2"
        }
    ],
    "bufferViews" : [
        {
            "buffer" : 0,
            "byteLength" : 48,
            "byteOffset" : 0,
            "target" : 34962
        },
        {
            "buffer" : 0,
            "byteLength" : 48,
            "byteOffset" : 48,
            "target" : 34962
        },
        {
            "buffer" : 0,
            "byteLength" : 64,
            "byteOffset" : 96,
            "target" : 34962
        },
        {
            "buffer" : 0,
            "byteLength" : 32,
            "byteOffset" : 160,
            "target" : 34962
        },
        {
            "buffer" : 0,
            "byteLength" : 12,
            "byteOffset" : 192,
            "target" : 34963
        },
        {
            "buffer" : 0,
            "byteLength" : 48,
            "byteOffset" : 204,
            "target" : 34962
        },
        {
            "buffer" : 0,
            "byteLength" : 48,
            "byteOffset" : 252,
            "target" : 34962
        },
        {
            "buffer" : 0,
            "byteLength" : 64,
            "byteOffset" : 300,
            "target" : 34962
        },
        {
            "buffer" : 0,
            "byteLength" : 32,
            "byteOffset" : 364,
            "target" : 34962
        },
        {
            "buffer" : 0,
            "byteLength" : 48,
            "byteOffset" : 396,
            "target" : 34962
        },
        {
            "buffer" : 0,
            "byteLength" : 48,
            "byteOffset" : 444,
            "target" : 34962
        },
        {
            "buffer" : 0,
            "byteLength" : 64,
            "byteOffset" : 492,
            "target" : 34962
        },
        {
            "buffer" : 0,
            "byteLength" : 32,
            "byteOffset" : 556,
            "target" : 34962
        },
        {
            "buffer" : 0,
            "byteLength" : 48,
            "byteOffset" : 588,
            "target" : 34962
        },
        {
            "buffer" : 0,
            "byteLength" : 48,
            "byteOffset" : 636,
            "target" : 34962
        },
        {
            "buffer" : 0,
            "byteLength" : 64,
            "byteOffset" : 684,
            "target" : 34962
        },
        {
            "buffer" : 0,
            "byteLength" : 32,
            "byteOffset" : 748,
            "target" : 34962
        }
    ],
    "samplers" : [
        {
            "magFilter" : 9729,
            "minFilter" : 9987
        }
    ],
    "buffers" : [
        {
            "byteLength" : 780,
            "uri" : "propsonly_butcher1.bin"
        }
    ]
}
