{
    "asset" : {
        "generator" : "Khronos glTF Blender I/O v3.3.27",
        "version" : "2.0"
    },
    "scene" : 0,
    "scenes" : [
        {
            "name" : "Scene",
            "nodes" : [
                0,
                1
            ]
        }
    ],
    "nodes" : [
        {
            "mesh" : 0,
            "name" : "_lod0",
            "translation" : [
                -0.6485019326210022,
                0.744909942150116,
                0.2530437707901001
            ]
        },
        {
            "mesh" : 1,
            "name" : "_2_lod0",
            "translation" : [
                0.21834400296211243,
                0.29590457677841187,
                -0.5874727964401245
            ]
        }
    ],
    "materials" : [
        {
            "name" : "f3-goulash",
            "pbrMetallicRoughness" : {
                "baseColorTexture" : {
                    "index" : 0
                }
            }
        },
        {
            "name" : "f7-butcher-extras",
            "pbrMetallicRoughness" : {
                "baseColorTexture" : {
                    "index" : 1
                }
            }
        },
        {
            "name" : "f7-butcher",
            "pbrMetallicRoughness" : {
                "baseColorTexture" : {
                    "index" : 2
                }
            }
        },
        {
            "name" : "f1-conrete",
            "pbrMetallicRoughness" : {
                "baseColorTexture" : {
                    "index" : 3
                }
            }
        },
        {
            "name" : "f5-cannery",
            "pbrMetallicRoughness" : {
                "baseColorTexture" : {
                    "index" : 4
                }
            }
        }
    ],
    "meshes" : [
        {
            "name" : "Mesh_0.196",
            "primitives" : [
                {
                    "attributes" : {
                        "POSITION" : 0,
                        "NORMAL" : 1,
                        "TEXCOORD_0" : 2
                    },
                    "indices" : 3,
                    "material" : 0
                },
                {
                    "attributes" : {
                        "POSITION" : 4,
                        "NORMAL" : 5,
                        "TEXCOORD_0" : 6
                    },
                    "indices" : 7,
                    "material" : 1
                },
                {
                    "attributes" : {
                        "POSITION" : 8,
                        "NORMAL" : 9,
                        "TEXCOORD_0" : 10
                    },
                    "indices" : 11,
                    "material" : 2
                },
                {
                    "attributes" : {
                        "POSITION" : 12,
                        "NORMAL" : 13,
                        "TEXCOORD_0" : 14
                    },
                    "indices" : 15,
                    "material" : 3
                },
                {
                    "attributes" : {
                        "POSITION" : 16,
                        "NORMAL" : 17,
                        "TEXCOORD_0" : 18
                    },
                    "indices" : 19,
                    "material" : 4
                }
            ]
        },
        {
            "name" : "Mesh_0.116",
            "primitives" : [
                {
                    "attributes" : {
                        "POSITION" : 20,
                        "NORMAL" : 21,
                        "TEXCOORD_0" : 22
                    },
                    "indices" : 23,
                    "material" : 0
                },
                {
                    "attributes" : {
                        "POSITION" : 24,
                        "NORMAL" : 25,
                        "TEXCOORD_0" : 26
                    },
                    "indices" : 27,
                    "material" : 1
                },
                {
                    "attributes" : {
                        "POSITION" : 28,
                        "NORMAL" : 29,
                        "TEXCOORD_0" : 30
                    },
                    "indices" : 31,
                    "material" : 2
                },
                {
                    "attributes" : {
                        "POSITION" : 32,
                        "NORMAL" : 33,
                        "TEXCOORD_0" : 34
                    },
                    "indices" : 35,
                    "material" : 3
                },
                {
                    "attributes" : {
                        "POSITION" : 36,
                        "NORMAL" : 37,
                        "TEXCOORD_0" : 38
                    },
                    "indices" : 39,
                    "material" : 4
                }
            ]
        }
    ],
    "textures" : [
        {
            "sampler" : 0,
            "source" : 0
        },
        {
            "sampler" : 0,
            "source" : 1
        },
        {
            "sampler" : 0,
            "source" : 2
        },
        {
            "sampler" : 0,
            "source" : 3
        },
        {
            "sampler" : 0,
            "source" : 4
        }
    ],
    "images" : [
        {
            "mimeType" : "image/png",
            "name" : "food_03_diff_0",
            "uri" : "food_03_diff_0.png"
        },
        {
            "mimeType" : "image/png",
            "name" : "food_07_props_diff_0",
            "uri" : "food_07_props_diff_0.png"
        },
        {
            "mimeType" : "image/png",
            "name" : "food_07_diff_0",
            "uri" : "food_07_diff_0.png"
        },
        {
            "mimeType" : "image/png",
            "name" : "factory_01_diff_0",
            "uri" : "factory_01_diff_0.png"
        },
        {
            "mimeType" : "image/png",
            "name" : "food_05_diff_0",
            "uri" : "food_05_diff_0.png"
        }
    ],
    "accessors" : [
        {
            "bufferView" : 0,
            "componentType" : 5126,
            "count" : 4011,
            "max" : [
                1.984555959701538,
                0.673649251461029,
                1.5366337299346924
            ],
            "min" : [
                -1.238358736038208,
                -1.5158405303955078,
                -1.9540690183639526
            ],
            "type" : "VEC3"
        },
        {
            "bufferView" : 1,
            "componentType" : 5126,
            "count" : 4011,
            "type" : "VEC3"
        },
        {
            "bufferView" : 2,
            "componentType" : 5126,
            "count" : 4011,
            "type" : "VEC2"
        },
        {
            "bufferView" : 3,
            "componentType" : 5123,
            "count" : 8637,
            "type" : "SCALAR"
        },
        {
            "bufferView" : 4,
            "componentType" : 5126,
            "count" : 3528,
            "max" : [
                2.0396816730499268,
                0.06173074245452881,
                0.03270970284938812
            ],
            "min" : [
                -0.753551185131073,
                -0.7851016521453857,
                -1.9870314598083496
            ],
            "type" : "VEC3"
        },
        {
            "bufferView" : 5,
            "componentType" : 5126,
            "count" : 3528,
            "type" : "VEC3"
        },
        {
            "bufferView" : 6,
            "componentType" : 5126,
            "count" : 3528,
            "type" : "VEC2"
        },
        {
            "bufferView" : 7,
            "componentType" : 5123,
            "count" : 8550,
            "type" : "SCALAR"
        },
        {
            "bufferView" : 8,
            "componentType" : 5126,
            "count" : 346,
            "max" : [
                0.9274291396141052,
                0.47307199239730835,
                0.15842178463935852
            ],
            "min" : [
                -0.7309345602989197,
                0.0013923048973083496,
                -0.9591259956359863
            ],
            "type" : "VEC3"
        },
        {
            "bufferView" : 9,
            "componentType" : 5126,
            "count" : 346,
            "type" : "VEC3"
        },
        {
            "bufferView" : 10,
            "componentType" : 5126,
            "count" : 346,
            "type" : "VEC2"
        },
        {
            "bufferView" : 11,
            "componentType" : 5123,
            "count" : 462,
            "type" : "SCALAR"
        },
        {
            "bufferView" : 12,
            "componentType" : 5126,
            "count" : 366,
            "max" : [
                0.9499174356460571,
                2.0179312229156494,
                1.514087438583374
            ],
            "min" : [
                -1.2021899223327637,
                -2.9583871364593506,
                -1.8528333902359009
            ],
            "type" : "VEC3"
        },
        {
            "bufferView" : 13,
            "componentType" : 5126,
            "count" : 366,
            "type" : "VEC3"
        },
        {
            "bufferView" : 14,
            "componentType" : 5126,
            "count" : 366,
            "type" : "VEC2"
        },
        {
            "bufferView" : 15,
            "componentType" : 5123,
            "count" : 891,
            "type" : "SCALAR"
        },
        {
            "bufferView" : 16,
            "componentType" : 5126,
            "count" : 60,
            "max" : [
                -0.09249795973300934,
                0.4913691580295563,
                0.9447475671768188
            ],
            "min" : [
                -0.32789793610572815,
                0.35499411821365356,
                -1.0064737796783447
            ],
            "type" : "VEC3"
        },
        {
            "bufferView" : 17,
            "componentType" : 5126,
            "count" : 60,
            "type" : "VEC3"
        },
        {
            "bufferView" : 18,
            "componentType" : 5126,
            "count" : 60,
            "type" : "VEC2"
        },
        {
            "bufferView" : 19,
            "componentType" : 5123,
            "count" : 90,
            "type" : "SCALAR"
        },
        {
            "bufferView" : 20,
            "componentType" : 5126,
            "count" : 5068,
            "max" : [
                1.5225591659545898,
                1.122654676437378,
                2.1781387329101562
            ],
            "min" : [
                -2.0275211334228516,
                -1.1078464984893799,
                -1.0256932973861694
            ],
            "type" : "VEC3"
        },
        {
            "bufferView" : 21,
            "componentType" : 5126,
            "count" : 5068,
            "type" : "VEC3"
        },
        {
            "bufferView" : 22,
            "componentType" : 5126,
            "count" : 5068,
            "type" : "VEC2"
        },
        {
            "bufferView" : 23,
            "componentType" : 5123,
            "count" : 10167,
            "type" : "SCALAR"
        },
        {
            "bufferView" : 24,
            "componentType" : 5126,
            "count" : 2580,
            "max" : [
                0.971718430519104,
                0.5107361078262329,
                1.9350265264511108
            ],
            "min" : [
                -1.6628122329711914,
                -0.33609628677368164,
                0.16500553488731384
            ],
            "type" : "VEC3"
        },
        {
            "bufferView" : 25,
            "componentType" : 5126,
            "count" : 2580,
            "type" : "VEC3"
        },
        {
            "bufferView" : 26,
            "componentType" : 5126,
            "count" : 2580,
            "type" : "VEC2"
        },
        {
            "bufferView" : 27,
            "componentType" : 5123,
            "count" : 6270,
            "type" : "SCALAR"
        },
        {
            "bufferView" : 28,
            "componentType" : 5126,
            "count" : 609,
            "max" : [
                0.021578192710876465,
                0.8824509978294373,
                2.0401272773742676
            ],
            "min" : [
                -1.7068153619766235,
                -0.2959042191505432,
                -0.9906761646270752
            ],
            "type" : "VEC3"
        },
        {
            "bufferView" : 29,
            "componentType" : 5126,
            "count" : 609,
            "type" : "VEC3"
        },
        {
            "bufferView" : 30,
            "componentType" : 5126,
            "count" : 609,
            "type" : "VEC2"
        },
        {
            "bufferView" : 31,
            "componentType" : 5123,
            "count" : 873,
            "type" : "SCALAR"
        },
        {
            "bufferView" : 32,
            "componentType" : 5126,
            "count" : 216,
            "max" : [
                0.08306610584259033,
                2.4669365882873535,
                2.0566158294677734
            ],
            "min" : [
                -1.7908873558044434,
                -1.1981024742126465,
                -1.0123168230056763
            ],
            "type" : "VEC3"
        },
        {
            "bufferView" : 33,
            "componentType" : 5126,
            "count" : 216,
            "type" : "VEC3"
        },
        {
            "bufferView" : 34,
            "componentType" : 5126,
            "count" : 216,
            "type" : "VEC2"
        },
        {
            "bufferView" : 35,
            "componentType" : 5123,
            "count" : 423,
            "type" : "SCALAR"
        },
        {
            "bufferView" : 36,
            "componentType" : 5126,
            "count" : 20,
            "max" : [
                -0.9593438506126404,
                0.9377119541168213,
                -0.06999620795249939
            ],
            "min" : [
                -1.1947438716888428,
                0.806437075138092,
                -0.6075824499130249
            ],
            "type" : "VEC3"
        },
        {
            "bufferView" : 37,
            "componentType" : 5126,
            "count" : 20,
            "type" : "VEC3"
        },
        {
            "bufferView" : 38,
            "componentType" : 5126,
            "count" : 20,
            "type" : "VEC2"
        },
        {
            "bufferView" : 39,
            "componentType" : 5123,
            "count" : 30,
            "type" : "SCALAR"
        }
    ],
    "bufferViews" : [
        {
            "buffer" : 0,
            "byteLength" : 48132,
            "byteOffset" : 0,
            "target" : 34962
        },
        {
            "buffer" : 0,
            "byteLength" : 48132,
            "byteOffset" : 48132,
            "target" : 34962
        },
        {
            "buffer" : 0,
            "byteLength" : 32088,
            "byteOffset" : 96264,
            "target" : 34962
        },
        {
            "buffer" : 0,
            "byteLength" : 17274,
            "byteOffset" : 128352,
            "target" : 34963
        },
        {
            "buffer" : 0,
            "byteLength" : 42336,
            "byteOffset" : 145628,
            "target" : 34962
        },
        {
            "buffer" : 0,
            "byteLength" : 42336,
            "byteOffset" : 187964,
            "target" : 34962
        },
        {
            "buffer" : 0,
            "byteLength" : 28224,
            "byteOffset" : 230300,
            "target" : 34962
        },
        {
            "buffer" : 0,
            "byteLength" : 17100,
            "byteOffset" : 258524,
            "target" : 34963
        },
        {
            "buffer" : 0,
            "byteLength" : 4152,
            "byteOffset" : 275624,
            "target" : 34962
        },
        {
            "buffer" : 0,
            "byteLength" : 4152,
            "byteOffset" : 279776,
            "target" : 34962
        },
        {
            "buffer" : 0,
            "byteLength" : 2768,
            "byteOffset" : 283928,
            "target" : 34962
        },
        {
            "buffer" : 0,
            "byteLength" : 924,
            "byteOffset" : 286696,
            "target" : 34963
        },
        {
            "buffer" : 0,
            "byteLength" : 4392,
            "byteOffset" : 287620,
            "target" : 34962
        },
        {
            "buffer" : 0,
            "byteLength" : 4392,
            "byteOffset" : 292012,
            "target" : 34962
        },
        {
            "buffer" : 0,
            "byteLength" : 2928,
            "byteOffset" : 296404,
            "target" : 34962
        },
        {
            "buffer" : 0,
            "byteLength" : 1782,
            "byteOffset" : 299332,
            "target" : 34963
        },
        {
            "buffer" : 0,
            "byteLength" : 720,
            "byteOffset" : 301116,
            "target" : 34962
        },
        {
            "buffer" : 0,
            "byteLength" : 720,
            "byteOffset" : 301836,
            "target" : 34962
        },
        {
            "buffer" : 0,
            "byteLength" : 480,
            "byteOffset" : 302556,
            "target" : 34962
        },
        {
            "buffer" : 0,
            "byteLength" : 180,
            "byteOffset" : 303036,
            "target" : 34963
        },
        {
            "buffer" : 0,
            "byteLength" : 60816,
            "byteOffset" : 303216,
            "target" : 34962
        },
        {
            "buffer" : 0,
            "byteLength" : 60816,
            "byteOffset" : 364032,
            "target" : 34962
        },
        {
            "buffer" : 0,
            "byteLength" : 40544,
            "byteOffset" : 424848,
            "target" : 34962
        },
        {
            "buffer" : 0,
            "byteLength" : 20334,
            "byteOffset" : 465392,
            "target" : 34963
        },
        {
            "buffer" : 0,
            "byteLength" : 30960,
            "byteOffset" : 485728,
            "target" : 34962
        },
        {
            "buffer" : 0,
            "byteLength" : 30960,
            "byteOffset" : 516688,
            "target" : 34962
        },
        {
            "buffer" : 0,
            "byteLength" : 20640,
            "byteOffset" : 547648,
            "target" : 34962
        },
        {
            "buffer" : 0,
            "byteLength" : 12540,
            "byteOffset" : 568288,
            "target" : 34963
        },
        {
            "buffer" : 0,
            "byteLength" : 7308,
            "byteOffset" : 580828,
            "target" : 34962
        },
        {
            "buffer" : 0,
            "byteLength" : 7308,
            "byteOffset" : 588136,
            "target" : 34962
        },
        {
            "buffer" : 0,
            "byteLength" : 4872,
            "byteOffset" : 595444,
            "target" : 34962
        },
        {
            "buffer" : 0,
            "byteLength" : 1746,
            "byteOffset" : 600316,
            "target" : 34963
        },
        {
            "buffer" : 0,
            "byteLength" : 2592,
            "byteOffset" : 602064,
            "target" : 34962
        },
        {
            "buffer" : 0,
            "byteLength" : 2592,
            "byteOffset" : 604656,
            "target" : 34962
        },
        {
            "buffer" : 0,
            "byteLength" : 1728,
            "byteOffset" : 607248,
            "target" : 34962
        },
        {
            "buffer" : 0,
            "byteLength" : 846,
            "byteOffset" : 608976,
            "target" : 34963
        },
        {
            "buffer" : 0,
            "byteLength" : 240,
            "byteOffset" : 609824,
            "target" : 34962
        },
        {
            "buffer" : 0,
            "byteLength" : 240,
            "byteOffset" : 610064,
            "target" : 34962
        },
        {
            "buffer" : 0,
            "byteLength" : 160,
            "byteOffset" : 610304,
            "target" : 34962
        },
        {
            "buffer" : 0,
            "byteLength" : 60,
            "byteOffset" : 610464,
            "target" : 34963
        }
    ],
    "samplers" : [
        {
            "magFilter" : 9729,
            "minFilter" : 9987
        }
    ],
    "buffers" : [
        {
            "byteLength" : 610524,
            "uri" : "sausages.bin"
        }
    ]
}
