{
    "asset" : {
        "generator" : "Khronos glTF Blender I/O v3.2.33",
        "version" : "2.0"
    },
    "scene" : 0,
    "scenes" : [
        {
            "name" : "Scene",
            "nodes" : [
                0,
                1,
                2,
                3,
                4,
                5,
                6,
                7,
                8,
                9,
                10,
                11,
                12,
                13,
                14,
                15
            ]
        }
    ],
    "nodes" : [
        {
            "mesh" : 0,
            "name" : "UnevenBlocker.007",
            "translation" : [
                0.513710618019104,
                0,
                -0.11147260665893555
            ]
        },
        {
            "mesh" : 1,
            "name" : "hitbox.007",
            "scale" : [
                0.10000000149011612,
                0.10000000149011612,
                0.10000000149011612
            ],
            "translation" : [
                -1.7051459550857544,
                0,
                0.08918988704681396
            ]
        },
        {
            "mesh" : 2,
            "name" : "FeedbackBlocker.025",
            "translation" : [
                -1.6887657642364502,
                0,
                -1.2428311109542847
            ]
        },
        {
            "mesh" : 3,
            "name" : "FeedbackBlocker.026",
            "translation" : [
                1.875,
                0,
                1
            ]
        },
        {
            "mesh" : 4,
            "name" : "FeedbackBlocker.027",
            "translation" : [
                -1.6887657642364502,
                0,
                -1.2428311109542847
            ]
        },
        {
            "mesh" : 5,
            "name" : "FeedbackBlocker.028",
            "translation" : [
                -1.6887657642364502,
                0,
                -1.2428311109542847
            ]
        },
        {
            "mesh" : 6,
            "name" : "prop_lightpost_c7_1",
            "rotation" : [
                0,
                -0.9997721910476685,
                0,
                0.021347245201468468
            ],
            "translation" : [
                1.0568008422851562,
                0,
                1.4507309198379517
            ]
        },
        {
            "name" : "particle_smoke_c7_1",
            "scale" : [
                0.4000000059604645,
                0.4000000059604645,
                0.4000000059604645
            ],
            "translation" : [
                0.14628855884075165,
                3.0928802490234375,
                -1.2222009897232056
            ]
        },
        {
            "name" : "file_street_lamp_c7_1",
            "rotation" : [
                0,
                -0.9957729578018188,
                0,
                0.09184862673282623
            ],
            "translation" : [
                1.0509438514709473,
                0,
                1.4808589220046997
            ]
        },
        {
            "mesh" : 6,
            "name" : "prop_lightpost_c7_2",
            "rotation" : [
                0,
                0.7220404744148254,
                0,
                0.6918507814407349
            ],
            "translation" : [
                1.451590657234192,
                0,
                1.0877996683120728
            ]
        },
        {
            "name" : "file_street_lamp_c7_2",
            "rotation" : [
                0,
                0.7690645456314087,
                0,
                0.6391711235046387
            ],
            "translation" : [
                1.4214627742767334,
                0,
                1.0819425582885742
            ]
        },
        {
            "name" : "particle_smoke_c7_2",
            "scale" : [
                0.4000000059604645,
                0.4000000059604645,
                0.4000000059604645
            ],
            "translation" : [
                -1.2164360284805298,
                3.1025922298431396,
                -0.10714364051818848
            ]
        },
        {
            "mesh" : 7,
            "name" : "prop_trashcan_c7_1",
            "translation" : [
                -0.7731759548187256,
                0,
                1.052666425704956
            ]
        },
        {
            "mesh" : 8,
            "name" : "prop_flowerpot_c7_1",
            "scale" : [
                0.699999988079071,
                0.699999988079071,
                0.699999988079071
            ],
            "translation" : [
                -1.4107508659362793,
                0,
                1.0187623500823975
            ]
        },
        {
            "mesh" : 9,
            "name" : "prop_pole_c7_1",
            "scale" : [
                0.800000011920929,
                0.800000011920929,
                0.800000011920929
            ],
            "translation" : [
                -1.3935213088989258,
                0,
                1.4109292030334473
            ]
        },
        {
            "mesh" : 9,
            "name" : "prop_pole_c7_2",
            "scale" : [
                0.800000011920929,
                0.800000011920929,
                0.800000011920929
            ],
            "translation" : [
                1.4289981126785278,
                0,
                -0.3089134693145752
            ]
        }
    ],
    "meshes" : [
        {
            "name" : "new_mesh.033",
            "primitives" : [
                {
                    "attributes" : {
                        "POSITION" : 0,
                        "NORMAL" : 1
                    },
                    "indices" : 2
                }
            ]
        },
        {
            "name" : "Cube.006",
            "primitives" : [
                {
                    "attributes" : {
                        "POSITION" : 3,
                        "NORMAL" : 4,
                        "TANGENT" : 5,
                        "TEXCOORD_0" : 6
                    },
                    "indices" : 7
                }
            ]
        },
        {
            "name" : "new_mesh.034",
            "primitives" : [
                {
                    "attributes" : {
                        "POSITION" : 8,
                        "NORMAL" : 9
                    },
                    "indices" : 2
                }
            ]
        },
        {
            "name" : "new_mesh.035",
            "primitives" : [
                {
                    "attributes" : {
                        "POSITION" : 10,
                        "NORMAL" : 11
                    },
                    "indices" : 2
                }
            ]
        },
        {
            "name" : "new_mesh.036",
            "primitives" : [
                {
                    "attributes" : {
                        "POSITION" : 12,
                        "NORMAL" : 13
                    },
                    "indices" : 2
                }
            ]
        },
        {
            "name" : "new_mesh.040",
            "primitives" : [
                {
                    "attributes" : {
                        "POSITION" : 14,
                        "NORMAL" : 15
                    },
                    "indices" : 2
                }
            ]
        },
        {
            "name" : "data\\graphics\\props\\lamps\\lightpost_01.prp.002",
            "primitives" : [
                {
                    "attributes" : {
                        "POSITION" : 16,
                        "NORMAL" : 17,
                        "TANGENT" : 18,
                        "TEXCOORD_0" : 19
                    },
                    "indices" : 20
                }
            ]
        },
        {
            "name" : "data\\graphics\\props\\decoration\\trashcan_02.prp.001",
            "primitives" : [
                {
                    "attributes" : {
                        "POSITION" : 21,
                        "NORMAL" : 22,
                        "TANGENT" : 23,
                        "TEXCOORD_0" : 24
                    },
                    "indices" : 25
                }
            ]
        },
        {
            "name" : "data\\graphics\\props\\decoration\\flower_pot_02.prp",
            "primitives" : [
                {
                    "attributes" : {
                        "POSITION" : 26,
                        "NORMAL" : 27,
                        "TANGENT" : 28,
                        "TEXCOORD_0" : 29
                    },
                    "indices" : 30
                }
            ]
        },
        {
            "name" : "data\\graphics\\props\\fences\\metalpole_01.prp",
            "primitives" : [
                {
                    "attributes" : {
                        "POSITION" : 31,
                        "NORMAL" : 32,
                        "TANGENT" : 33,
                        "TEXCOORD_0" : 34
                    },
                    "indices" : 35
                }
            ]
        }
    ],
    "accessors" : [
        {
            "bufferView" : 0,
            "componentType" : 5126,
            "count" : 4,
            "max" : [
                0.6656897664070129,
                0,
                1.16884446144104
            ],
            "min" : [
                -1.9523826837539673,
                0,
                -1.3212003707885742
            ],
            "type" : "VEC3"
        },
        {
            "bufferView" : 1,
            "componentType" : 5126,
            "count" : 4,
            "type" : "VEC3"
        },
        {
            "bufferView" : 2,
            "componentType" : 5123,
            "count" : 6,
            "type" : "SCALAR"
        },
        {
            "bufferView" : 3,
            "componentType" : 5126,
            "count" : 24,
            "max" : [
                26.380264282226562,
                23.134841918945312,
                8.42495059967041
            ],
            "min" : [
                2.4199743270874023,
                -1,
                -15.763786315917969
            ],
            "type" : "VEC3"
        },
        {
            "bufferView" : 4,
            "componentType" : 5126,
            "count" : 24,
            "type" : "VEC3"
        },
        {
            "bufferView" : 5,
            "componentType" : 5126,
            "count" : 24,
            "type" : "VEC4"
        },
        {
            "bufferView" : 6,
            "componentType" : 5126,
            "count" : 24,
            "type" : "VEC2"
        },
        {
            "bufferView" : 7,
            "componentType" : 5123,
            "count" : 36,
            "type" : "SCALAR"
        },
        {
            "bufferView" : 8,
            "componentType" : 5126,
            "count" : 4,
            "max" : [
                0.6737219095230103,
                0,
                0.2326139360666275
            ],
            "min" : [
                0.18858927488327026,
                0,
                -0.24798643589019775
            ],
            "type" : "VEC3"
        },
        {
            "bufferView" : 9,
            "componentType" : 5126,
            "count" : 4,
            "type" : "VEC3"
        },
        {
            "bufferView" : 10,
            "componentType" : 5126,
            "count" : 4,
            "max" : [
                -0.39931929111480713,
                0,
                0.5
            ],
            "min" : [
                -0.651335597038269,
                0,
                -2.4801552295684814
            ],
            "type" : "VEC3"
        },
        {
            "bufferView" : 11,
            "componentType" : 5126,
            "count" : 4,
            "type" : "VEC3"
        },
        {
            "bufferView" : 12,
            "componentType" : 5126,
            "count" : 4,
            "max" : [
                2.389035701751709,
                0,
                2.7531371116638184
            ],
            "min" : [
                0.18858927488327026,
                0,
                2.4529733657836914
            ],
            "type" : "VEC3"
        },
        {
            "bufferView" : 13,
            "componentType" : 5126,
            "count" : 4,
            "type" : "VEC3"
        },
        {
            "bufferView" : 14,
            "componentType" : 5126,
            "count" : 4,
            "max" : [
                0.6887657642364502,
                0,
                2.491487503051758
            ],
            "min" : [
                0.4387657642364502,
                0,
                0.24283111095428467
            ],
            "type" : "VEC3"
        },
        {
            "bufferView" : 15,
            "componentType" : 5126,
            "count" : 4,
            "type" : "VEC3"
        },
        {
            "bufferView" : 16,
            "componentType" : 5126,
            "count" : 136,
            "max" : [
                0.07452392578125,
                0.5478515625,
                0.033905029296875
            ],
            "min" : [
                -0.07452392578125,
                0,
                -0.033905029296875
            ],
            "type" : "VEC3"
        },
        {
            "bufferView" : 17,
            "componentType" : 5126,
            "count" : 136,
            "type" : "VEC3"
        },
        {
            "bufferView" : 18,
            "componentType" : 5126,
            "count" : 136,
            "type" : "VEC4"
        },
        {
            "bufferView" : 19,
            "componentType" : 5126,
            "count" : 136,
            "type" : "VEC2"
        },
        {
            "bufferView" : 20,
            "componentType" : 5123,
            "count" : 246,
            "type" : "SCALAR"
        },
        {
            "bufferView" : 21,
            "componentType" : 5126,
            "count" : 79,
            "max" : [
                0.056915283203125,
                0.1746826171875,
                0.049285888671875
            ],
            "min" : [
                -0.056915283203125,
                -0.0008945465087890625,
                -0.049285888671875
            ],
            "type" : "VEC3"
        },
        {
            "bufferView" : 22,
            "componentType" : 5126,
            "count" : 79,
            "type" : "VEC3"
        },
        {
            "bufferView" : 23,
            "componentType" : 5126,
            "count" : 79,
            "type" : "VEC4"
        },
        {
            "bufferView" : 24,
            "componentType" : 5126,
            "count" : 79,
            "type" : "VEC2"
        },
        {
            "bufferView" : 25,
            "componentType" : 5123,
            "count" : 306,
            "type" : "SCALAR"
        },
        {
            "bufferView" : 26,
            "componentType" : 5126,
            "count" : 74,
            "max" : [
                0.1109619140625,
                0.17333984375,
                0.1083984375
            ],
            "min" : [
                -0.1109619140625,
                -0.00047588348388671875,
                -0.1083984375
            ],
            "type" : "VEC3"
        },
        {
            "bufferView" : 27,
            "componentType" : 5126,
            "count" : 74,
            "type" : "VEC3"
        },
        {
            "bufferView" : 28,
            "componentType" : 5126,
            "count" : 74,
            "type" : "VEC4"
        },
        {
            "bufferView" : 29,
            "componentType" : 5126,
            "count" : 74,
            "type" : "VEC2"
        },
        {
            "bufferView" : 30,
            "componentType" : 5123,
            "count" : 258,
            "type" : "SCALAR"
        },
        {
            "bufferView" : 31,
            "componentType" : 5126,
            "count" : 60,
            "max" : [
                0.03009033203125,
                0.2244873046875,
                0.03076171875
            ],
            "min" : [
                -0.03009033203125,
                -0.0003509521484375,
                -0.0254974365234375
            ],
            "type" : "VEC3"
        },
        {
            "bufferView" : 32,
            "componentType" : 5126,
            "count" : 60,
            "type" : "VEC3"
        },
        {
            "bufferView" : 33,
            "componentType" : 5126,
            "count" : 60,
            "type" : "VEC4"
        },
        {
            "bufferView" : 34,
            "componentType" : 5126,
            "count" : 60,
            "type" : "VEC2"
        },
        {
            "bufferView" : 35,
            "componentType" : 5123,
            "count" : 219,
            "type" : "SCALAR"
        }
    ],
    "bufferViews" : [
        {
            "buffer" : 0,
            "byteLength" : 48,
            "byteOffset" : 0
        },
        {
            "buffer" : 0,
            "byteLength" : 48,
            "byteOffset" : 48
        },
        {
            "buffer" : 0,
            "byteLength" : 12,
            "byteOffset" : 96
        },
        {
            "buffer" : 0,
            "byteLength" : 288,
            "byteOffset" : 108
        },
        {
            "buffer" : 0,
            "byteLength" : 288,
            "byteOffset" : 396
        },
        {
            "buffer" : 0,
            "byteLength" : 384,
            "byteOffset" : 684
        },
        {
            "buffer" : 0,
            "byteLength" : 192,
            "byteOffset" : 1068
        },
        {
            "buffer" : 0,
            "byteLength" : 72,
            "byteOffset" : 1260
        },
        {
            "buffer" : 0,
            "byteLength" : 48,
            "byteOffset" : 1332
        },
        {
            "buffer" : 0,
            "byteLength" : 48,
            "byteOffset" : 1380
        },
        {
            "buffer" : 0,
            "byteLength" : 48,
            "byteOffset" : 1428
        },
        {
            "buffer" : 0,
            "byteLength" : 48,
            "byteOffset" : 1476
        },
        {
            "buffer" : 0,
            "byteLength" : 48,
            "byteOffset" : 1524
        },
        {
            "buffer" : 0,
            "byteLength" : 48,
            "byteOffset" : 1572
        },
        {
            "buffer" : 0,
            "byteLength" : 48,
            "byteOffset" : 1620
        },
        {
            "buffer" : 0,
            "byteLength" : 48,
            "byteOffset" : 1668
        },
        {
            "buffer" : 0,
            "byteLength" : 1632,
            "byteOffset" : 1716
        },
        {
            "buffer" : 0,
            "byteLength" : 1632,
            "byteOffset" : 3348
        },
        {
            "buffer" : 0,
            "byteLength" : 2176,
            "byteOffset" : 4980
        },
        {
            "buffer" : 0,
            "byteLength" : 1088,
            "byteOffset" : 7156
        },
        {
            "buffer" : 0,
            "byteLength" : 492,
            "byteOffset" : 8244
        },
        {
            "buffer" : 0,
            "byteLength" : 948,
            "byteOffset" : 8736
        },
        {
            "buffer" : 0,
            "byteLength" : 948,
            "byteOffset" : 9684
        },
        {
            "buffer" : 0,
            "byteLength" : 1264,
            "byteOffset" : 10632
        },
        {
            "buffer" : 0,
            "byteLength" : 632,
            "byteOffset" : 11896
        },
        {
            "buffer" : 0,
            "byteLength" : 612,
            "byteOffset" : 12528
        },
        {
            "buffer" : 0,
            "byteLength" : 888,
            "byteOffset" : 13140
        },
        {
            "buffer" : 0,
            "byteLength" : 888,
            "byteOffset" : 14028
        },
        {
            "buffer" : 0,
            "byteLength" : 1184,
            "byteOffset" : 14916
        },
        {
            "buffer" : 0,
            "byteLength" : 592,
            "byteOffset" : 16100
        },
        {
            "buffer" : 0,
            "byteLength" : 516,
            "byteOffset" : 16692
        },
        {
            "buffer" : 0,
            "byteLength" : 720,
            "byteOffset" : 17208
        },
        {
            "buffer" : 0,
            "byteLength" : 720,
            "byteOffset" : 17928
        },
        {
            "buffer" : 0,
            "byteLength" : 960,
            "byteOffset" : 18648
        },
        {
            "buffer" : 0,
            "byteLength" : 480,
            "byteOffset" : 19608
        },
        {
            "buffer" : 0,
            "byteLength" : 438,
            "byteOffset" : 20088
        }
    ],
    "buffers" : [
        {
            "byteLength" : 20528,
            "uri" : "propsonly_c7.bin"
        }
    ]
}
