{
    "asset" : {
        "generator" : "Khronos glTF Blender I/O v3.2.33",
        "version" : "2.0"
    },
    "extensionsUsed" : [
        "EXT_materials_simplygon_blender"
    ],
    "scene" : 0,
    "scenes" : [
        {
            "name" : "Scene",
            "nodes" : [
                0,
                1
            ]
        }
    ],
    "nodes" : [
        {
            "mesh" : 0,
            "name" : "_main_lod0"
        },
        {
            "mesh" : 1,
            "name" : "_props_lod0"
        }
    ],
    "materials" : [
        {
            "extensions" : {
                "EXT_materials_simplygon_blender" : {
                    "specularTexture" : [
                        null,
                        null
                    ],
                    "anisotropicTexture" : [
                        null,
                        null
                    ],
                    "clearcoatnormalTexture" : [
                        null,
                        null
                    ]
                }
            },
            "name" : "cannery",
            "pbrMetallicRoughness" : {
                "baseColorTexture" : {
                    "index" : 0
                }
            }
        }
    ],
    "meshes" : [
        {
            "name" : "Mesh_0.004",
            "primitives" : [
                {
                    "attributes" : {
                        "POSITION" : 0,
                        "NORMAL" : 1,
                        "TANGENT" : 2,
                        "TEXCOORD_0" : 3
                    },
                    "indices" : 4,
                    "material" : 0
                }
            ]
        },
        {
            "name" : "Mesh_0.001",
            "primitives" : [
                {
                    "attributes" : {
                        "POSITION" : 5,
                        "NORMAL" : 6,
                        "TANGENT" : 7,
                        "TEXCOORD_0" : 8
                    },
                    "indices" : 9,
                    "material" : 0
                }
            ]
        }
    ],
    "textures" : [
        {
            "sampler" : 0,
            "source" : 0
        }
    ],
    "images" : [
        {
            "mimeType" : "image/png",
            "name" : "food_05_diff_0",
            "uri" : "food_05_diff_0.png"
        }
    ],
    "accessors" : [
        {
            "bufferView" : 0,
            "componentType" : 5126,
            "count" : 4606,
            "max" : [
                2.125101089477539,
                3.9453125,
                1.5185519456863403
            ],
            "min" : [
                -1.7314453125,
                -0.4990234375,
                -1.9091796875
            ],
            "type" : "VEC3"
        },
        {
            "bufferView" : 1,
            "componentType" : 5126,
            "count" : 4606,
            "type" : "VEC3"
        },
        {
            "bufferView" : 2,
            "componentType" : 5126,
            "count" : 4606,
            "type" : "VEC4"
        },
        {
            "bufferView" : 3,
            "componentType" : 5126,
            "count" : 4606,
            "type" : "VEC2"
        },
        {
            "bufferView" : 4,
            "componentType" : 5123,
            "count" : 9702,
            "type" : "SCALAR"
        },
        {
            "bufferView" : 5,
            "componentType" : 5126,
            "count" : 1844,
            "max" : [
                0.415283203125,
                0.9013671875,
                2.07421875
            ],
            "min" : [
                -1.5166015625,
                -0.00034499168395996094,
                0.246826171875
            ],
            "type" : "VEC3"
        },
        {
            "bufferView" : 6,
            "componentType" : 5126,
            "count" : 1844,
            "type" : "VEC3"
        },
        {
            "bufferView" : 7,
            "componentType" : 5126,
            "count" : 1844,
            "type" : "VEC4"
        },
        {
            "bufferView" : 8,
            "componentType" : 5126,
            "count" : 1844,
            "type" : "VEC2"
        },
        {
            "bufferView" : 9,
            "componentType" : 5123,
            "count" : 6126,
            "type" : "SCALAR"
        }
    ],
    "bufferViews" : [
        {
            "buffer" : 0,
            "byteLength" : 55272,
            "byteOffset" : 0
        },
        {
            "buffer" : 0,
            "byteLength" : 55272,
            "byteOffset" : 55272
        },
        {
            "buffer" : 0,
            "byteLength" : 73696,
            "byteOffset" : 110544
        },
        {
            "buffer" : 0,
            "byteLength" : 36848,
            "byteOffset" : 184240
        },
        {
            "buffer" : 0,
            "byteLength" : 19404,
            "byteOffset" : 221088
        },
        {
            "buffer" : 0,
            "byteLength" : 22128,
            "byteOffset" : 240492
        },
        {
            "buffer" : 0,
            "byteLength" : 22128,
            "byteOffset" : 262620
        },
        {
            "buffer" : 0,
            "byteLength" : 29504,
            "byteOffset" : 284748
        },
        {
            "buffer" : 0,
            "byteLength" : 14752,
            "byteOffset" : 314252
        },
        {
            "buffer" : 0,
            "byteLength" : 12252,
            "byteOffset" : 329004
        }
    ],
    "samplers" : [
        {
            "magFilter" : 9729,
            "minFilter" : 9987
        }
    ],
    "buffers" : [
        {
            "byteLength" : 341256,
            "uri" : "cannery.bin"
        }
    ]
}
