{
    "asset" : {
        "generator" : "Khronos glTF Blender I/O v3.2.33",
        "version" : "2.0"
    },
    "extensionsUsed" : [
        "EXT_materials_simplygon_blender"
    ],
    "scene" : 0,
    "scenes" : [
        {
            "name" : "Scene",
            "nodes" : [
                0,
                1,
                2,
                3,
                4,
                5,
                6,
                7,
                8,
                9
            ]
        }
    ],
    "nodes" : [
        {
            "mesh" : 0,
            "name" : "file_ground.007",
            "rotation" : [
                0,
                -0.7071061730384827,
                0,
                0.7071073651313782
            ],
            "scale" : [
                0.550000011920929,
                1,
                0.550000011920929
            ],
            "translation" : [
                -1.5,
                0,
                1
            ]
        },
        {
            "mesh" : 1,
            "name" : "file_ground.012",
            "scale" : [
                0.550000011920929,
                1,
                0.550000011920929
            ],
            "translation" : [
                1.5,
                0,
                0.04246366024017334
            ]
        },
        {
            "mesh" : 1,
            "name" : "file_ground.020",
            "rotation" : [
                0,
                -1,
                0,
                1.2914405260744388e-06
            ],
            "scale" : [
                0.550000011920929,
                1,
                0.550000011920929
            ],
            "translation" : [
                -1.5,
                0,
                -1
            ]
        },
        {
            "mesh" : 2,
            "name" : "file_ground.028",
            "rotation" : [
                0,
                -1,
                0,
                4.887620548288396e-07
            ],
            "scale" : [
                0.550000011920929,
                1,
                0.550000011920929
            ],
            "translation" : [
                1.5,
                0,
                1
            ]
        },
        {
            "mesh" : 3,
            "name" : "file_ground.029",
            "rotation" : [
                0,
                0.7071068286895752,
                0,
                0.7071068286895752
            ],
            "scale" : [
                0.550000011920929,
                1,
                0.550000011920929
            ],
            "translation" : [
                -0.5,
                0,
                -1
            ]
        },
        {
            "mesh" : 3,
            "name" : "file_ground.030",
            "rotation" : [
                0,
                0.7071068286895752,
                0,
                0.7071068286895752
            ],
            "scale" : [
                0.550000011920929,
                1,
                0.550000011920929
            ],
            "translation" : [
                0.5,
                0,
                -1
            ]
        },
        {
            "mesh" : 3,
            "name" : "file_ground.031",
            "rotation" : [
                0,
                -1,
                0,
                1.6292068494294654e-07
            ],
            "scale" : [
                0.550000011920929,
                1,
                0.550000011920929
            ],
            "translation" : [
                -1.5,
                0,
                0
            ]
        },
        {
            "mesh" : 1,
            "name" : "file_ground.034",
            "rotation" : [
                0,
                0.707107663154602,
                0,
                0.7071058750152588
            ],
            "scale" : [
                0.550000011920929,
                1,
                0.550000011920929
            ],
            "translation" : [
                1.5,
                0,
                -1
            ]
        },
        {
            "mesh" : 3,
            "name" : "file_ground.035",
            "rotation" : [
                0,
                -0.7071068286895752,
                0,
                0.7071068286895752
            ],
            "scale" : [
                0.550000011920929,
                1,
                0.550000011920929
            ],
            "translation" : [
                -0.5,
                0,
                1
            ]
        },
        {
            "mesh" : 4,
            "name" : "file_ground.036",
            "rotation" : [
                0,
                -0.7071061730384827,
                0,
                0.7071073651313782
            ],
            "scale" : [
                0.550000011920929,
                1,
                0.550000011920929
            ],
            "translation" : [
                0.5,
                0,
                1
            ]
        }
    ],
    "materials" : [
        {
            "alphaMode" : "BLEND",
            "doubleSided" : true,
            "extensions" : {
                "EXT_materials_simplygon_blender" : {
                    "specularTexture" : [
                        null,
                        null
                    ],
                    "anisotropicTexture" : [
                        null,
                        null
                    ],
                    "clearcoatnormalTexture" : [
                        null,
                        null
                    ]
                }
            },
            "name" : "ground_corner",
            "pbrMetallicRoughness" : {
                "baseColorTexture" : {
                    "index" : 0
                }
            }
        },
        {
            "alphaMode" : "BLEND",
            "doubleSided" : true,
            "extensions" : {
                "EXT_materials_simplygon_blender" : {
                    "specularTexture" : [
                        null,
                        null
                    ],
                    "anisotropicTexture" : [
                        null,
                        null
                    ],
                    "clearcoatnormalTexture" : [
                        null,
                        null
                    ]
                }
            },
            "name" : "ground_corner3",
            "pbrMetallicRoughness" : {
                "baseColorTexture" : {
                    "index" : 1
                }
            }
        },
        {
            "alphaMode" : "BLEND",
            "doubleSided" : true,
            "extensions" : {
                "EXT_materials_simplygon_blender" : {
                    "specularTexture" : [
                        null,
                        null
                    ],
                    "anisotropicTexture" : [
                        null,
                        null
                    ],
                    "clearcoatnormalTexture" : [
                        null,
                        null
                    ]
                }
            },
            "name" : "concrete_2",
            "pbrMetallicRoughness" : {
                "baseColorTexture" : {
                    "index" : 2
                }
            }
        },
        {
            "alphaMode" : "BLEND",
            "doubleSided" : true,
            "extensions" : {
                "EXT_materials_simplygon_blender" : {
                    "specularTexture" : [
                        null,
                        null
                    ],
                    "anisotropicTexture" : [
                        null,
                        null
                    ],
                    "clearcoatnormalTexture" : [
                        null,
                        null
                    ]
                }
            },
            "name" : "ground_mid",
            "pbrMetallicRoughness" : {
                "baseColorTexture" : {
                    "index" : 3
                }
            }
        },
        {
            "alphaMode" : "BLEND",
            "doubleSided" : true,
            "extensions" : {
                "EXT_materials_simplygon_blender" : {
                    "specularTexture" : [
                        null,
                        null
                    ],
                    "anisotropicTexture" : [
                        null,
                        null
                    ],
                    "clearcoatnormalTexture" : [
                        null,
                        null
                    ]
                }
            },
            "name" : "ground_corner_thinr",
            "pbrMetallicRoughness" : {
                "baseColorTexture" : {
                    "index" : 4
                }
            }
        }
    ],
    "meshes" : [
        {
            "name" : "data\\jakob\\decals\\concrete_stone_corner_1x1.cfg.003",
            "primitives" : [
                {
                    "attributes" : {
                        "POSITION" : 0,
                        "NORMAL" : 1,
                        "TANGENT" : 2,
                        "TEXCOORD_0" : 3
                    },
                    "indices" : 4,
                    "material" : 0
                }
            ]
        },
        {
            "name" : "data\\jakob\\decals\\concrete_stone_corner3_1x1.cfg.003",
            "primitives" : [
                {
                    "attributes" : {
                        "POSITION" : 5,
                        "NORMAL" : 6,
                        "TANGENT" : 7,
                        "TEXCOORD_0" : 8
                    },
                    "indices" : 4,
                    "material" : 1
                }
            ]
        },
        {
            "name" : "data\\jakob\\decals\\concrete2_1x1.cfg.002",
            "primitives" : [
                {
                    "attributes" : {
                        "POSITION" : 9,
                        "NORMAL" : 10,
                        "TANGENT" : 11,
                        "TEXCOORD_0" : 12
                    },
                    "indices" : 4,
                    "material" : 2
                }
            ]
        },
        {
            "name" : "data\\jakob\\decals\\concrete_stone_mid_1x1.cfg.002",
            "primitives" : [
                {
                    "attributes" : {
                        "POSITION" : 13,
                        "NORMAL" : 14,
                        "TANGENT" : 15,
                        "TEXCOORD_0" : 16
                    },
                    "indices" : 4,
                    "material" : 3
                }
            ]
        },
        {
            "name" : "data\\jakob\\decals\\concrete_stone_corner_thinr_1x1.cfg.001",
            "primitives" : [
                {
                    "attributes" : {
                        "POSITION" : 17,
                        "NORMAL" : 18,
                        "TANGENT" : 19,
                        "TEXCOORD_0" : 20
                    },
                    "indices" : 4,
                    "material" : 4
                }
            ]
        }
    ],
    "textures" : [
        {
            "sampler" : 0,
            "source" : 0
        },
        {
            "sampler" : 0,
            "source" : 1
        },
        {
            "sampler" : 0,
            "source" : 2
        },
        {
            "sampler" : 0,
            "source" : 3
        },
        {
            "sampler" : 0,
            "source" : 4
        }
    ],
    "images" : [
        {
            "mimeType" : "image/png",
            "name" : "concrete_stone_corner_diff_0",
            "uri" : "concrete_stone_corner_diff_0.png"
        },
        {
            "mimeType" : "image/png",
            "name" : "concrete_stone_corner3_diff_0",
            "uri" : "concrete_stone_corner3_diff_0.png"
        },
        {
            "mimeType" : "image/png",
            "name" : "industrial_props_system_1x1_ground_03_diff_0",
            "uri" : "industrial_props_system_1x1_ground_03_diff_0.png"
        },
        {
            "mimeType" : "image/png",
            "name" : "concrete_stone_mid_diff_0",
            "uri" : "concrete_stone_mid_diff_0.png"
        },
        {
            "mimeType" : "image/png",
            "name" : "concrete_stone_corner_thinr_diff_0",
            "uri" : "concrete_stone_corner_thinr_diff_0.png"
        }
    ],
    "accessors" : [
        {
            "bufferView" : 0,
            "componentType" : 5126,
            "count" : 4,
            "max" : [
                1,
                0,
                1
            ],
            "min" : [
                -1,
                0,
                -1
            ],
            "type" : "VEC3"
        },
        {
            "bufferView" : 1,
            "componentType" : 5126,
            "count" : 4,
            "type" : "VEC3"
        },
        {
            "bufferView" : 2,
            "componentType" : 5126,
            "count" : 4,
            "type" : "VEC4"
        },
        {
            "bufferView" : 3,
            "componentType" : 5126,
            "count" : 4,
            "type" : "VEC2"
        },
        {
            "bufferView" : 4,
            "componentType" : 5123,
            "count" : 6,
            "type" : "SCALAR"
        },
        {
            "bufferView" : 5,
            "componentType" : 5126,
            "count" : 4,
            "max" : [
                1,
                0,
                1
            ],
            "min" : [
                -1,
                0,
                -1
            ],
            "type" : "VEC3"
        },
        {
            "bufferView" : 6,
            "componentType" : 5126,
            "count" : 4,
            "type" : "VEC3"
        },
        {
            "bufferView" : 7,
            "componentType" : 5126,
            "count" : 4,
            "type" : "VEC4"
        },
        {
            "bufferView" : 8,
            "componentType" : 5126,
            "count" : 4,
            "type" : "VEC2"
        },
        {
            "bufferView" : 9,
            "componentType" : 5126,
            "count" : 4,
            "max" : [
                1,
                0,
                1
            ],
            "min" : [
                -1,
                0,
                -1
            ],
            "type" : "VEC3"
        },
        {
            "bufferView" : 10,
            "componentType" : 5126,
            "count" : 4,
            "type" : "VEC3"
        },
        {
            "bufferView" : 11,
            "componentType" : 5126,
            "count" : 4,
            "type" : "VEC4"
        },
        {
            "bufferView" : 12,
            "componentType" : 5126,
            "count" : 4,
            "type" : "VEC2"
        },
        {
            "bufferView" : 13,
            "componentType" : 5126,
            "count" : 4,
            "max" : [
                1,
                0,
                1
            ],
            "min" : [
                -1,
                0,
                -1
            ],
            "type" : "VEC3"
        },
        {
            "bufferView" : 14,
            "componentType" : 5126,
            "count" : 4,
            "type" : "VEC3"
        },
        {
            "bufferView" : 15,
            "componentType" : 5126,
            "count" : 4,
            "type" : "VEC4"
        },
        {
            "bufferView" : 16,
            "componentType" : 5126,
            "count" : 4,
            "type" : "VEC2"
        },
        {
            "bufferView" : 17,
            "componentType" : 5126,
            "count" : 4,
            "max" : [
                1,
                0,
                1
            ],
            "min" : [
                -1,
                0,
                -1
            ],
            "type" : "VEC3"
        },
        {
            "bufferView" : 18,
            "componentType" : 5126,
            "count" : 4,
            "type" : "VEC3"
        },
        {
            "bufferView" : 19,
            "componentType" : 5126,
            "count" : 4,
            "type" : "VEC4"
        },
        {
            "bufferView" : 20,
            "componentType" : 5126,
            "count" : 4,
            "type" : "VEC2"
        }
    ],
    "bufferViews" : [
        {
            "buffer" : 0,
            "byteLength" : 48,
            "byteOffset" : 0
        },
        {
            "buffer" : 0,
            "byteLength" : 48,
            "byteOffset" : 48
        },
        {
            "buffer" : 0,
            "byteLength" : 64,
            "byteOffset" : 96
        },
        {
            "buffer" : 0,
            "byteLength" : 32,
            "byteOffset" : 160
        },
        {
            "buffer" : 0,
            "byteLength" : 12,
            "byteOffset" : 192
        },
        {
            "buffer" : 0,
            "byteLength" : 48,
            "byteOffset" : 204
        },
        {
            "buffer" : 0,
            "byteLength" : 48,
            "byteOffset" : 252
        },
        {
            "buffer" : 0,
            "byteLength" : 64,
            "byteOffset" : 300
        },
        {
            "buffer" : 0,
            "byteLength" : 32,
            "byteOffset" : 364
        },
        {
            "buffer" : 0,
            "byteLength" : 48,
            "byteOffset" : 396
        },
        {
            "buffer" : 0,
            "byteLength" : 48,
            "byteOffset" : 444
        },
        {
            "buffer" : 0,
            "byteLength" : 64,
            "byteOffset" : 492
        },
        {
            "buffer" : 0,
            "byteLength" : 32,
            "byteOffset" : 556
        },
        {
            "buffer" : 0,
            "byteLength" : 48,
            "byteOffset" : 588
        },
        {
            "buffer" : 0,
            "byteLength" : 48,
            "byteOffset" : 636
        },
        {
            "buffer" : 0,
            "byteLength" : 64,
            "byteOffset" : 684
        },
        {
            "buffer" : 0,
            "byteLength" : 32,
            "byteOffset" : 748
        },
        {
            "buffer" : 0,
            "byteLength" : 48,
            "byteOffset" : 780
        },
        {
            "buffer" : 0,
            "byteLength" : 48,
            "byteOffset" : 828
        },
        {
            "buffer" : 0,
            "byteLength" : 64,
            "byteOffset" : 876
        },
        {
            "buffer" : 0,
            "byteLength" : 32,
            "byteOffset" : 940
        }
    ],
    "samplers" : [
        {
            "magFilter" : 9729,
            "minFilter" : 9987
        }
    ],
    "buffers" : [
        {
            "byteLength" : 972,
            "uri" : "propsonly_bakery_b2_altground.bin"
        }
    ]
}
