{
    "asset" : {
        "generator" : "Khronos glTF Blender I/O v1.6.16",
        "version" : "2.0"
    },
    "scene" : 0,
    "scenes" : [
        {
            "name" : "Scene",
            "nodes" : [
                0,
                1,
                2,
                3,
                4,
                5,
                6,
                7,
                8,
                9,
                10,
                11,
                12,
                13,
                14,
                15
            ]
        }
    ],
    "nodes" : [
        {
            "mesh" : 0,
            "name" : "_07_01_lod0",
            "translation" : [
                -1,
                0,
                0
            ]
        },
        {
            "mesh" : 1,
            "name" : "ground"
        },
        {
            "mesh" : 2,
            "name" : "FeedbackBlocker"
        },
        {
            "mesh" : 3,
            "name" : "FeedbackBlocker.001"
        },
        {
            "mesh" : 4,
            "name" : "fc_feedback_door_0",
            "rotation" : [
                0,
                0.774723470211029,
                0,
                0.6323001980781555
            ],
            "translation" : [
                -0.028738170862197876,
                0,
                -0.8645626902580261
            ]
        },
        {
            "mesh" : 5,
            "name" : "fc_feedback_door_1",
            "rotation" : [
                0,
                -0.7040427923202515,
                0,
                0.710157573223114
            ],
            "translation" : [
                -0.012885481119155884,
                0,
                0.8748046159744263
            ]
        },
        {
            "mesh" : 6,
            "name" : "fc_feedback_trade_0",
            "rotation" : [
                0,
                0.7252212166786194,
                0,
                0.6885160207748413
            ],
            "translation" : [
                -0.3112693428993225,
                0,
                -0.8502658605575562
            ]
        },
        {
            "mesh" : 7,
            "name" : "fc_feedback_trade_1",
            "rotation" : [
                0,
                -0.6995648145675659,
                0,
                0.7145691514015198
            ],
            "translation" : [
                -0.2964531183242798,
                0,
                0.9078001379966736
            ]
        },
        {
            "name" : "particle_smoke1",
            "scale" : [
                0.5,
                0.5,
                0.5
            ],
            "translation" : [
                -0.041680872440338135,
                2.6534583568573,
                -0.3629487156867981
            ]
        },
        {
            "name" : "fc_FireDummy_0",
            "rotation" : [
                0,
                0.7071068286895752,
                0,
                0.7071068286895752
            ],
            "translation" : [
                0.19100695848464966,
                1.5250376462936401,
                -0.9558324217796326
            ]
        },
        {
            "name" : "fc_FireDummy_1",
            "rotation" : [
                0,
                0.9997189044952393,
                0,
                -0.023712724447250366
            ],
            "translation" : [
                -0.5344250202178955,
                2.0527822971343994,
                0.3286377489566803
            ]
        },
        {
            "name" : "fc_FireDummy_2",
            "rotation" : [
                0,
                -0.7071068286895752,
                0,
                0.7071068286895752
            ],
            "translation" : [
                -0.24157068133354187,
                0.9432966709136963,
                0.9443470239639282
            ]
        },
        {
            "name" : "fc_FireDummy_3",
            "rotation" : [
                0,
                0.70710688829422,
                0,
                0.7071067094802856
            ],
            "translation" : [
                -0.2712128460407257,
                0.8867242336273193,
                -0.9307653903961182
            ]
        },
        {
            "name" : "fc_FireDummy_4",
            "rotation" : [
                0,
                1,
                0,
                -2.821299744937278e-07
            ],
            "translation" : [
                0.21177884936332703,
                2.032799243927002,
                0.9618350863456726
            ]
        },
        {
            "name" : "fc_bird_land_0",
            "rotation" : [
                0,
                0.9997189044952393,
                0,
                -0.023712724447250366
            ],
            "translation" : [
                0.47104859352111816,
                2.511705160140991,
                0.4862557053565979
            ]
        },
        {
            "name" : "fc_bird_land_1",
            "rotation" : [
                0,
                0.8422746062278748,
                0,
                0.5390487313270569
            ],
            "translation" : [
                -0.06450517475605011,
                2.2378122806549072,
                -0.9209679365158081
            ]
        }
    ],
    "materials" : [
        {
            "name" : "mat_diff7",
            "pbrMetallicRoughness" : {
                "baseColorTexture" : {
                    "index" : 0
                }
            }
        },
        {
            "doubleSided" : true,
            "name" : "mat_ground",
            "pbrMetallicRoughness" : {
                "baseColorTexture" : {
                    "index" : 1
                }
            }
        }
    ],
    "meshes" : [
        {
            "name" : "Mesh_0.003",
            "primitives" : [
                {
                    "attributes" : {
                        "POSITION" : 0,
                        "NORMAL" : 1,
                        "TANGENT" : 2,
                        "TEXCOORD_0" : 3
                    },
                    "indices" : 4,
                    "material" : 0
                },
                {
                    "attributes" : {
                        "POSITION" : 5,
                        "NORMAL" : 6,
                        "TANGENT" : 7,
                        "TEXCOORD_0" : 8
                    },
                    "indices" : 9,
                    "material" : 0
                }
            ]
        },
        {
            "name" : "Plane",
            "primitives" : [
                {
                    "attributes" : {
                        "POSITION" : 10,
                        "NORMAL" : 11,
                        "TANGENT" : 12,
                        "TEXCOORD_0" : 13
                    },
                    "indices" : 14,
                    "material" : 1
                }
            ]
        },
        {
            "name" : "Plane.012",
            "primitives" : [
                {
                    "attributes" : {
                        "POSITION" : 15,
                        "NORMAL" : 16,
                        "TANGENT" : 17,
                        "TEXCOORD_0" : 18
                    },
                    "indices" : 14
                }
            ]
        },
        {
            "name" : "Plane.001",
            "primitives" : [
                {
                    "attributes" : {
                        "POSITION" : 19,
                        "NORMAL" : 20,
                        "TANGENT" : 21,
                        "TEXCOORD_0" : 22
                    },
                    "indices" : 14
                }
            ]
        },
        {
            "name" : "Cube.008",
            "primitives" : [
                {
                    "attributes" : {
                        "POSITION" : 23,
                        "NORMAL" : 24,
                        "TANGENT" : 25,
                        "TEXCOORD_0" : 26
                    },
                    "indices" : 27
                }
            ]
        },
        {
            "name" : "Cube.010",
            "primitives" : [
                {
                    "attributes" : {
                        "POSITION" : 28,
                        "NORMAL" : 29,
                        "TANGENT" : 30,
                        "TEXCOORD_0" : 31
                    },
                    "indices" : 27
                }
            ]
        },
        {
            "name" : "Cube.012",
            "primitives" : [
                {
                    "attributes" : {
                        "POSITION" : 32,
                        "NORMAL" : 33,
                        "TANGENT" : 34,
                        "TEXCOORD_0" : 35
                    },
                    "indices" : 27
                }
            ]
        },
        {
            "name" : "Cube.011",
            "primitives" : [
                {
                    "attributes" : {
                        "POSITION" : 36,
                        "NORMAL" : 37,
                        "TANGENT" : 38,
                        "TEXCOORD_0" : 39
                    },
                    "indices" : 27
                }
            ]
        }
    ],
    "textures" : [
        {
            "sampler" : 0,
            "source" : 0
        },
        {
            "sampler" : 0,
            "source" : 1
        }
    ],
    "images" : [
        {
            "mimeType" : "image/png",
            "name" : "residence_tier04_07_diff_0",
            "uri" : "residence_tier04_07_diff_0.png"
        },
        {
            "mimeType" : "image/png",
            "name" : "3x1_ground_diff",
            "uri" : "3x1_ground_diff.png"
        }
    ],
    "accessors" : [
        {
            "bufferView" : 0,
            "componentType" : 5126,
            "count" : 2619,
            "max" : [
                1.5341796875,
                2.66796875,
                1.162109375
            ],
            "min" : [
                0.4287109375,
                -0.300048828125,
                -1.162109375
            ],
            "type" : "VEC3"
        },
        {
            "bufferView" : 1,
            "componentType" : 5126,
            "count" : 2619,
            "type" : "VEC3"
        },
        {
            "bufferView" : 2,
            "componentType" : 5126,
            "count" : 2619,
            "type" : "VEC4"
        },
        {
            "bufferView" : 3,
            "componentType" : 5126,
            "count" : 2619,
            "type" : "VEC2"
        },
        {
            "bufferView" : 4,
            "componentType" : 5123,
            "count" : 5205,
            "type" : "SCALAR"
        },
        {
            "bufferView" : 5,
            "componentType" : 5126,
            "count" : 118,
            "max" : [
                1.4287109375,
                2.48046875,
                0.98046875
            ],
            "min" : [
                0.5341796875,
                1.93359375,
                -0.98046875
            ],
            "type" : "VEC3"
        },
        {
            "bufferView" : 6,
            "componentType" : 5126,
            "count" : 118,
            "type" : "VEC3"
        },
        {
            "bufferView" : 7,
            "componentType" : 5126,
            "count" : 118,
            "type" : "VEC4"
        },
        {
            "bufferView" : 8,
            "componentType" : 5126,
            "count" : 118,
            "type" : "VEC2"
        },
        {
            "bufferView" : 9,
            "componentType" : 5123,
            "count" : 222,
            "type" : "SCALAR"
        },
        {
            "bufferView" : 10,
            "componentType" : 5126,
            "count" : 4,
            "max" : [
                0.5,
                0,
                1.5
            ],
            "min" : [
                -0.5,
                0,
                -1.5
            ],
            "type" : "VEC3"
        },
        {
            "bufferView" : 11,
            "componentType" : 5126,
            "count" : 4,
            "type" : "VEC3"
        },
        {
            "bufferView" : 12,
            "componentType" : 5126,
            "count" : 4,
            "type" : "VEC4"
        },
        {
            "bufferView" : 13,
            "componentType" : 5126,
            "count" : 4,
            "type" : "VEC2"
        },
        {
            "bufferView" : 14,
            "componentType" : 5123,
            "count" : 6,
            "type" : "SCALAR"
        },
        {
            "bufferView" : 15,
            "componentType" : 5126,
            "count" : 4,
            "max" : [
                0.5,
                0,
                -1
            ],
            "min" : [
                -0.5,
                0,
                -1.5
            ],
            "type" : "VEC3"
        },
        {
            "bufferView" : 16,
            "componentType" : 5126,
            "count" : 4,
            "type" : "VEC3"
        },
        {
            "bufferView" : 17,
            "componentType" : 5126,
            "count" : 4,
            "type" : "VEC4"
        },
        {
            "bufferView" : 18,
            "componentType" : 5126,
            "count" : 4,
            "type" : "VEC2"
        },
        {
            "bufferView" : 19,
            "componentType" : 5126,
            "count" : 4,
            "max" : [
                0.5,
                0,
                1.5
            ],
            "min" : [
                -0.5,
                0,
                1
            ],
            "type" : "VEC3"
        },
        {
            "bufferView" : 20,
            "componentType" : 5126,
            "count" : 4,
            "type" : "VEC3"
        },
        {
            "bufferView" : 21,
            "componentType" : 5126,
            "count" : 4,
            "type" : "VEC4"
        },
        {
            "bufferView" : 22,
            "componentType" : 5126,
            "count" : 4,
            "type" : "VEC2"
        },
        {
            "bufferView" : 23,
            "componentType" : 5126,
            "count" : 24,
            "max" : [
                0.11087822914123535,
                0.08270454406738281,
                0.09507465362548828
            ],
            "min" : [
                -0.11087822914123535,
                -0.08270454406738281,
                -0.09507465362548828
            ],
            "type" : "VEC3"
        },
        {
            "bufferView" : 24,
            "componentType" : 5126,
            "count" : 24,
            "type" : "VEC3"
        },
        {
            "bufferView" : 25,
            "componentType" : 5126,
            "count" : 24,
            "type" : "VEC4"
        },
        {
            "bufferView" : 26,
            "componentType" : 5126,
            "count" : 24,
            "type" : "VEC2"
        },
        {
            "bufferView" : 27,
            "componentType" : 5123,
            "count" : 36,
            "type" : "SCALAR"
        },
        {
            "bufferView" : 28,
            "componentType" : 5126,
            "count" : 24,
            "max" : [
                0.11087822914123535,
                0.08270454406738281,
                0.09507465362548828
            ],
            "min" : [
                -0.11087822914123535,
                -0.08270454406738281,
                -0.09507465362548828
            ],
            "type" : "VEC3"
        },
        {
            "bufferView" : 29,
            "componentType" : 5126,
            "count" : 24,
            "type" : "VEC3"
        },
        {
            "bufferView" : 30,
            "componentType" : 5126,
            "count" : 24,
            "type" : "VEC4"
        },
        {
            "bufferView" : 31,
            "componentType" : 5126,
            "count" : 24,
            "type" : "VEC2"
        },
        {
            "bufferView" : 32,
            "componentType" : 5126,
            "count" : 24,
            "max" : [
                0.11087822914123535,
                0.08270454406738281,
                0.09507465362548828
            ],
            "min" : [
                -0.11087822914123535,
                -0.08270454406738281,
                -0.09507465362548828
            ],
            "type" : "VEC3"
        },
        {
            "bufferView" : 33,
            "componentType" : 5126,
            "count" : 24,
            "type" : "VEC3"
        },
        {
            "bufferView" : 34,
            "componentType" : 5126,
            "count" : 24,
            "type" : "VEC4"
        },
        {
            "bufferView" : 35,
            "componentType" : 5126,
            "count" : 24,
            "type" : "VEC2"
        },
        {
            "bufferView" : 36,
            "componentType" : 5126,
            "count" : 24,
            "max" : [
                0.11087822914123535,
                0.08270454406738281,
                0.09507465362548828
            ],
            "min" : [
                -0.11087822914123535,
                -0.08270454406738281,
                -0.09507465362548828
            ],
            "type" : "VEC3"
        },
        {
            "bufferView" : 37,
            "componentType" : 5126,
            "count" : 24,
            "type" : "VEC3"
        },
        {
            "bufferView" : 38,
            "componentType" : 5126,
            "count" : 24,
            "type" : "VEC4"
        },
        {
            "bufferView" : 39,
            "componentType" : 5126,
            "count" : 24,
            "type" : "VEC2"
        }
    ],
    "bufferViews" : [
        {
            "buffer" : 0,
            "byteLength" : 31428,
            "byteOffset" : 0
        },
        {
            "buffer" : 0,
            "byteLength" : 31428,
            "byteOffset" : 31428
        },
        {
            "buffer" : 0,
            "byteLength" : 41904,
            "byteOffset" : 62856
        },
        {
            "buffer" : 0,
            "byteLength" : 20952,
            "byteOffset" : 104760
        },
        {
            "buffer" : 0,
            "byteLength" : 10410,
            "byteOffset" : 125712
        },
        {
            "buffer" : 0,
            "byteLength" : 1416,
            "byteOffset" : 136124
        },
        {
            "buffer" : 0,
            "byteLength" : 1416,
            "byteOffset" : 137540
        },
        {
            "buffer" : 0,
            "byteLength" : 1888,
            "byteOffset" : 138956
        },
        {
            "buffer" : 0,
            "byteLength" : 944,
            "byteOffset" : 140844
        },
        {
            "buffer" : 0,
            "byteLength" : 444,
            "byteOffset" : 141788
        },
        {
            "buffer" : 0,
            "byteLength" : 48,
            "byteOffset" : 142232
        },
        {
            "buffer" : 0,
            "byteLength" : 48,
            "byteOffset" : 142280
        },
        {
            "buffer" : 0,
            "byteLength" : 64,
            "byteOffset" : 142328
        },
        {
            "buffer" : 0,
            "byteLength" : 32,
            "byteOffset" : 142392
        },
        {
            "buffer" : 0,
            "byteLength" : 12,
            "byteOffset" : 142424
        },
        {
            "buffer" : 0,
            "byteLength" : 48,
            "byteOffset" : 142436
        },
        {
            "buffer" : 0,
            "byteLength" : 48,
            "byteOffset" : 142484
        },
        {
            "buffer" : 0,
            "byteLength" : 64,
            "byteOffset" : 142532
        },
        {
            "buffer" : 0,
            "byteLength" : 32,
            "byteOffset" : 142596
        },
        {
            "buffer" : 0,
            "byteLength" : 48,
            "byteOffset" : 142628
        },
        {
            "buffer" : 0,
            "byteLength" : 48,
            "byteOffset" : 142676
        },
        {
            "buffer" : 0,
            "byteLength" : 64,
            "byteOffset" : 142724
        },
        {
            "buffer" : 0,
            "byteLength" : 32,
            "byteOffset" : 142788
        },
        {
            "buffer" : 0,
            "byteLength" : 288,
            "byteOffset" : 142820
        },
        {
            "buffer" : 0,
            "byteLength" : 288,
            "byteOffset" : 143108
        },
        {
            "buffer" : 0,
            "byteLength" : 384,
            "byteOffset" : 143396
        },
        {
            "buffer" : 0,
            "byteLength" : 192,
            "byteOffset" : 143780
        },
        {
            "buffer" : 0,
            "byteLength" : 72,
            "byteOffset" : 143972
        },
        {
            "buffer" : 0,
            "byteLength" : 288,
            "byteOffset" : 144044
        },
        {
            "buffer" : 0,
            "byteLength" : 288,
            "byteOffset" : 144332
        },
        {
            "buffer" : 0,
            "byteLength" : 384,
            "byteOffset" : 144620
        },
        {
            "buffer" : 0,
            "byteLength" : 192,
            "byteOffset" : 145004
        },
        {
            "buffer" : 0,
            "byteLength" : 288,
            "byteOffset" : 145196
        },
        {
            "buffer" : 0,
            "byteLength" : 288,
            "byteOffset" : 145484
        },
        {
            "buffer" : 0,
            "byteLength" : 384,
            "byteOffset" : 145772
        },
        {
            "buffer" : 0,
            "byteLength" : 192,
            "byteOffset" : 146156
        },
        {
            "buffer" : 0,
            "byteLength" : 288,
            "byteOffset" : 146348
        },
        {
            "buffer" : 0,
            "byteLength" : 288,
            "byteOffset" : 146636
        },
        {
            "buffer" : 0,
            "byteLength" : 384,
            "byteOffset" : 146924
        },
        {
            "buffer" : 0,
            "byteLength" : 192,
            "byteOffset" : 147308
        }
    ],
    "samplers" : [
        {
            "magFilter" : 9729,
            "minFilter" : 9987
        }
    ],
    "buffers" : [
        {
            "byteLength" : 147500,
            "uri" : "3x1.bin"
        }
    ]
}
