{
    "asset" : {
        "generator" : "Khronos glTF Blender I/O v1.6.16",
        "version" : "2.0"
    },
    "scene" : 0,
    "scenes" : [
        {
            "name" : "Scene",
            "nodes" : [
                0
            ]
        }
    ],
    "nodes" : [
        {
            "mesh" : 0,
            "name" : "_lod0",
            "rotation" : [
                0,
                -0.9330602288246155,
                0,
                0.3597203195095062
            ],
            "translation" : [
                -1.2696622610092163,
                0.1632082462310791,
                1.1090673208236694
            ]
        }
    ],
    "materials" : [
        {
            "name" : "mat_kontor",
            "pbrMetallicRoughness" : {
                "baseColorTexture" : {
                    "index" : 0
                }
            }
        },
        {
            "name" : "mat_props",
            "pbrMetallicRoughness" : {
                "baseColorTexture" : {
                    "index" : 1
                }
            }
        },
        {
            "name" : "mat_sunshades_1",
            "pbrMetallicRoughness" : {
                "baseColorTexture" : {
                    "index" : 2
                }
            }
        },
        {
            "name" : "mat_sunshades_2",
            "pbrMetallicRoughness" : {
                "baseColorTexture" : {
                    "index" : 3
                }
            }
        }
    ],
    "meshes" : [
        {
            "name" : "Mesh_0.035",
            "primitives" : [
                {
                    "attributes" : {
                        "POSITION" : 0,
                        "NORMAL" : 1,
                        "TANGENT" : 2,
                        "TEXCOORD_0" : 3
                    },
                    "indices" : 4,
                    "material" : 0
                },
                {
                    "attributes" : {
                        "POSITION" : 5,
                        "NORMAL" : 6,
                        "TANGENT" : 7,
                        "TEXCOORD_0" : 8
                    },
                    "indices" : 9,
                    "material" : 1
                },
                {
                    "attributes" : {
                        "POSITION" : 10,
                        "NORMAL" : 11,
                        "TANGENT" : 12,
                        "TEXCOORD_0" : 13
                    },
                    "indices" : 14,
                    "material" : 2
                },
                {
                    "attributes" : {
                        "POSITION" : 15,
                        "NORMAL" : 16,
                        "TANGENT" : 17,
                        "TEXCOORD_0" : 18
                    },
                    "indices" : 19,
                    "material" : 3
                }
            ]
        }
    ],
    "textures" : [
        {
            "sampler" : 0,
            "source" : 0
        },
        {
            "sampler" : 0,
            "source" : 1
        },
        {
            "sampler" : 0,
            "source" : 2
        },
        {
            "sampler" : 0,
            "source" : 3
        }
    ],
    "images" : [
        {
            "mimeType" : "image/png",
            "name" : "community_center_diff",
            "uri" : "community_center_diff.png"
        },
        {
            "mimeType" : "image/png",
            "name" : "props_diff_0",
            "uri" : "props_diff_0.png"
        },
        {
            "mimeType" : "image/png",
            "name" : "sunshades_diff_0",
            "uri" : "sunshades_diff_0.png"
        },
        {
            "mimeType" : "image/png",
            "name" : "sunshades_diff_v2_0",
            "uri" : "sunshades_diff_v2_0.png"
        }
    ],
    "accessors" : [
        {
            "bufferView" : 0,
            "componentType" : 5126,
            "count" : 5303,
            "max" : [
                -0.021340370178222656,
                2.5298290252685547,
                1.6339753866195679
            ],
            "min" : [
                -3.3498053550720215,
                -0.6634544730186462,
                -1.6944891214370728
            ],
            "type" : "VEC3"
        },
        {
            "bufferView" : 1,
            "componentType" : 5126,
            "count" : 5303,
            "type" : "VEC3"
        },
        {
            "bufferView" : 2,
            "componentType" : 5126,
            "count" : 5303,
            "type" : "VEC4"
        },
        {
            "bufferView" : 3,
            "componentType" : 5126,
            "count" : 5303,
            "type" : "VEC2"
        },
        {
            "bufferView" : 4,
            "componentType" : 5123,
            "count" : 10812,
            "type" : "SCALAR"
        },
        {
            "bufferView" : 5,
            "componentType" : 5126,
            "count" : 3201,
            "max" : [
                0.3496699631214142,
                0.11267057061195374,
                0.897135853767395
            ],
            "min" : [
                -3.6038031578063965,
                -0.2621575891971588,
                -2.067338466644287
            ],
            "type" : "VEC3"
        },
        {
            "bufferView" : 6,
            "componentType" : 5126,
            "count" : 3201,
            "type" : "VEC3"
        },
        {
            "bufferView" : 7,
            "componentType" : 5126,
            "count" : 3201,
            "type" : "VEC4"
        },
        {
            "bufferView" : 8,
            "componentType" : 5126,
            "count" : 3201,
            "type" : "VEC2"
        },
        {
            "bufferView" : 9,
            "componentType" : 5123,
            "count" : 9954,
            "type" : "SCALAR"
        },
        {
            "bufferView" : 10,
            "componentType" : 5126,
            "count" : 424,
            "max" : [
                0.3350215256214142,
                0.4388425350189209,
                0.6298647522926331
            ],
            "min" : [
                -3.5704145431518555,
                -0.2274123877286911,
                -1.9713287353515625
            ],
            "type" : "VEC3"
        },
        {
            "bufferView" : 11,
            "componentType" : 5126,
            "count" : 424,
            "type" : "VEC3"
        },
        {
            "bufferView" : 12,
            "componentType" : 5126,
            "count" : 424,
            "type" : "VEC4"
        },
        {
            "bufferView" : 13,
            "componentType" : 5126,
            "count" : 424,
            "type" : "VEC2"
        },
        {
            "bufferView" : 14,
            "componentType" : 5123,
            "count" : 1026,
            "type" : "SCALAR"
        },
        {
            "bufferView" : 15,
            "componentType" : 5126,
            "count" : 125,
            "max" : [
                0.4180293381214142,
                0.3983953893184662,
                0.9243788123130798
            ],
            "min" : [
                -3.297658681869507,
                0.186725452542305,
                -1.754148006439209
            ],
            "type" : "VEC3"
        },
        {
            "bufferView" : 16,
            "componentType" : 5126,
            "count" : 125,
            "type" : "VEC3"
        },
        {
            "bufferView" : 17,
            "componentType" : 5126,
            "count" : 125,
            "type" : "VEC4"
        },
        {
            "bufferView" : 18,
            "componentType" : 5126,
            "count" : 125,
            "type" : "VEC2"
        },
        {
            "bufferView" : 19,
            "componentType" : 5123,
            "count" : 516,
            "type" : "SCALAR"
        }
    ],
    "bufferViews" : [
        {
            "buffer" : 0,
            "byteLength" : 63636,
            "byteOffset" : 0
        },
        {
            "buffer" : 0,
            "byteLength" : 63636,
            "byteOffset" : 63636
        },
        {
            "buffer" : 0,
            "byteLength" : 84848,
            "byteOffset" : 127272
        },
        {
            "buffer" : 0,
            "byteLength" : 42424,
            "byteOffset" : 212120
        },
        {
            "buffer" : 0,
            "byteLength" : 21624,
            "byteOffset" : 254544
        },
        {
            "buffer" : 0,
            "byteLength" : 38412,
            "byteOffset" : 276168
        },
        {
            "buffer" : 0,
            "byteLength" : 38412,
            "byteOffset" : 314580
        },
        {
            "buffer" : 0,
            "byteLength" : 51216,
            "byteOffset" : 352992
        },
        {
            "buffer" : 0,
            "byteLength" : 25608,
            "byteOffset" : 404208
        },
        {
            "buffer" : 0,
            "byteLength" : 19908,
            "byteOffset" : 429816
        },
        {
            "buffer" : 0,
            "byteLength" : 5088,
            "byteOffset" : 449724
        },
        {
            "buffer" : 0,
            "byteLength" : 5088,
            "byteOffset" : 454812
        },
        {
            "buffer" : 0,
            "byteLength" : 6784,
            "byteOffset" : 459900
        },
        {
            "buffer" : 0,
            "byteLength" : 3392,
            "byteOffset" : 466684
        },
        {
            "buffer" : 0,
            "byteLength" : 2052,
            "byteOffset" : 470076
        },
        {
            "buffer" : 0,
            "byteLength" : 1500,
            "byteOffset" : 472128
        },
        {
            "buffer" : 0,
            "byteLength" : 1500,
            "byteOffset" : 473628
        },
        {
            "buffer" : 0,
            "byteLength" : 2000,
            "byteOffset" : 475128
        },
        {
            "buffer" : 0,
            "byteLength" : 1000,
            "byteOffset" : 477128
        },
        {
            "buffer" : 0,
            "byteLength" : 1032,
            "byteOffset" : 478128
        }
    ],
    "samplers" : [
        {
            "magFilter" : 9729,
            "minFilter" : 9987
        }
    ],
    "buffers" : [
        {
            "byteLength" : 479160,
            "uri" : "community_center.bin"
        }
    ]
}
