{
    "asset" : {
        "generator" : "Khronos glTF Blender I/O v1.6.16",
        "version" : "2.0"
    },
    "scene" : 0,
    "scenes" : [
        {
            "name" : "Scene",
            "nodes" : [
                0,
                1,
                2,
                3
            ]
        }
    ],
    "nodes" : [
        {
            "mesh" : 0,
            "name" : "_crate_0_lod0"
        },
        {
            "mesh" : 1,
            "name" : "_crate_1_lod0"
        },
        {
            "mesh" : 2,
            "name" : "_milk_can_lod0"
        },
        {
            "mesh" : 3,
            "name" : "_cheese_lod0"
        }
    ],
    "materials" : [
        {
            "name" : "mat_planter",
            "pbrMetallicRoughness" : {
                "baseColorTexture" : {
                    "index" : 0
                }
            }
        },
        {
            "name" : "mat_atlas",
            "pbrMetallicRoughness" : {
                "baseColorTexture" : {
                    "index" : 1
                }
            }
        }
    ],
    "meshes" : [
        {
            "name" : "Mesh_0",
            "primitives" : [
                {
                    "attributes" : {
                        "POSITION" : 0,
                        "NORMAL" : 1,
                        "TANGENT" : 2,
                        "TEXCOORD_0" : 3
                    },
                    "indices" : 4,
                    "material" : 0
                },
                {
                    "attributes" : {
                        "POSITION" : 5,
                        "NORMAL" : 6,
                        "TANGENT" : 7,
                        "TEXCOORD_0" : 8
                    },
                    "indices" : 9,
                    "material" : 1
                }
            ]
        },
        {
            "name" : "Mesh_0.001",
            "primitives" : [
                {
                    "attributes" : {
                        "POSITION" : 10,
                        "NORMAL" : 11,
                        "TANGENT" : 12,
                        "TEXCOORD_0" : 13
                    },
                    "indices" : 14,
                    "material" : 0
                },
                {
                    "attributes" : {
                        "POSITION" : 15,
                        "NORMAL" : 16,
                        "TANGENT" : 17,
                        "TEXCOORD_0" : 18
                    },
                    "indices" : 19,
                    "material" : 1
                }
            ]
        },
        {
            "name" : "Circle",
            "primitives" : [
                {
                    "attributes" : {
                        "POSITION" : 20,
                        "NORMAL" : 21,
                        "TEXCOORD_0" : 22
                    },
                    "indices" : 23,
                    "material" : 0
                }
            ]
        },
        {
            "name" : "Circle.001",
            "primitives" : [
                {
                    "attributes" : {
                        "POSITION" : 24,
                        "NORMAL" : 25,
                        "TANGENT" : 26,
                        "TEXCOORD_0" : 27
                    },
                    "indices" : 28,
                    "material" : 0
                }
            ]
        }
    ],
    "textures" : [
        {
            "sampler" : 0,
            "source" : 0
        },
        {
            "sampler" : 0,
            "source" : 0
        }
    ],
    "images" : [
        {
            "mimeType" : "image/png",
            "name" : "props_diff",
            "uri" : "props_diff.png"
        }
    ],
    "accessors" : [
        {
            "bufferView" : 0,
            "componentType" : 5126,
            "count" : 27,
            "max" : [
                0.225341796875,
                0.202392578125,
                0.1177978515625
            ],
            "min" : [
                -0.2332763671875,
                0.08489990234375,
                -0.11041259765625
            ],
            "type" : "VEC3"
        },
        {
            "bufferView" : 1,
            "componentType" : 5126,
            "count" : 27,
            "type" : "VEC3"
        },
        {
            "bufferView" : 2,
            "componentType" : 5126,
            "count" : 27,
            "type" : "VEC4"
        },
        {
            "bufferView" : 3,
            "componentType" : 5126,
            "count" : 27,
            "type" : "VEC2"
        },
        {
            "bufferView" : 4,
            "componentType" : 5123,
            "count" : 108,
            "type" : "SCALAR"
        },
        {
            "bufferView" : 5,
            "componentType" : 5126,
            "count" : 252,
            "max" : [
                0.2425537109375,
                0.2113037109375,
                0.125244140625
            ],
            "min" : [
                -0.2425537109375,
                -0.0006718635559082031,
                -0.125244140625
            ],
            "type" : "VEC3"
        },
        {
            "bufferView" : 6,
            "componentType" : 5126,
            "count" : 252,
            "type" : "VEC3"
        },
        {
            "bufferView" : 7,
            "componentType" : 5126,
            "count" : 252,
            "type" : "VEC4"
        },
        {
            "bufferView" : 8,
            "componentType" : 5126,
            "count" : 252,
            "type" : "VEC2"
        },
        {
            "bufferView" : 9,
            "componentType" : 5123,
            "count" : 378,
            "type" : "SCALAR"
        },
        {
            "bufferView" : 10,
            "componentType" : 5126,
            "count" : 27,
            "max" : [
                0.1612548828125,
                0.1431884765625,
                0.12286376953125
            ],
            "min" : [
                -0.1612548828125,
                0.045135498046875,
                -0.12286376953125
            ],
            "type" : "VEC3"
        },
        {
            "bufferView" : 11,
            "componentType" : 5126,
            "count" : 27,
            "type" : "VEC3"
        },
        {
            "bufferView" : 12,
            "componentType" : 5126,
            "count" : 27,
            "type" : "VEC4"
        },
        {
            "bufferView" : 13,
            "componentType" : 5126,
            "count" : 27,
            "type" : "VEC2"
        },
        {
            "bufferView" : 14,
            "componentType" : 5123,
            "count" : 108,
            "type" : "SCALAR"
        },
        {
            "bufferView" : 15,
            "componentType" : 5126,
            "count" : 160,
            "max" : [
                0.1697998046875,
                0.1522216796875,
                0.130859375
            ],
            "min" : [
                -0.1697998046875,
                -0.00030303001403808594,
                -0.1307373046875
            ],
            "type" : "VEC3"
        },
        {
            "bufferView" : 16,
            "componentType" : 5126,
            "count" : 160,
            "type" : "VEC3"
        },
        {
            "bufferView" : 17,
            "componentType" : 5126,
            "count" : 160,
            "type" : "VEC4"
        },
        {
            "bufferView" : 18,
            "componentType" : 5126,
            "count" : 160,
            "type" : "VEC2"
        },
        {
            "bufferView" : 19,
            "componentType" : 5123,
            "count" : 240,
            "type" : "SCALAR"
        },
        {
            "bufferView" : 20,
            "componentType" : 5126,
            "count" : 156,
            "max" : [
                0.05694906786084175,
                0.1751425713300705,
                0.05694912001490593
            ],
            "min" : [
                -0.05694912374019623,
                -0.000569559633731842,
                -0.05694907158613205
            ],
            "type" : "VEC3"
        },
        {
            "bufferView" : 21,
            "componentType" : 5126,
            "count" : 156,
            "type" : "VEC3"
        },
        {
            "bufferView" : 22,
            "componentType" : 5126,
            "count" : 156,
            "type" : "VEC2"
        },
        {
            "bufferView" : 23,
            "componentType" : 5123,
            "count" : 246,
            "type" : "SCALAR"
        },
        {
            "bufferView" : 24,
            "componentType" : 5126,
            "count" : 246,
            "max" : [
                0.06513303518295288,
                0.0503508523106575,
                0.06513309478759766
            ],
            "min" : [
                -0.06513308733701706,
                -0.000569559633731842,
                -0.06513303518295288
            ],
            "type" : "VEC3"
        },
        {
            "bufferView" : 25,
            "componentType" : 5126,
            "count" : 246,
            "type" : "VEC3"
        },
        {
            "bufferView" : 26,
            "componentType" : 5126,
            "count" : 246,
            "type" : "VEC4"
        },
        {
            "bufferView" : 27,
            "componentType" : 5126,
            "count" : 246,
            "type" : "VEC2"
        },
        {
            "bufferView" : 28,
            "componentType" : 5123,
            "count" : 246,
            "type" : "SCALAR"
        }
    ],
    "bufferViews" : [
        {
            "buffer" : 0,
            "byteLength" : 324,
            "byteOffset" : 0
        },
        {
            "buffer" : 0,
            "byteLength" : 324,
            "byteOffset" : 324
        },
        {
            "buffer" : 0,
            "byteLength" : 432,
            "byteOffset" : 648
        },
        {
            "buffer" : 0,
            "byteLength" : 216,
            "byteOffset" : 1080
        },
        {
            "buffer" : 0,
            "byteLength" : 216,
            "byteOffset" : 1296
        },
        {
            "buffer" : 0,
            "byteLength" : 3024,
            "byteOffset" : 1512
        },
        {
            "buffer" : 0,
            "byteLength" : 3024,
            "byteOffset" : 4536
        },
        {
            "buffer" : 0,
            "byteLength" : 4032,
            "byteOffset" : 7560
        },
        {
            "buffer" : 0,
            "byteLength" : 2016,
            "byteOffset" : 11592
        },
        {
            "buffer" : 0,
            "byteLength" : 756,
            "byteOffset" : 13608
        },
        {
            "buffer" : 0,
            "byteLength" : 324,
            "byteOffset" : 14364
        },
        {
            "buffer" : 0,
            "byteLength" : 324,
            "byteOffset" : 14688
        },
        {
            "buffer" : 0,
            "byteLength" : 432,
            "byteOffset" : 15012
        },
        {
            "buffer" : 0,
            "byteLength" : 216,
            "byteOffset" : 15444
        },
        {
            "buffer" : 0,
            "byteLength" : 216,
            "byteOffset" : 15660
        },
        {
            "buffer" : 0,
            "byteLength" : 1920,
            "byteOffset" : 15876
        },
        {
            "buffer" : 0,
            "byteLength" : 1920,
            "byteOffset" : 17796
        },
        {
            "buffer" : 0,
            "byteLength" : 2560,
            "byteOffset" : 19716
        },
        {
            "buffer" : 0,
            "byteLength" : 1280,
            "byteOffset" : 22276
        },
        {
            "buffer" : 0,
            "byteLength" : 480,
            "byteOffset" : 23556
        },
        {
            "buffer" : 0,
            "byteLength" : 1872,
            "byteOffset" : 24036
        },
        {
            "buffer" : 0,
            "byteLength" : 1872,
            "byteOffset" : 25908
        },
        {
            "buffer" : 0,
            "byteLength" : 1248,
            "byteOffset" : 27780
        },
        {
            "buffer" : 0,
            "byteLength" : 492,
            "byteOffset" : 29028
        },
        {
            "buffer" : 0,
            "byteLength" : 2952,
            "byteOffset" : 29520
        },
        {
            "buffer" : 0,
            "byteLength" : 2952,
            "byteOffset" : 32472
        },
        {
            "buffer" : 0,
            "byteLength" : 3936,
            "byteOffset" : 35424
        },
        {
            "buffer" : 0,
            "byteLength" : 1968,
            "byteOffset" : 39360
        },
        {
            "buffer" : 0,
            "byteLength" : 492,
            "byteOffset" : 41328
        }
    ],
    "samplers" : [
        {
            "magFilter" : 9729,
            "minFilter" : 9987
        }
    ],
    "buffers" : [
        {
            "byteLength" : 41820,
            "uri" : "props.bin"
        }
    ]
}
