{
    "asset" : {
        "generator" : "Khronos glTF Blender I/O v1.6.16",
        "version" : "2.0"
    },
    "scene" : 0,
    "scenes" : [
        {
            "name" : "Scene",
            "nodes" : [
                0
            ]
        }
    ],
    "nodes" : [
        {
            "mesh" : 0,
            "name" : "_lod0",
            "scale" : [
                0.8999999761581421,
                0.8999999761581421,
                0.8999999761581421
            ],
            "translation" : [
                0,
                0.042190998792648315,
                0
            ]
        }
    ],
    "materials" : [
        {
            "name" : "mat_building",
            "pbrMetallicRoughness" : {
                "baseColorTexture" : {
                    "index" : 0
                }
            }
        },
        {
            "doubleSided" : true,
            "name" : "mat_roof",
            "pbrMetallicRoughness" : {
                "baseColorTexture" : {
                    "index" : 1
                },
                "metallicFactor" : 0,
                "roughnessFactor" : 0.5
            }
        },
        {
            "name" : "mat_clothlines",
            "pbrMetallicRoughness" : {}
        }
    ],
    "meshes" : [
        {
            "name" : "Mesh_0.001",
            "primitives" : [
                {
                    "attributes" : {
                        "POSITION" : 0,
                        "NORMAL" : 1,
                        "TANGENT" : 2,
                        "TEXCOORD_0" : 3
                    },
                    "indices" : 4,
                    "material" : 0
                },
                {
                    "attributes" : {
                        "POSITION" : 5,
                        "NORMAL" : 6,
                        "TANGENT" : 7,
                        "TEXCOORD_0" : 8
                    },
                    "indices" : 9,
                    "material" : 1
                },
                {
                    "attributes" : {
                        "POSITION" : 10,
                        "NORMAL" : 11,
                        "TANGENT" : 12,
                        "TEXCOORD_0" : 13
                    },
                    "indices" : 14,
                    "material" : 2
                }
            ]
        }
    ],
    "textures" : [
        {
            "sampler" : 0,
            "source" : 0
        },
        {
            "sampler" : 0,
            "source" : 0
        }
    ],
    "images" : [
        {
            "mimeType" : "image/png",
            "name" : "processing_04_diff_0",
            "uri" : "processing_04_diff_0.png"
        }
    ],
    "accessors" : [
        {
            "bufferView" : 0,
            "componentType" : 5126,
            "count" : 3355,
            "max" : [
                2.0859375,
                1.9990234375,
                2.068359375
            ],
            "min" : [
                -1.9111328125,
                -0.5,
                -2.080078125
            ],
            "type" : "VEC3"
        },
        {
            "bufferView" : 1,
            "componentType" : 5126,
            "count" : 3355,
            "type" : "VEC3"
        },
        {
            "bufferView" : 2,
            "componentType" : 5126,
            "count" : 3355,
            "type" : "VEC4"
        },
        {
            "bufferView" : 3,
            "componentType" : 5126,
            "count" : 3355,
            "type" : "VEC2"
        },
        {
            "bufferView" : 4,
            "componentType" : 5123,
            "count" : 6405,
            "type" : "SCALAR"
        },
        {
            "bufferView" : 5,
            "componentType" : 5126,
            "count" : 107,
            "max" : [
                1.4375,
                1.3544921875,
                1.583984375
            ],
            "min" : [
                -0.787109375,
                0.73828125,
                -1.798828125
            ],
            "type" : "VEC3"
        },
        {
            "bufferView" : 6,
            "componentType" : 5126,
            "count" : 107,
            "type" : "VEC3"
        },
        {
            "bufferView" : 7,
            "componentType" : 5126,
            "count" : 107,
            "type" : "VEC4"
        },
        {
            "bufferView" : 8,
            "componentType" : 5126,
            "count" : 107,
            "type" : "VEC2"
        },
        {
            "bufferView" : 9,
            "componentType" : 5123,
            "count" : 297,
            "type" : "SCALAR"
        },
        {
            "bufferView" : 10,
            "componentType" : 5126,
            "count" : 290,
            "max" : [
                1.7568359375,
                0.7265625,
                1.7607421875
            ],
            "min" : [
                -1.7119140625,
                -0.5078125,
                -1.9423828125
            ],
            "type" : "VEC3"
        },
        {
            "bufferView" : 11,
            "componentType" : 5126,
            "count" : 290,
            "type" : "VEC3"
        },
        {
            "bufferView" : 12,
            "componentType" : 5126,
            "count" : 290,
            "type" : "VEC4"
        },
        {
            "bufferView" : 13,
            "componentType" : 5126,
            "count" : 290,
            "type" : "VEC2"
        },
        {
            "bufferView" : 14,
            "componentType" : 5123,
            "count" : 474,
            "type" : "SCALAR"
        }
    ],
    "bufferViews" : [
        {
            "buffer" : 0,
            "byteLength" : 40260,
            "byteOffset" : 0
        },
        {
            "buffer" : 0,
            "byteLength" : 40260,
            "byteOffset" : 40260
        },
        {
            "buffer" : 0,
            "byteLength" : 53680,
            "byteOffset" : 80520
        },
        {
            "buffer" : 0,
            "byteLength" : 26840,
            "byteOffset" : 134200
        },
        {
            "buffer" : 0,
            "byteLength" : 12810,
            "byteOffset" : 161040
        },
        {
            "buffer" : 0,
            "byteLength" : 1284,
            "byteOffset" : 173852
        },
        {
            "buffer" : 0,
            "byteLength" : 1284,
            "byteOffset" : 175136
        },
        {
            "buffer" : 0,
            "byteLength" : 1712,
            "byteOffset" : 176420
        },
        {
            "buffer" : 0,
            "byteLength" : 856,
            "byteOffset" : 178132
        },
        {
            "buffer" : 0,
            "byteLength" : 594,
            "byteOffset" : 178988
        },
        {
            "buffer" : 0,
            "byteLength" : 3480,
            "byteOffset" : 179584
        },
        {
            "buffer" : 0,
            "byteLength" : 3480,
            "byteOffset" : 183064
        },
        {
            "buffer" : 0,
            "byteLength" : 4640,
            "byteOffset" : 186544
        },
        {
            "buffer" : 0,
            "byteLength" : 2320,
            "byteOffset" : 191184
        },
        {
            "buffer" : 0,
            "byteLength" : 948,
            "byteOffset" : 193504
        }
    ],
    "samplers" : [
        {
            "magFilter" : 9729,
            "minFilter" : 9987
        }
    ],
    "buffers" : [
        {
            "byteLength" : 194452,
            "uri" : "worker_multifactory.bin"
        }
    ]
}
