{
    "asset" : {
        "generator" : "Khronos glTF Blender I/O v1.6.16",
        "version" : "2.0"
    },
    "scene" : 0,
    "scenes" : [
        {
            "name" : "Scene",
            "nodes" : [
                0,
                1
            ]
        }
    ],
    "nodes" : [
        {
            "mesh" : 0,
            "name" : "_tank_lod0"
        },
        {
            "mesh" : 1,
            "name" : "_lod0"
        }
    ],
    "materials" : [
        {
            "name" : "Material_0.002",
            "pbrMetallicRoughness" : {}
        },
        {
            "name" : "Material_0.004",
            "pbrMetallicRoughness" : {}
        }
    ],
    "meshes" : [
        {
            "name" : "Mesh_0.002",
            "primitives" : [
                {
                    "attributes" : {
                        "POSITION" : 0,
                        "NORMAL" : 1,
                        "TANGENT" : 2,
                        "TEXCOORD_0" : 3
                    },
                    "indices" : 4,
                    "material" : 0
                }
            ]
        },
        {
            "name" : "Mesh_0.004",
            "primitives" : [
                {
                    "attributes" : {
                        "POSITION" : 5,
                        "NORMAL" : 6,
                        "TANGENT" : 7,
                        "TEXCOORD_0" : 8
                    },
                    "indices" : 9,
                    "material" : 1
                }
            ]
        }
    ],
    "accessors" : [
        {
            "bufferView" : 0,
            "componentType" : 5126,
            "count" : 136,
            "max" : [
                0.8170875310897827,
                0.6491507291793823,
                -1.3250494003295898
            ],
            "min" : [
                -0.525363028049469,
                -0.009765267372131348,
                -1.910688042640686
            ],
            "type" : "VEC3"
        },
        {
            "bufferView" : 1,
            "componentType" : 5126,
            "count" : 136,
            "type" : "VEC3"
        },
        {
            "bufferView" : 2,
            "componentType" : 5126,
            "count" : 136,
            "type" : "VEC4"
        },
        {
            "bufferView" : 3,
            "componentType" : 5126,
            "count" : 136,
            "type" : "VEC2"
        },
        {
            "bufferView" : 4,
            "componentType" : 5123,
            "count" : 420,
            "type" : "SCALAR"
        },
        {
            "bufferView" : 5,
            "componentType" : 5126,
            "count" : 2544,
            "max" : [
                1.595703125,
                1.720703125,
                2.353515625
            ],
            "min" : [
                -1.0576171875,
                -0.019256591796875,
                -1.2939453125
            ],
            "type" : "VEC3"
        },
        {
            "bufferView" : 6,
            "componentType" : 5126,
            "count" : 2544,
            "type" : "VEC3"
        },
        {
            "bufferView" : 7,
            "componentType" : 5126,
            "count" : 2544,
            "type" : "VEC4"
        },
        {
            "bufferView" : 8,
            "componentType" : 5126,
            "count" : 2544,
            "type" : "VEC2"
        },
        {
            "bufferView" : 9,
            "componentType" : 5123,
            "count" : 6639,
            "type" : "SCALAR"
        }
    ],
    "bufferViews" : [
        {
            "buffer" : 0,
            "byteLength" : 1632,
            "byteOffset" : 0
        },
        {
            "buffer" : 0,
            "byteLength" : 1632,
            "byteOffset" : 1632
        },
        {
            "buffer" : 0,
            "byteLength" : 2176,
            "byteOffset" : 3264
        },
        {
            "buffer" : 0,
            "byteLength" : 1088,
            "byteOffset" : 5440
        },
        {
            "buffer" : 0,
            "byteLength" : 840,
            "byteOffset" : 6528
        },
        {
            "buffer" : 0,
            "byteLength" : 30528,
            "byteOffset" : 7368
        },
        {
            "buffer" : 0,
            "byteLength" : 30528,
            "byteOffset" : 37896
        },
        {
            "buffer" : 0,
            "byteLength" : 40704,
            "byteOffset" : 68424
        },
        {
            "buffer" : 0,
            "byteLength" : 20352,
            "byteOffset" : 109128
        },
        {
            "buffer" : 0,
            "byteLength" : 13278,
            "byteOffset" : 129480
        }
    ],
    "buffers" : [
        {
            "byteLength" : 142760,
            "uri" : "cattle_farm.bin"
        }
    ]
}
